<svg width="302" height="94" viewBox="0 0 302 94" fill="none" xmlns="http://www.w3.org/2000/svg">
<path d="M42.3143 0.192802C18.5451 2.75317 0.5 22.7512 0.5 46.5315C0.5 62.9217 9.13451 78.0512 23.3572 86.5857C36.2022 94.2862 52.4817 95.1785 66.3163 88.9133C84.2838 80.7861 95.3437 61.7579 93.4228 42.1479C91.3466 20.7921 75.203 3.7812 53.8593 0.464353C51.3951 0.0764193 44.7785 -0.0787501 42.3143 0.192802ZM27.3349 32.9926C28.3827 36.0961 36.7261 60.3032 37.056 61.2148L37.347 62.0489H29.4498L28.9648 60.439C28.6931 59.5661 28.1886 57.9562 27.8588 56.8506L27.2379 54.8721L22.387 54.9109L17.5168 54.9691L16.4496 58.4993L15.363 62.0489H11.7152C9.36735 62.0489 8.06732 61.9713 8.06732 61.8549C8.06732 61.7385 8.5524 60.2644 9.13451 58.5575C9.71661 56.8506 10.6868 54.038 11.2883 52.2923C12.6659 48.316 16.0227 38.5013 17.478 34.2534L18.6034 31.0142H26.6558L27.3349 32.9926ZM55.2175 32.7599H50.9488V60.3032H55.2175V62.0489H38.9187V60.3032H43.1874V32.7599H38.9187V31.0142H55.2175V32.7599ZM79.1613 41.6048C81.1599 47.4432 83.5465 54.3484 84.439 56.9669C85.3316 59.5661 86.0689 61.7773 86.0689 61.8743C86.0689 61.9713 84.3614 62.0489 82.2076 62.0489H78.327L77.5702 59.5661C77.1434 58.2083 76.6389 56.5984 76.4448 55.9777L76.0956 54.8721L71.2447 54.9109L66.3939 54.9691L65.3267 58.4993L64.2595 62.0489H56.7892L57.3519 60.439C58.0504 58.4023 66.8208 32.9344 67.1894 31.8288L67.4805 31.0142H75.5329L79.1613 41.6048Z" fill="white"/>
<path d="M20.3289 45.911C19.2423 49.4994 18.3303 52.5058 18.3497 52.5834C18.3497 52.7774 26.4992 52.7774 26.4992 52.6028C26.4992 52.3507 22.5603 39.6458 22.4439 39.5101C22.3856 39.4325 21.4349 42.3226 20.3289 45.911Z" fill="white"/>
<path d="M69.2266 45.8142C68.14 49.3638 67.2474 52.3703 67.2474 52.4866C67.2474 52.6806 68.1982 52.7388 71.3416 52.7388C75.1446 52.7388 75.4163 52.7194 75.3192 52.3897C74.7954 50.5664 71.4386 39.7818 71.3416 39.6072C71.2833 39.4715 70.3326 42.2646 69.2266 45.8142Z" fill="white"/>
<path d="M129.398 39.6284C128.713 38.7941 127.863 38.1535 126.85 37.7066C125.866 37.2596 124.719 37.0361 123.407 37.0361C122.096 37.0361 120.874 37.2894 119.741 37.796C118.638 38.3025 117.669 39.0176 116.835 39.9413C116.03 40.8352 115.389 41.9079 114.912 43.1593C114.465 44.4108 114.242 45.7665 114.242 47.2266C114.242 48.7164 114.465 50.0871 114.912 51.3385C115.389 52.5602 116.03 53.6328 116.835 54.5565C117.64 55.4504 118.579 56.1507 119.652 56.6572C120.754 57.1637 121.932 57.417 123.184 57.417C124.614 57.417 125.881 57.1191 126.984 56.5231C128.087 55.9272 128.996 55.0929 129.711 54.0202L135.524 58.3556C134.182 60.2328 132.483 61.6183 130.427 62.5122C128.37 63.4061 126.254 63.8531 124.078 63.8531C121.604 63.8531 119.324 63.4657 117.237 62.691C115.151 61.9163 113.347 60.8138 111.827 59.3836C110.307 57.9236 109.115 56.1656 108.25 54.1096C107.416 52.0536 106.999 49.7593 106.999 47.2266C106.999 44.6939 107.416 42.3995 108.25 40.3436C109.115 38.2876 110.307 36.5445 111.827 35.1143C113.347 33.6542 115.151 32.5368 117.237 31.7621C119.324 30.9874 121.604 30.6001 124.078 30.6001C124.972 30.6001 125.896 30.6895 126.85 30.8682C127.834 31.0172 128.787 31.2705 129.711 31.6281C130.665 31.9856 131.574 32.4624 132.439 33.0583C133.303 33.6542 134.078 34.3842 134.764 35.2483L129.398 39.6284Z" fill="white"/>
<path d="M138.098 52.1877C138.098 50.4595 138.411 48.8952 139.037 47.4947C139.663 46.0943 140.512 44.9024 141.585 43.9192C142.688 42.9061 143.97 42.1314 145.43 41.595C146.921 41.0587 148.5 40.7905 150.17 40.7905C151.839 40.7905 153.404 41.0587 154.864 41.595C156.354 42.1314 157.636 42.9061 158.709 43.9192C159.812 44.9024 160.676 46.0943 161.302 47.4947C161.928 48.8952 162.241 50.4595 162.241 52.1877C162.241 53.9159 161.928 55.4802 161.302 56.8807C160.676 58.2811 159.812 59.4879 158.709 60.501C157.636 61.4843 156.354 62.2441 154.864 62.7804C153.404 63.3168 151.839 63.5849 150.17 63.5849C148.5 63.5849 146.921 63.3168 145.43 62.7804C143.97 62.2441 142.688 61.4843 141.585 60.501C140.512 59.4879 139.663 58.2811 139.037 56.8807C138.411 55.4802 138.098 53.9159 138.098 52.1877ZM144.804 52.1877C144.804 53.8265 145.266 55.1525 146.19 56.1656C147.144 57.1786 148.471 57.6852 150.17 57.6852C151.869 57.6852 153.18 57.1786 154.104 56.1656C155.058 55.1525 155.535 53.8265 155.535 52.1877C155.535 50.5489 155.058 49.223 154.104 48.2099C153.18 47.1968 151.869 46.6902 150.17 46.6902C148.471 46.6902 147.144 47.1968 146.19 48.2099C145.266 49.223 144.804 50.5489 144.804 52.1877Z" fill="white"/>
<path d="M166.728 29.2592H173.435V63.0486H166.728V29.2592Z" fill="white"/>
<path d="M177.895 52.1877C177.895 50.4595 178.208 48.8952 178.834 47.4947C179.46 46.0943 180.31 44.9024 181.383 43.9192C182.485 42.9061 183.767 42.1314 185.228 41.595C186.718 41.0587 188.298 40.7905 189.967 40.7905C191.636 40.7905 193.201 41.0587 194.662 41.595C196.152 42.1314 197.434 42.9061 198.507 43.9192C199.609 44.9024 200.474 46.0943 201.1 47.4947C201.726 48.8952 202.039 50.4595 202.039 52.1877C202.039 53.9159 201.726 55.4802 201.1 56.8807C200.474 58.2811 199.609 59.4879 198.507 60.501C197.434 61.4843 196.152 62.2441 194.662 62.7804C193.201 63.3168 191.636 63.5849 189.967 63.5849C188.298 63.5849 186.718 63.3168 185.228 62.7804C183.767 62.2441 182.485 61.4843 181.383 60.501C180.31 59.4879 179.46 58.2811 178.834 56.8807C178.208 55.4802 177.895 53.9159 177.895 52.1877ZM184.602 52.1877C184.602 53.8265 185.064 55.1525 185.988 56.1656C186.942 57.1786 188.268 57.6852 189.967 57.6852C191.666 57.6852 192.977 57.1786 193.901 56.1656C194.855 55.1525 195.332 53.8265 195.332 52.1877C195.332 50.5489 194.855 49.223 193.901 48.2099C192.977 47.1968 191.666 46.6902 189.967 46.6902C188.268 46.6902 186.942 47.1968 185.988 48.2099C185.064 49.223 184.602 50.5489 184.602 52.1877Z" fill="white"/>
<path d="M206.436 41.3268H213.143V44.8131H213.232C213.947 43.4722 214.797 42.474 215.781 41.8185C216.764 41.1332 218.001 40.7905 219.492 40.7905C219.879 40.7905 220.266 40.8054 220.654 40.8352C221.041 40.865 221.399 40.9246 221.727 41.014V47.1372C221.25 46.9882 220.773 46.8839 220.296 46.8243C219.849 46.7349 219.372 46.6902 218.866 46.6902C217.584 46.6902 216.57 46.869 215.825 47.2266C215.08 47.5841 214.499 48.0907 214.082 48.7462C213.694 49.3719 213.441 50.1317 213.321 51.0256C213.202 51.9195 213.143 52.9028 213.143 53.9755V63.0486H206.436V41.3268Z" fill="white"/>
<path d="M238.727 60.3222H238.638C237.892 61.4843 236.894 62.3186 235.642 62.8251C234.42 63.3316 233.123 63.5849 231.752 63.5849C230.739 63.5849 229.755 63.4359 228.801 63.138C227.877 62.8698 227.058 62.4526 226.342 61.8865C225.627 61.3204 225.061 60.6202 224.643 59.7859C224.226 58.9515 224.017 57.9832 224.017 56.8807C224.017 55.6292 224.241 54.5714 224.688 53.7073C225.165 52.8432 225.791 52.1281 226.566 51.562C227.371 50.9959 228.28 50.5638 229.293 50.2658C230.307 49.9381 231.35 49.6997 232.423 49.5507C233.526 49.4017 234.614 49.3123 235.687 49.2825C236.79 49.2528 237.803 49.2378 238.727 49.2378C238.727 48.046 238.295 47.1074 237.43 46.4221C236.596 45.707 235.597 45.3494 234.435 45.3494C233.332 45.3494 232.319 45.5878 231.395 46.0645C230.5 46.5115 229.696 47.1372 228.98 47.9417L225.403 44.2767C226.655 43.1146 228.116 42.2505 229.785 41.6844C231.454 41.0885 233.183 40.7905 234.971 40.7905C236.939 40.7905 238.548 41.0438 239.8 41.5503C241.082 42.0271 242.095 42.7422 242.84 43.6957C243.615 44.6492 244.152 45.8261 244.45 47.2266C244.748 48.5972 244.897 50.1913 244.897 52.0089V63.0486H238.727V60.3222ZM237.073 53.5286C236.566 53.5286 235.925 53.5584 235.15 53.618C234.405 53.6477 233.675 53.7669 232.959 53.9755C232.274 54.1841 231.678 54.497 231.171 54.9141C230.694 55.3313 230.456 55.9123 230.456 56.6572C230.456 57.4617 230.798 58.0576 231.484 58.445C232.17 58.8324 232.885 59.026 233.63 59.026C234.286 59.026 234.912 58.9366 235.508 58.7579C236.134 58.5791 236.685 58.3258 237.162 57.9981C237.639 57.6703 238.012 57.2531 238.28 56.7466C238.578 56.2401 238.727 55.6441 238.727 54.9588V53.5286H237.073Z" fill="white"/>
<path d="M272.354 63.0486H266.184V60.1881H266.095C265.826 60.5755 265.469 60.9777 265.022 61.3949C264.604 61.7822 264.098 62.1398 263.501 62.4675C262.935 62.7953 262.294 63.0635 261.579 63.2721C260.893 63.4806 260.178 63.5849 259.433 63.5849C257.823 63.5849 256.363 63.3168 255.051 62.7804C253.74 62.2143 252.607 61.4396 251.653 60.4563C250.729 59.4432 250.014 58.2513 249.507 56.8807C249 55.51 248.747 54.0053 248.747 52.3665C248.747 50.8469 248.971 49.4017 249.418 48.0311C249.895 46.6306 250.55 45.3941 251.385 44.3214C252.249 43.2487 253.293 42.3995 254.515 41.7738C255.737 41.1183 257.123 40.7905 258.673 40.7905C260.074 40.7905 261.37 41.014 262.563 41.4609C263.785 41.8781 264.783 42.6081 265.558 43.651H265.648V29.2592H272.354V63.0486ZM266.184 52.1877C266.184 50.5489 265.707 49.223 264.753 48.2099C263.829 47.1968 262.518 46.6902 260.819 46.6902C259.12 46.6902 257.793 47.1968 256.84 48.2099C255.916 49.223 255.454 50.5489 255.454 52.1877C255.454 53.8265 255.916 55.1525 256.84 56.1656C257.793 57.1786 259.12 57.6852 260.819 57.6852C262.518 57.6852 263.829 57.1786 264.753 56.1656C265.707 55.1525 266.184 53.8265 266.184 52.1877Z" fill="white"/>
<path d="M277.356 52.1877C277.356 50.4595 277.669 48.8952 278.295 47.4947C278.921 46.0943 279.771 44.9024 280.844 43.9192C281.947 42.9061 283.228 42.1314 284.689 41.595C286.179 41.0587 287.759 40.7905 289.428 40.7905C291.097 40.7905 292.662 41.0587 294.123 41.595C295.613 42.1314 296.895 42.9061 297.968 43.9192C299.071 44.9024 299.935 46.0943 300.561 47.4947C301.187 48.8952 301.5 50.4595 301.5 52.1877C301.5 53.9159 301.187 55.4802 300.561 56.8807C299.935 58.2811 299.071 59.4879 297.968 60.501C296.895 61.4843 295.613 62.2441 294.123 62.7804C292.662 63.3168 291.097 63.5849 289.428 63.5849C287.759 63.5849 286.179 63.3168 284.689 62.7804C283.228 62.2441 281.947 61.4843 280.844 60.501C279.771 59.4879 278.921 58.2811 278.295 56.8807C277.669 55.4802 277.356 53.9159 277.356 52.1877ZM284.063 52.1877C284.063 53.8265 284.525 55.1525 285.449 56.1656C286.403 57.1786 287.729 57.6852 289.428 57.6852C291.127 57.6852 292.439 57.1786 293.363 56.1656C294.317 55.1525 294.793 53.8265 294.793 52.1877C294.793 50.5489 294.317 49.223 293.363 48.2099C292.439 47.1968 291.127 46.6902 289.428 46.6902C287.729 46.6902 286.403 47.1968 285.449 48.2099C284.525 49.223 284.063 50.5489 284.063 52.1877Z" fill="white"/>
</svg>
