<svg width="270" height="84" viewBox="0 0 270 84" fill="none" xmlns="http://www.w3.org/2000/svg">
<path d="M258.736 12.7074C258.655 9.78366 261.011 6.33172 264.607 6.23835C267.891 6.15299 269.528 8.72994 269.589 11.1442C269.715 15.8819 264.679 21.4386 258.556 21.5987C258.639 21.1439 258.906 20.8297 259.207 20.475C259.727 19.8623 260.35 19.1288 260.303 17.3411C260.29 16.8508 260.051 16.464 259.763 15.9982C259.327 15.2931 258.779 14.4071 258.736 12.7074Z" fill="white"/>
<path fill-rule="evenodd" clip-rule="evenodd" d="M54.8902 0.462896C60.4793 0.318843 62.7949 2.64236 62.8727 5.61146C63.1169 14.8815 44.8818 24.5651 25.3911 26.4591C16.8638 37.914 10.408 50.8468 10.612 58.5216C10.7273 62.8805 13.1395 65.7162 17.379 65.6042C24.5083 65.4201 34.3422 50.8094 34.1356 42.9532C34.0846 40.9418 33.1697 39.5626 31.0499 39.6186C28.3273 39.6898 26.4036 42.9926 25.1002 45.2304L25.053 45.3114C23.7266 47.5864 23.3077 49.6737 23.0149 51.133C22.758 52.4132 22.5981 53.2101 22.0075 53.2263C21.3927 53.242 21.3619 52.0605 21.3231 50.5711L21.3206 50.4759C21.2053 46.1677 27.4195 36.2627 33.1992 36.1133C35.4128 36.0546 38.8473 37.834 38.9681 42.433C39.1505 49.3315 27.2156 69.3042 14.5938 69.6323C5.63463 69.8671 0.19309 60.9731 0.0079486 53.9812C-0.21744 45.3461 5.04164 34.9502 12.9142 25.6268C8.16757 24.0209 4.4889 20.8784 4.38694 17.093C4.25814 12.2059 9.1845 8.84464 12.8444 8.74861C15.0527 8.69259 16.2494 9.0794 17.218 10.0371C13.9874 10.1198 8.91887 12.0858 9.06108 17.5438C9.14157 20.6196 11.4116 22.6897 14.4892 23.8101C25.8552 11.1015 41.8713 0.801687 54.8902 0.462896ZM58.2529 5.80361C58.2153 4.41377 58.006 2.93589 54.7808 3.01859C46.9432 3.224 36.0413 12.7635 27.0284 24.3118C44.8342 21.9162 58.4004 11.3817 58.2529 5.80361Z" fill="white"/>
<path fill-rule="evenodd" clip-rule="evenodd" d="M255.771 45.5942C255.849 48.6433 254.81 55.3577 251.311 60.5623C251.672 60.6204 252.046 60.6815 252.43 60.7442C256.259 61.3699 261.039 62.1509 263.351 61.5787C262.683 63.2727 260.837 67.1087 256.485 67.2208C254.695 67.2666 252.446 66.636 250.3 66.0346C249.075 65.6911 247.883 65.357 246.83 65.164C244.634 66.6163 242.063 67.4091 239.425 67.4475C234.222 67.5836 229.854 63.1846 229.178 62.2669L229.301 62.1469C225.926 65.2414 222.59 67.4555 219.832 67.5275C215.786 67.6343 213.83 64.7132 213.714 60.3542C212.171 62.1202 206.958 67.3595 202.694 67.4715C197.113 67.6156 196.816 60.5303 197.599 57.9694C193.969 61.3733 186.482 68.2532 180.955 68.3972C176.812 68.5066 174.124 65.8069 174.027 62.1442C173.815 54.0213 184.717 49.2515 188.881 48.1338C186.89 47.2054 185.219 46.197 184.159 45.1407C181.951 45.4901 179.775 45.7702 177.749 45.9703C173.539 55.7632 162.406 67.9464 154.051 68.1651C150.002 68.2692 147.445 64.5024 147.327 60.0715C147.217 55.8459 150.729 48.2111 155.827 40.0535C153.02 41.3206 150.587 42.2943 148.84 42.8625C147.458 53.6371 134.305 68.1785 127.372 68.3572C125.244 68.4132 122.773 66.7753 122.153 63.7475L112.582 83.4641H104.98L118.597 55.3177C118.318 55.7053 118.008 56.1507 117.669 56.6373C114.849 60.6857 110.044 67.5847 104.578 67.7276C101.854 67.797 100.105 65.3748 100.048 63.2433C100.003 61.4533 100.864 59.4552 102.128 57.0784L108.764 45.4048C109.456 44.2363 109.998 42.8545 109.976 42.0649C109.955 41.2752 109.464 40.531 108.165 40.5656C106.045 40.619 103.118 45.2634 101.747 48.1738L92.7314 66.4765L85.2614 66.4952L95.7097 44.8872C95.9834 44.231 96.3993 42.6331 96.3832 42.0569C96.3591 41.1579 96.0317 40.5923 94.7197 40.627C92.5221 40.6857 90.4453 42.8865 88.8488 46.3544L79.1302 66.4818L71.459 66.4445L79.7876 49.3822C77.5257 53.0342 67.0558 68.1251 61.0642 68.2798C56.0279 68.4105 55.6388 62.8512 55.9796 60.685C55.9008 60.7808 55.7981 60.9117 55.6727 61.0714C54.2443 62.8918 49.8724 68.4633 44.3667 68.6079C41.7183 68.6773 38.4475 66.3058 38.316 61.3253C38.0075 49.6383 53.0602 33.5497 62.0919 33.315C65.3439 33.2296 66.546 34.9956 67.08 36.06L68.282 34.9342L76.1599 34.9049L65.6981 57.5906C64.5792 59.706 64.1982 62.2323 65.8189 62.1896C70.0583 62.0802 83.308 40.7737 85.9992 34.9049L92.9353 34.8996L93.7805 36.6949C95.8037 35.2757 98.4734 33.6591 100.784 33.6004C104.266 33.5097 105.624 36.1347 105.973 38.4262C106.92 37.3698 111.331 33.5764 114.881 33.483C116.69 33.4377 119.47 34.7182 119.553 37.8553C119.626 40.6489 115.791 47.2272 112.574 52.7468C110.248 56.7355 108.245 60.1713 108.273 61.2266C108.291 61.8721 108.699 62.363 109.279 62.3496C112.493 62.2643 125.064 41.4166 131.681 28.8066L139.221 28.7986L135.252 36.9376C135.48 36.8164 135.807 36.6092 136.208 36.3547C137.809 35.3378 140.599 33.5657 143.084 33.5017C146.701 33.4057 148.775 36.8336 148.944 40.5363C150.89 40.3469 153.959 39.1838 157.515 37.4178C167.019 22.9672 180.757 7.86028 187.816 7.67622C190.274 7.61486 191.65 10.5973 191.68 11.675C191.854 18.3388 180.08 27.0247 168.427 33.6298L167.923 34.9396C168.84 34.0539 172.573 33.0242 173.947 32.9869C177.247 32.9015 179.364 35.5318 179.452 38.8824C179.493 40.4563 179.114 42.3076 178.401 44.3003C179.571 44.263 181.245 44.0443 183.137 43.6895C183.03 43.4351 182.968 43.1644 182.954 42.8892C182.747 34.9876 194.414 31.3036 199.061 31.1835C202.842 31.0848 205.675 32.496 205.737 34.8195C205.839 38.7463 199.727 41.5927 192.308 43.484C193.352 45.3159 195.184 45.635 196.565 45.8756C197.593 46.0547 198.372 46.1904 198.391 46.8746C198.412 47.763 197.323 49.5636 196.002 49.5983C189.836 49.7584 182.895 54.3974 183.016 58.9937C183.061 60.621 184.4 62.1202 186.641 62.0615C192.56 61.9095 201.229 51.9538 207.417 40.9604L224.592 9.91437H232.84L208.968 53.2103C207.178 56.7076 206.641 58.3028 206.66 58.9484C206.682 59.8821 207.047 60.8077 208.514 60.7704C212.01 60.6797 217.809 52.2819 221.222 46.3464L241.856 9.89303H250.107L226.862 51.7351C225.054 54.5148 223.393 58.727 223.417 59.626C223.441 60.525 223.723 61.488 225.239 61.448C229.29 61.3439 244.147 41.0725 249.186 31.7891L256.715 31.7651C255.645 35.0996 255.602 39.1998 255.771 45.5942ZM186.494 12.6728C186.456 11.2349 186.311 11.1656 185.155 11.1976C181.468 11.2936 171.76 25.6589 169.727 30.1832C178.592 24.1544 186.607 16.9277 186.494 12.6728ZM198.617 33.5658C195.002 33.6592 191.436 38.2582 191.482 40.0055C191.493 40.4858 191.54 40.9646 191.621 41.438C196.365 39.7708 200.382 37.5033 200.318 34.9583C200.296 34.1687 199.915 33.5311 198.617 33.5658ZM233.235 58.1962C237.161 61.4481 241.059 60.9466 242.771 59.7274C247.454 55.7333 246.829 49.6336 246.436 45.7998C246.266 44.1463 246.14 42.9142 246.501 42.4544C245.694 43.1498 244.15 45.0876 242.15 47.5972C239.692 50.6815 236.546 54.6294 233.235 58.1962ZM155.269 59.7141C155.159 55.5686 162.753 38.2369 168.076 38.0982C169.81 38.0528 170.859 39.416 170.902 41.0459C171.02 45.5489 162.898 62.0323 157.502 62.171C156.777 62.1897 155.326 61.9389 155.269 59.7141ZM126.793 63.1154C125.494 63.1474 124.668 62.019 124.635 60.7972C124.598 59.386 131.695 39.5867 137.955 39.424C139.978 39.3706 140.603 41.0192 140.638 42.4091C140.745 46.4799 131.947 62.982 126.793 63.1154ZM62.6211 37.2525C64.0674 37.2125 64.5477 38.9251 64.5664 39.6454C64.7167 45.3675 54.8479 62.3284 49.5459 62.4671C48.6765 62.4885 47.4181 61.3014 47.3805 59.8635C47.2383 54.4028 57.3218 37.3912 62.6211 37.2525Z" fill="white"/>
</svg>
