<svg width="284" height="85" viewBox="0 0 284 85" fill="none" xmlns="http://www.w3.org/2000/svg">
<g clip-path="url(#clip0_349_2029)">
<path d="M279.094 15.7111C278.901 15.6378 278.63 15.5998 278.279 15.5998H277.937V17.145H278.483C278.811 17.145 279.068 17.0793 279.252 16.9488C279.436 16.8184 279.528 16.6091 279.528 16.3168C279.528 16.0266 279.384 15.825 279.094 15.7111ZM276.53 19.9858V14.662C276.862 14.662 277.361 14.6628 278.026 14.6657C278.689 14.6675 279.059 14.6711 279.133 14.6747C279.558 14.7065 279.912 14.7979 280.192 14.9486C280.67 15.2095 280.909 15.6324 280.909 16.2189C280.909 16.6677 280.783 16.9904 280.53 17.1884C280.279 17.3882 279.969 17.5068 279.6 17.5465C279.938 17.6148 280.192 17.7175 280.363 17.8537C280.679 18.1063 280.837 18.5049 280.837 19.047V19.5232C280.837 19.5753 280.841 19.6269 280.847 19.6798C280.854 19.7314 280.867 19.7835 280.886 19.8362L280.935 19.9858H279.594C279.551 19.8167 279.52 19.5717 279.505 19.2497C279.49 18.9285 279.46 18.7113 279.416 18.5974C279.346 18.4113 279.216 18.2809 279.022 18.2072C278.917 18.1634 278.756 18.1348 278.542 18.1219L278.233 18.1023H277.937V19.9858H276.53ZM275.806 14.5316C275.034 15.3132 274.65 16.2413 274.65 17.3141C274.65 18.4272 275.041 19.3719 275.826 20.1488C276.606 20.9268 277.549 21.3152 278.654 21.3152C279.754 21.3152 280.694 20.9239 281.475 20.1423C282.254 19.356 282.645 18.4142 282.645 17.3141C282.645 16.2456 282.257 15.3187 281.481 14.5316C280.696 13.733 279.754 13.3326 278.654 13.3326C277.54 13.3326 276.591 13.733 275.806 14.5316ZM282.047 20.7613C281.104 21.6658 279.973 22.1165 278.654 22.1165C277.29 22.1165 276.142 21.6539 275.208 20.7288C274.275 19.803 273.808 18.6657 273.808 17.3141C273.808 15.9117 274.311 14.7452 275.32 13.8146C276.267 12.9466 277.378 12.5119 278.654 12.5119C279.991 12.5119 281.133 12.981 282.08 13.9191C283.026 14.8572 283.499 15.9905 283.499 17.3141C283.499 18.6787 283.016 19.8279 282.047 20.7613Z" fill="white"/>
<path d="M5.21032 78.5451V78.5118C5.21032 75.1529 7.74754 72.4014 11.3583 72.4014C13.5557 72.4014 14.8841 73.161 16.0247 74.2415L14.6795 75.777C13.7256 74.8992 12.7042 74.3091 11.3415 74.3091C9.07669 74.3091 7.4066 76.1647 7.4066 78.4775V78.5118C7.4066 80.8235 9.05882 82.6969 11.3415 82.6969C12.806 82.6969 13.7424 82.1234 14.7645 81.178L16.1096 82.5288C14.8673 83.8117 13.5042 84.6212 11.2734 84.6212C7.7986 84.6212 5.21032 81.9384 5.21032 78.5451Z" fill="white"/>
<path d="M33.8445 78.5451V78.5118C33.8445 76.2157 32.1587 74.3091 29.7914 74.3091C27.4238 74.3091 25.7715 76.1824 25.7715 78.4775V78.5118C25.7715 80.8069 27.4577 82.6969 29.8249 82.6969C32.1923 82.6969 33.8445 80.8405 33.8445 78.5451ZM23.5741 78.5451V78.5118C23.5741 75.1862 26.1635 72.4014 29.8249 72.4014C33.4871 72.4014 36.0418 75.1529 36.0418 78.4775V78.5118C36.0418 81.8365 33.4525 84.6212 29.7914 84.6212C26.1292 84.6212 23.5741 81.8708 23.5741 78.5451Z" fill="white"/>
<path d="M44.714 72.6046H46.9449L50.5728 78.1911L54.2003 72.6046H56.4313V84.4189H54.3363V75.9459L50.5728 81.516H50.5046L46.775 75.9802V84.4189H44.714V72.6046Z" fill="white"/>
<path d="M65.6171 72.6046H67.8484L71.476 78.1911L75.1035 72.6046H77.3344V84.4189H75.2399V75.9459L71.476 81.516H71.4077L67.6785 75.9802V84.4189H65.6171V72.6046Z" fill="white"/>
<path d="M86.3315 79.4058V72.6044H88.4265V79.3216C88.4265 81.5159 89.567 82.6806 91.4407 82.6806C93.2974 82.6806 94.4376 81.5835 94.4376 79.4058V72.6044H96.5333V79.3046C96.5333 82.8324 94.5234 84.6049 91.407 84.6049C88.3075 84.6049 86.3315 82.8324 86.3315 79.4058Z" fill="white"/>
<path d="M105.531 72.6046H107.473L113.86 80.773V72.6046H115.92V84.4189H114.166L107.592 76.0134V84.4189H105.531V72.6046Z" fill="white"/>
<path d="M125.241 72.6042H127.335V84.4189H125.241V72.6042Z" fill="white"/>
<path d="M136.125 78.5451V78.5118C136.125 75.1529 138.663 72.4014 142.273 72.4014C144.471 72.4014 145.799 73.161 146.94 74.2415L145.595 75.777C144.641 74.8992 143.619 74.3091 142.257 74.3091C139.992 74.3091 138.323 76.1647 138.323 78.4775V78.5118C138.323 80.8235 139.974 82.6969 142.257 82.6969C143.721 82.6969 144.658 82.1234 145.68 81.178L147.026 82.5288C145.782 83.8117 144.419 84.6212 142.188 84.6212C138.714 84.6212 136.125 81.9384 136.125 78.5451Z" fill="white"/>
<path d="M162.579 79.7265L160.518 75.0013L158.475 79.7265H162.579ZM159.582 72.519H161.524L166.769 84.4189H164.556L163.346 81.5655H157.708L156.483 84.4189H154.337L159.582 72.519Z" fill="white"/>
<path d="M176.345 74.5279H172.564V72.6036H182.237V74.5279H178.457V84.4183H176.345V74.5279Z" fill="white"/>
<path d="M190.69 72.6042H192.785V84.4189H190.69V72.6042Z" fill="white"/>
<path d="M211.844 78.5451V78.5118C211.844 76.2157 210.158 74.3091 207.79 74.3091C205.423 74.3091 203.771 76.1824 203.771 78.4775V78.5118C203.771 80.8069 205.457 82.6969 207.824 82.6969C210.191 82.6969 211.844 80.8405 211.844 78.5451ZM201.573 78.5451V78.5118C201.573 75.1862 204.163 72.4014 207.824 72.4014C211.486 72.4014 214.041 75.1529 214.041 78.4775V78.5118C214.041 81.8365 211.452 84.6212 207.79 84.6212C204.128 84.6212 201.573 81.8708 201.573 78.5451Z" fill="white"/>
<path d="M222.715 72.6046H224.656L231.043 80.773V72.6046H233.104V84.4189H231.349L224.776 76.0134V84.4189H222.715V72.6046Z" fill="white"/>
<path d="M241.489 82.6973L242.749 81.2124C243.89 82.191 245.048 82.7479 246.513 82.7479C247.807 82.7479 248.624 82.1404 248.624 81.2634V81.229C248.624 80.3852 248.148 79.9292 245.933 79.4233C243.396 78.8154 241.966 78.0725 241.966 75.8959V75.8616C241.966 73.8354 243.668 72.4358 246.036 72.4358C247.773 72.4358 249.153 72.9587 250.361 73.9207L249.238 75.4905C248.164 74.6969 247.091 74.2748 246.002 74.2748C244.775 74.2748 244.06 74.8993 244.06 75.6766V75.7098C244.06 76.6212 244.605 77.0263 246.904 77.5666C249.425 78.1744 250.719 79.0688 250.719 81.0263V81.0606C250.719 83.2708 248.965 84.588 246.461 84.588C244.639 84.588 242.919 83.9635 241.489 82.6973Z" fill="white"/>
<path d="M42.0434 51.4505C37.8637 54.894 33.7454 56.4276 28.6859 56.4276C17.4044 56.4276 8.56676 46.0647 8.56676 32.8348C8.56676 19.4771 17.2177 9.40818 28.6859 9.40818C33.5295 9.40818 37.4903 10.8273 41.5277 14.0106L42.874 15.0745L48.6934 9.30559L47.085 7.96667C43.787 5.21197 38.2981 1.54836 28.7621 1.54836C12.6501 1.54836 0.501465 15.0705 0.501465 33.0032C0.501465 50.8372 12.5502 64.2875 28.5309 64.2875C38.2644 64.2875 43.9457 60.191 47.3727 57.1067L48.8717 55.7617L43.3958 50.3367L42.0434 51.4505Z" fill="white"/>
<path d="M72.7721 16.9153C67.4869 16.9153 63.0211 18.6665 59.5714 21.9774V0.625H51.6892V63.2661H59.5714V37.3233C59.5714 29.8365 64.8822 24.4039 72.1952 24.4039C79.3274 24.4039 83.5857 28.9868 83.5857 36.6711V63.2661H91.4684V35.9375C91.4684 24.5593 83.9555 16.9153 72.7721 16.9153Z" fill="white"/>
<path d="M102.95 48.8921C102.95 44.0151 107.393 41.1075 114.835 41.1075C119.896 41.1075 123.952 41.8374 127.128 42.5811V45.793C127.128 51.9971 121.136 56.6754 113.19 56.6754C108.1 56.6754 102.95 54.0591 102.95 49.0533V48.8921ZM115.41 17.2426C108.787 17.2426 103.761 19.1444 99.7167 21.0048L98.0345 21.7781L101.034 28.8802L102.887 27.942C107.105 25.8052 111.007 24.8097 115.163 24.8097C120.445 24.8097 126.7 26.6093 127.019 34.9602C123.868 34.2541 120.145 33.6983 115.081 33.6983C102.771 33.6983 94.8214 39.7596 94.8214 49.1346V49.2976C94.8214 59.0066 104.157 64.2443 112.943 64.2443C119.479 64.2443 124.021 61.8437 127.047 59.2784V63.2657H134.848V35.4466C134.848 24.0465 127.581 17.2426 115.41 17.2426Z" fill="white"/>
<path d="M147.289 24.9594V17.8942H139.405V63.268H147.289V44.3274C147.289 31.2975 155.445 25.4635 163.529 25.4635H165.866V17.2542L164.014 17.256C157.657 17.256 151.553 19.9074 147.289 24.9594Z" fill="white"/>
<path d="M188.082 56.4312C183.617 56.4312 181.626 54.5347 181.626 50.2774V25.4642H196.336V17.2546H181.626V4.61494H173.743V17.2546H168.424V25.4642H173.743V50.6843C173.743 58.8975 178.982 63.9994 187.423 63.9994C190.218 63.9994 192.572 63.4935 195.053 62.3591L196.175 61.8459V53.924L193.459 55.1313C191.325 56.0803 189.868 56.4312 188.082 56.4312Z" fill="white"/>
<path d="M217.486 24.4036C225.56 24.4036 229.346 30.4399 230.363 36.7159H204.281C205.654 29.4845 210.926 24.4036 217.486 24.4036ZM217.65 16.916C205.415 16.916 195.828 27.275 195.828 40.4987V40.6617C195.828 54.1043 205.491 64.2455 218.306 64.2455C227.931 64.2455 233.389 59.7374 237.067 55.8129L238.412 54.3764L232.728 49.4105L231.451 50.7675C227.65 54.7971 223.529 56.6762 218.473 56.6762C212.442 56.6762 205.712 52.7279 204.211 44.1204H238.631L238.717 42.4425L238.812 40.743V40.5811C238.812 26.647 230.111 16.916 217.65 16.916Z" fill="white"/>
<path d="M267.601 17.2425C261.203 16.9917 255.133 19.9083 250.872 24.9596V17.8937H242.989V63.2668H250.872V44.3259C250.872 31.2966 259.03 25.463 267.112 25.463H269.45V17.3155L267.601 17.2425Z" fill="white"/>
</g>
<defs>
<clipPath id="clip0_349_2029">
<rect width="283" height="84" fill="white" transform="translate(0.5 0.620972)"/>
</clipPath>
</defs>
</svg>
