<svg width="192" height="76" viewBox="0 0 192 76" fill="none" xmlns="http://www.w3.org/2000/svg">
<path d="M31.2499 1.16521C23.5416 2.39252 17.0323 5.7605 11.2083 11.6402C3.9853 18.9185 0.216797 28.052 0.216797 38.3272C0.216797 47.9459 2.95753 55.6237 8.92433 62.7593C16.29 71.5788 25.5115 75.9458 36.7313 75.9458C42.4983 75.9458 47.7514 74.6329 53.4327 71.8072C55.1171 70.9509 56.6302 70.2944 56.7444 70.3801C56.8871 70.4657 57.2583 71.3505 57.6009 72.378L58.2004 74.2047L60.7698 72.9489L63.3107 71.6645V55.5952L61.7119 55.7665C59.0854 56.0233 57.7436 56.9081 55.6881 59.6767C52.0908 64.5289 50.3208 66.1558 46.6379 68.0111C43.1835 69.7521 38.1873 70.4086 34.4188 69.638C27.3101 68.1538 21.3147 60.847 18.2314 49.8582C14.263 35.7869 16.5184 19.7747 23.5416 12.0112C26.425 8.84306 29.9366 7.21616 34.5045 6.95928C39.9859 6.64531 44.4396 8.38639 48.8362 12.5821C51.2915 14.894 54.3462 18.8614 56.0306 21.8583C57.6865 24.8267 58.9712 25.7115 61.5978 25.7115H63.3107V5.16112L60.7127 3.84818C57.7436 2.36398 57.7436 2.36398 57.4581 4.98986C57.3439 5.9603 57.2012 6.81657 57.1441 6.93073C57.0584 7.0449 54.9458 6.10301 52.3763 4.87569C46.0384 1.82168 43.2691 1.10812 37.3309 0.993954C34.9042 0.965412 32.1634 1.0225 31.2499 1.16521Z" fill="white"/>
<path d="M88.7204 1.27938C83.4102 2.42106 79.4419 4.64736 75.6734 8.70035C68.0222 16.892 69.05 29.7645 77.9573 36.7288C79.0993 37.6136 83.553 40.3251 87.8639 42.7512C98.313 48.6594 100.083 50.0865 101.939 53.9683C102.71 55.5666 102.852 56.1375 102.852 58.1069C102.852 61.4463 102.196 63.1018 100.026 65.2425C94.2019 71.008 84.7235 71.1792 79.4419 65.642C77.5005 63.6155 76.3586 61.2465 75.6734 57.7929C75.4164 56.3944 75.1595 55.2241 75.131 55.1671C75.131 55.1385 73.8748 55.7664 72.3617 56.5656L69.5924 58.0213V74.2332H75.5877V72.6634C75.5877 71.8072 75.6448 71.0936 75.7019 71.0936C75.7876 71.0936 77.1009 71.7501 78.614 72.5207C82.7822 74.6614 86.2366 75.6889 89.8624 75.8602C101.967 76.4595 112.531 70.1517 115.757 60.3903C116.413 58.4209 116.499 57.6217 116.527 54.3964C116.527 51.0855 116.47 50.4576 115.785 48.6023C113.929 43.4362 110.96 40.268 104.251 36.3007C90.0051 27.8522 89.1201 27.3099 87.2073 25.4546C84.2382 22.6004 83.1533 19.8033 83.6386 16.2926C84.2667 11.6687 88.5491 7.84408 93.9735 7.07344C96.4858 6.7024 99.0553 7.21615 101.425 8.58618C105.336 10.8125 107.049 13.9521 107.706 20.0601L107.877 21.687L110.589 20.3456L113.273 19.0041V2.59232H107.848V3.87672C107.848 4.59027 107.734 5.16112 107.591 5.16112C107.477 5.16112 106.507 4.59027 105.45 3.90526C104.423 3.22025 102.51 2.3069 101.196 1.87876C99.1409 1.16521 98.3415 1.07958 94.7158 0.993954C91.975 0.93687 89.948 1.0225 88.7204 1.27938Z" fill="white"/>
<path d="M119.839 7.35853L121.495 7.55832C123.265 7.75812 125.892 8.84272 126.919 9.81316C128.461 11.2403 128.404 9.95587 128.404 38.2983C128.404 64.1004 128.404 64.6142 127.833 65.5275C126.834 67.1544 124.236 68.4959 121.209 68.9526L119.839 69.1524V74.8038H150.101V69.1809L148.645 68.9811C145.219 68.5245 142.107 66.6121 141.537 64.5857C141.337 63.9006 141.251 59.7049 141.308 52.3981L141.394 41.2667L149.53 41.2952C158.352 41.2952 160.036 41.5235 162.948 42.9792C164.89 43.9496 166.089 45.0913 167.631 47.3462C169.857 50.6 170.171 51.8558 170.314 58.078C170.4 61.5887 170.314 63.8436 170.114 64.5286C169.515 66.5836 166.574 68.4388 163.148 68.9526L161.807 69.1524V74.8038H191.783V69.1524L190.441 68.9526C187.387 68.4959 184.589 66.9261 183.647 65.0994C183.361 64.5571 183.19 62.5592 183.076 58.2207C182.876 51.5133 182.562 49.7722 181.134 46.8609C179.935 44.3778 176.909 41.3238 173.997 39.6112L171.77 38.3268L173.34 37.6133C177.252 35.8151 181.334 32.019 182.933 28.7366C185.188 23.9986 185.16 18.4044 182.904 13.7234C181.705 11.2688 178.165 7.75812 175.168 6.07413C172.541 4.58993 168.516 3.10574 164.747 2.27801C162.035 1.65009 161.378 1.62154 140.908 1.53592L119.839 1.42175V7.35853ZM159.665 7.87229C162.063 8.50022 163.891 9.58482 165.918 11.6113C168.744 14.4655 170.086 17.5766 170.086 21.2871C170.086 27.2239 165.975 32.8467 160.35 34.5878C158.809 35.073 157.638 35.1301 149.93 35.1301H141.251V23.6561C141.251 12.6674 141.28 12.1536 141.851 10.9834C142.479 9.6419 143.849 8.47167 145.476 7.87229C147.047 7.30144 157.41 7.30144 159.665 7.87229Z" fill="white"/>
<path d="M37.6734 27.2814C35.6179 31.3915 34.9041 32.5903 34.4188 32.7044C33.648 32.8757 23.9983 34.2743 23.5415 34.2743C23.3417 34.2743 25.1117 36.1866 27.4813 38.5556L31.7352 42.8084L30.793 48.4027C30.2791 51.4852 29.908 54.054 29.9651 54.1396C30.0508 54.1967 32.3061 53.1121 34.9898 51.685C37.6449 50.2864 40.043 49.1162 40.2714 49.1162C40.4998 49.1162 42.8979 50.2864 45.6101 51.7136C48.2937 53.1407 50.5777 54.2253 50.6633 54.1682C50.749 54.0826 50.4064 51.7135 49.9211 48.9164C49.4357 46.1193 49.036 43.5219 49.036 43.1509C49.036 42.6371 50.1494 41.4098 53.2328 38.4414C55.6024 36.158 57.2297 34.3884 57.0013 34.3313C56.7729 34.3028 54.1749 33.9032 51.1772 33.4751L45.7529 32.7044L43.0407 27.3385L40.3285 22.0011L37.6734 27.2814Z" fill="white"/>
</svg>
