<svg width="286" height="87" viewBox="0 0 286 87" fill="none" xmlns="http://www.w3.org/2000/svg">
<path d="M34.4469 0.388157C34.192 0.643266 34.0007 8.29653 34.0007 17.3529V33.8074H0.217285V67.6094H49.2989L49.1714 33.935L48.9802 0.324379L41.9048 0.133048C38.0802 0.0692704 34.7019 0.196825 34.4469 0.388157ZM28.2639 52.3028H11.6909V49.114H28.2639V52.3028Z" fill="white"/>
<path d="M239.888 33.8074H230.327V49.114H239.888V67.6094H256.461V49.114H266.023V33.8074H256.461V0.00549316H239.888V33.8074Z" fill="white"/>
<path d="M51.8483 31.8943H68.4213V28.0676H51.8483V31.8943Z" fill="white"/>
<path d="M268.572 31.8943H285.783V28.0676H268.572V31.8943Z" fill="white"/>
<path d="M51.8483 67.6094H68.4213V33.8074H51.8483V67.6094Z" fill="white"/>
<path d="M70.971 67.6095H104.117V71.4361H70.971V86.7427H119.415V33.8075H70.971V67.6095ZM98.8901 50.7723L98.6989 52.3667H82.1259L81.9347 50.7723L81.7434 49.1141H99.0814L98.8901 50.7723Z" fill="white"/>
<path d="M121.965 67.6094H155.812L155.43 56.4483L138.538 56.0657V53.0044L155.43 52.6217L155.812 33.8074H121.965V67.6094ZM146.825 49.1777L130.57 48.7951L130.379 47.0093L130.188 45.2873H146.825V49.1777Z" fill="white"/>
<path d="M158.042 34.3176C157.851 34.6365 157.788 42.1622 157.851 51.0911L157.979 67.2905L174.87 67.6731V49.114H191.443V33.8074H174.934C165.819 33.8074 158.234 34.0625 158.042 34.3176Z" fill="white"/>
<path d="M193.994 45.2873H210.439L210.694 46.8818C210.885 47.7109 210.885 48.6038 210.694 48.7951C210.503 48.9864 206.678 49.114 202.153 49.114H193.994V67.6094H227.777V33.8074H193.994V45.2873ZM219.491 56.1295H202.28V52.9406H219.491V56.1295Z" fill="white"/>
<path d="M268.572 67.6094H285.783V33.8074H268.572V67.6094Z" fill="white"/>
<path d="M121.965 86.934L129.359 86.5513C134.459 86.2962 137.136 85.9135 138.22 85.212C139.813 84.1278 141.407 79.8547 140.833 77.9414C140.705 77.3674 140.387 76.0281 140.196 75.0714C139.558 72.329 136.69 71.4361 128.658 71.4361H121.965V86.934ZM136.244 76.0281C137.518 77.8138 137.518 80.3649 136.435 81.8956C135.734 82.8522 134.459 83.1711 130.698 83.4262L125.79 83.7451V74.625H130.507C134.714 74.625 135.415 74.8163 136.244 76.0281Z" fill="white"/>
<path d="M151.924 86.7427H168.497V83.5538H155.749V81.9594C155.749 80.3649 155.813 80.3649 161.486 80.3649C167.159 80.3649 167.222 80.3649 167.222 78.7705C167.222 77.1761 167.159 77.1761 161.486 77.1761H155.749V73.8597L161.804 74.1148C167.796 74.3699 167.86 74.3699 167.86 72.903C167.86 71.4361 167.796 71.4361 159.892 71.4361H151.924V86.7427Z" fill="white"/>
<path d="M179.651 86.4238H181.245C182.838 86.4238 182.838 86.2962 183.157 80.4925L183.476 74.5612L187.81 80.62L192.145 86.7427H197.818V71.4361H196.224C194.695 71.4361 194.695 71.4999 194.503 77.6225L194.312 83.8727L189.978 77.6225L185.643 71.4361H179.269L179.651 86.4238Z" fill="white"/>
<path d="M208.654 71.6912C208.654 71.755 210.248 75.199 212.16 79.3445L215.73 86.7427H221.403L229.052 71.4361H227.076C225.227 71.4361 224.972 71.755 222.295 77.5587C220.702 80.8751 219.108 83.5538 218.726 83.4262C217.77 83.1074 217.451 82.4696 214.71 76.347C212.67 71.8188 212.351 71.4361 210.567 71.4361C209.547 71.4361 208.654 71.5637 208.654 71.6912Z" fill="white"/>
<path d="M239.57 86.4238L255.824 86.8064V83.5538H243.076V81.9594C243.076 80.3649 243.14 80.3649 248.813 80.3649C254.486 80.3649 254.549 80.3649 254.549 78.7705C254.549 77.1761 254.486 77.1761 248.749 77.1761C243.14 77.1761 243.012 77.1123 243.203 75.7092C243.394 74.3699 243.649 74.3061 249.45 74.3061C255.251 74.3061 255.506 74.2423 255.697 72.8392C255.888 71.4361 255.824 71.4361 247.538 71.4361H239.187L239.57 86.4238Z" fill="white"/>
<path d="M267.298 86.7427H268.892C270.358 86.7427 270.485 86.4875 270.485 84.1916V81.6405H274.31C278.071 81.6405 278.135 81.7043 279.792 84.1916C281.13 86.1687 281.895 86.7427 283.298 86.7427C285.529 86.7427 285.592 86.4238 283.553 83.4262L282.023 81.1303L283.553 80.1098C284.827 79.2807 285.146 78.5154 285.146 76.2194C285.146 72.0101 283.999 71.4361 274.82 71.4361H267.298V86.7427ZM281.513 75.3903C281.64 75.8368 281.513 76.7296 281.194 77.3036C280.748 78.2603 279.728 78.4516 275.585 78.4516H270.485V74.625H275.84C279.537 74.625 281.322 74.8801 281.513 75.3903Z" fill="white"/>
</svg>
