<svg width="188" height="65" viewBox="0 0 188 65" fill="none" xmlns="http://www.w3.org/2000/svg">
<g clip-path="url(#clip0_349_1990)">
<path d="M124.511 15.9718H106.718V64.0123H83.6196V15.9718H65.7906V0.556613H124.511V15.9718ZM185.674 15.7224V0.520996H133.312V48.7611C133.312 57.0884 140.062 63.8342 148.378 63.8342H158.183H185.944V48.5615H159.066C157.122 48.5615 155.541 46.9802 155.541 45.0354V38.7668H184.463V24.6979H155.541V15.7224H185.674ZM39.8943 63.9625H0.790039V0.620725H39.7662C50.0691 0.620725 58.4141 8.97653 58.4141 19.2771V45.4344C58.4141 55.6636 50.1261 63.9625 39.8943 63.9625ZM37.0605 43.9384V20.3741C37.0605 17.6885 34.8817 15.5159 32.2044 15.5159H23.653V48.7966H32.2044C34.8817 48.7966 37.0605 46.624 37.0605 43.9384Z" fill="white"/>
</g>
<defs>
<clipPath id="clip0_349_1990">
<rect width="186.421" height="63.4913" fill="white" transform="translate(0.789551 0.521484)"/>
</clipPath>
</defs>
</svg>
