<svg width="356" height="107" viewBox="0 0 356 107" fill="none" xmlns="http://www.w3.org/2000/svg">
<path d="M41.1626 2.37612C33.0328 4.6867 26.7857 8.19535 21.0521 13.8434C18.1425 16.5819 17.1155 17.8655 18.6559 16.5819C24.3896 12.1319 35.9424 7.59631 41.9328 7.51074H44.1578L44.4146 21.1175C44.5857 32.7559 44.4146 34.8098 43.2165 36.0934C42.4463 36.8636 41.4194 37.4626 40.8203 37.4626C38.3386 37.4626 33.204 42.2549 31.1501 46.5338L28.9251 51.1549L15.2328 51.3261C3.67996 51.5828 1.36939 51.8396 0.599195 52.9521C0.085734 53.7222 0.000157192 55.0059 0.256888 55.7761C0.770349 56.9742 2.65304 57.1453 14.8905 57.1453H29.0107L31.3213 61.852C33.3751 66.302 38.1674 70.8376 40.8203 70.8376C41.3338 70.8376 42.4463 71.4367 43.2165 72.2068C44.329 73.4049 44.5857 75.6299 44.4146 86.1559C44.329 93.002 44.0722 99.2491 43.7299 100.019C43.3021 101.217 42.6174 101.303 37.3117 100.19C34.1453 99.5059 29.5242 98.0511 27.0424 96.9386C23.1059 95.0559 22.8492 94.9703 24.8174 96.5963C27.8982 99.1636 35.6857 102.929 41.5905 104.726C48.4367 106.865 62.728 106.865 69.7453 104.726C80.1857 101.645 90.4549 94.7991 96.5309 86.8405C100.211 82.1338 104.746 73.5761 105.688 69.7251L106.287 67.4145H92.5943L89.1713 74.5174C84.978 83.1607 80.4424 88.3809 72.9117 93.3443C66.4078 97.6232 61.4444 99.677 55.0261 100.704L50.4905 101.389V72.0357L53.4857 70.9232C58.0213 69.2972 61.1876 66.2165 63.2415 61.4242L65.1242 57.1453H108.768L108.169 51.3261C106.8 36.0078 102.265 25.9098 92.4232 15.9828C85.577 9.05112 77.5328 4.34439 68.4617 1.94824C61.8722 0.151125 48.0088 0.407856 41.1626 2.37612ZM59.5617 8.70881C66.579 10.5915 74.452 15.2127 80.1001 20.8607C86.8607 27.6213 92.3376 38.1473 93.0222 45.8492L93.5357 51.1549H65.1242L63.2415 46.7905C61.3588 42.5117 56.053 37.4626 53.4001 37.4626C52.8011 37.4626 51.6886 36.8636 50.9184 36.0934C49.8059 34.9809 49.6347 32.4992 49.7203 21.1175L49.8059 7.51074H52.4588C53.9992 7.51074 57.1655 8.0242 59.5617 8.70881ZM53.0578 42.854C62.0434 47.5607 62.2145 60.3972 53.4001 65.4463C49.1213 67.928 45.8694 67.928 41.0771 65.4463C33.0328 61.3386 31.8348 50.9838 38.6809 44.5655C42.9597 40.5434 47.6665 39.9444 53.0578 42.854Z" fill="white"/>
<path d="M234.566 16.154C232.598 21.2031 230.116 27.279 227.292 33.7829C224.468 40.5434 224.383 40.8857 226.009 40.8857C227.292 40.8857 228.148 39.8588 229.09 37.4627L230.459 34.0396H240.471L241.84 37.4627C242.867 40.1155 243.723 40.8857 245.264 40.8857H247.232L244.237 33.7829C242.525 29.9319 240.215 24.2838 239.016 21.2031C236.278 14.2713 235.593 13.5011 234.566 16.154ZM238.674 29.504C238.76 30.2742 237.562 30.6165 235.337 30.6165C231.571 30.6165 231.657 31.13 234.566 23.9415L235.508 21.6309L237.048 25.054C237.904 26.9367 238.674 28.9905 238.674 29.504Z" fill="white"/>
<path d="M254.163 27.7069C254.163 39.9444 254.249 40.9713 255.704 40.7146C256.988 40.4578 257.159 39.3453 257.244 32.0713C257.244 27.5357 257.501 23.5992 257.758 23.3425C258.014 23.0857 262.037 26.9367 266.572 31.9002C271.193 36.8636 275.301 40.8857 275.729 40.8857C276.071 40.8857 276.413 35.0665 276.413 28.0492C276.413 15.8117 276.328 15.2127 274.702 15.2127C273.076 15.2127 272.99 15.8117 272.99 24.3694L272.905 33.6117L254.163 14.3569V27.7069Z" fill="white"/>
<path d="M131.789 40.8857H140.346C148.305 40.8857 148.904 40.8002 148.904 39.1742C148.904 37.6338 148.305 37.4627 141.972 37.4627H135.126L135.383 33.355L135.639 29.3329L141.459 29.0761C145.823 28.905 147.192 28.5627 147.192 27.6213C147.192 26.5944 145.909 26.3377 141.202 26.3377H135.212V17.78H142.058C147.535 17.78 148.904 17.5232 148.904 16.4963C148.904 15.4694 147.364 15.2127 140.346 15.2127H131.789V40.8857Z" fill="white"/>
<path d="M157.462 28.0492C157.462 38.9175 157.633 40.8857 158.745 40.8857C159.772 40.8857 160.029 39.4309 160.029 33.1838C160.029 28.905 160.286 25.4819 160.714 25.4819C161.056 25.4819 163.024 28.0492 165.164 31.13C167.217 34.2107 169.186 36.8636 169.528 37.1203C169.87 37.2915 171.753 34.9809 173.721 31.9002C179.455 23.0857 179.712 23.0857 179.712 32.6704C179.712 39.4309 179.968 40.8857 180.995 40.8857C182.108 40.8857 182.279 38.8319 182.279 27.878C182.279 20.6896 181.937 15.2127 181.594 15.7261C181.166 16.154 178.428 19.8338 175.518 23.9415C172.609 28.1348 169.956 31.4723 169.614 31.4723C169.271 31.4723 166.533 27.7925 163.538 23.3425C160.457 18.8925 157.889 15.2127 157.718 15.2127C157.547 15.2127 157.462 20.9463 157.462 28.0492Z" fill="white"/>
<path d="M191.692 28.0492C191.692 40.2867 191.778 40.8857 193.404 40.8857C195.03 40.8857 195.115 40.2867 195.115 33.0982C195.115 28.1348 195.458 25.5675 195.971 25.9098C196.485 26.1665 198.367 28.7338 200.25 31.5579C202.218 34.2963 204.101 36.6069 204.529 36.6069C204.957 36.6069 207.182 33.8684 209.578 30.4454L213.942 24.2838V32.5848C213.942 40.2867 214.028 40.8857 215.654 40.8857C217.28 40.8857 217.365 40.2867 217.365 28.0492C217.365 20.9463 217.194 15.2127 216.938 15.2127C216.766 15.2127 214.028 18.8925 210.947 23.3425C207.781 27.7925 204.957 31.4723 204.614 31.4723C204.272 31.4723 201.534 27.7925 198.453 23.3425C195.458 18.8925 192.719 15.2127 192.377 15.2127C191.949 15.2127 191.692 20.9463 191.692 28.0492Z" fill="white"/>
<path d="M284.971 24.1982C284.971 36.6069 287.453 40.8857 294.385 40.8857C302.087 40.8002 304.654 36.6069 304.654 23.9415C304.654 15.8117 304.568 15.2127 302.942 15.2127C301.316 15.2127 301.231 15.8117 301.231 24.1127C301.231 31.729 300.974 33.2694 299.434 35.2377C298.15 36.8636 296.866 37.4627 294.812 37.4627C292.759 37.4627 291.475 36.8636 290.191 35.2377C288.651 33.2694 288.394 31.729 288.394 24.1127C288.394 15.8117 288.309 15.2127 286.683 15.2127C285.057 15.2127 284.971 15.8117 284.971 24.1982Z" fill="white"/>
<path d="M313.554 16.4107C313.297 17.0097 313.212 22.7434 313.383 28.9905L313.639 40.4578L322.026 40.7145C329.899 40.9712 330.327 40.8857 330.327 39.1741C330.327 37.6337 329.813 37.4626 323.395 37.4626H316.549L316.806 33.3549L317.062 29.3328L322.882 29.076C327.075 28.9049 328.615 28.477 328.615 27.6212C328.615 26.7655 327.075 26.3376 322.882 26.1664L317.062 25.9097V18.2078L323.737 17.9511C328.787 17.7799 330.327 17.4376 330.327 16.4962C330.327 14.6991 314.238 14.6136 313.554 16.4107Z" fill="white"/>
<path d="M338.885 28.0492V40.8857H347.014C354.545 40.8857 355.144 40.8002 355.144 39.1742C355.144 37.6338 354.545 37.4627 348.726 37.4627C344.19 37.4627 342.308 37.1204 342.308 36.3502C342.222 35.8367 342.222 30.7877 342.137 25.2252C342.137 16.0684 341.965 15.2127 340.511 15.2127C338.97 15.2127 338.885 16.0684 338.885 28.0492Z" fill="white"/>
<path d="M138.293 59.028C135.041 67.0722 131.703 76.9991 132.131 77.427C132.816 78.1116 132.987 77.8549 134.442 73.8328C135.725 70.4097 135.725 70.4097 140.346 70.4097H145.053L146.337 74.0039C147.364 77.1703 148.904 78.9674 148.904 76.9991C148.904 75.202 141.288 56.7174 140.432 56.4607C139.918 56.2895 138.977 57.402 138.293 59.028ZM142.058 62.7934C144.54 68.4414 144.368 69.1261 140.346 69.1261C138.121 69.1261 136.923 68.7838 136.923 68.0136C136.923 66.5588 139.491 58.8568 140.004 58.8568C140.261 58.8568 141.202 60.654 142.058 62.7934Z" fill="white"/>
<path d="M156.606 67.0723C156.606 74.004 156.948 77.5982 157.462 77.2559C157.975 76.9992 158.317 74.603 158.317 71.9501V67.1578L162.682 67.5857C167.731 68.0992 168.587 69.0405 168.587 74.004C168.587 76.0578 169.014 77.6838 169.442 77.6838C170.983 77.6838 170.469 70.153 168.843 68.4415C167.389 67.0723 167.389 66.9011 168.843 65.5319C169.614 64.6761 170.298 62.879 170.298 61.5098C170.298 57.9155 167.56 56.2896 161.569 56.2896H156.606V67.0723ZM167.56 59.028C168.159 59.6271 168.587 60.8251 168.587 61.8521C168.587 64.6761 166.875 65.703 162.425 65.703H158.317V58.0011H162.425C164.65 58.0011 166.961 58.429 167.56 59.028Z" fill="white"/>
<path d="M176.289 57.1453C176.289 57.5732 177.829 58.0011 179.712 58.0011H183.135V67.8424C183.135 73.8328 183.477 77.6838 183.99 77.6838C184.504 77.6838 184.846 73.8328 184.846 67.8424V58.0011H188.184C190.066 58.0011 191.864 57.5732 192.12 57.1453C192.463 56.6319 189.724 56.2896 184.504 56.2896C179.626 56.2896 176.289 56.6319 176.289 57.1453Z" fill="white"/>
<path d="M212.488 57.5732C211.461 58.2578 210.006 60.5684 209.236 62.7078C206.412 70.0674 210.519 77.6838 217.28 77.6838C218.991 77.6838 221.216 77.0848 222.243 76.4001C223.955 75.2021 224.212 75.2021 224.982 76.5713C225.666 77.7694 225.838 76.7424 225.923 72.2924V66.5588L221.473 66.6444C218.392 66.6444 217.451 66.9011 218.649 67.329C219.505 67.6713 221.216 67.928 222.243 67.7569C223.955 67.5857 224.212 67.928 224.212 70.3242C224.212 73.9184 221.644 76.3146 217.793 76.3146C214.199 76.3146 211.632 74.0896 210.519 70.0675C209.407 65.9598 210.776 61.1675 213.686 58.8569C217.109 56.204 220.96 56.8886 224.383 60.9107C225.666 62.4511 225.838 62.4511 225.923 61.253C226.009 57.2309 216.681 54.6636 212.488 57.5732Z" fill="white"/>
<path d="M237.048 66.5588C233.368 76.9136 232.769 81.278 236.107 73.9184C237.818 69.9819 237.818 69.9819 242.097 69.9819C246.29 69.9819 246.29 69.9819 247.831 73.8328C248.601 75.9723 249.628 77.6838 250.056 77.6838C250.569 77.6838 250.655 76.9992 250.398 76.1434C245.777 63.6492 242.611 56.2896 241.755 56.2896C241.156 56.2896 239.016 60.9107 237.048 66.5588ZM244.065 63.7348C244.836 65.8742 245.349 68.0136 245.092 68.4415C244.579 69.2973 239.016 69.3828 238.503 68.4415C237.989 67.5857 241.413 58.6857 242.097 59.2848C242.354 59.5415 243.21 61.5953 244.065 63.7348Z" fill="white"/>
<path d="M258.442 57.4876C258.186 58.3434 258.1 63.2213 258.271 68.3559L258.528 77.6838H264.518C267.856 77.6838 270.423 77.3415 270.423 76.828C270.423 76.3146 268.027 75.9723 264.861 75.9723H259.384L259.127 65.8742C258.956 60.3973 258.699 56.5463 258.442 57.4876Z" fill="white"/>
<path d="M277.44 66.9867V77.6838H284.201C288.138 77.6838 290.962 77.3415 290.962 76.828C290.962 76.3146 288.394 75.9723 284.971 75.9723H278.981V66.1309C278.981 60.7396 278.639 56.2896 278.211 56.2896C277.783 56.2896 277.44 61.0819 277.44 66.9867Z" fill="white"/>
<path d="M296.952 77.6838H303.798C307.82 77.6838 310.644 77.3415 310.644 76.828C310.644 76.3146 308.077 75.9723 304.654 75.9723H298.663V67.4146H304.226C307.392 67.4146 309.788 67.0723 309.788 66.5588C309.788 66.0453 307.392 65.703 304.226 65.703H298.663V58.0011H304.14C307.221 58.0011 309.96 57.5732 310.216 57.1453C310.559 56.6319 308.248 56.2896 303.884 56.2896H296.952V77.6838Z" fill="white"/>
<path d="M318.346 66.9867C318.346 73.5761 318.688 77.6838 319.202 77.6838C319.715 77.6838 320.058 75.3732 320.058 72.4636V67.1578L324.422 67.5857C329.471 68.0992 330.327 69.0405 330.327 74.004C330.327 76.0578 330.755 77.6838 331.183 77.6838C332.723 77.6838 332.124 70.0674 330.412 68.3559C328.872 66.8155 328.872 66.8155 330.412 65.7886C331.525 65.1896 332.038 63.8203 332.038 61.8521C332.038 57.83 329.557 56.2896 323.31 56.2896H318.346V66.9867ZM329.3 59.028C330.669 60.3973 330.584 63.5636 329.3 64.6761C328.701 65.104 326.39 65.7886 324.165 66.0453L320.058 66.6444V58.0011H324.165C326.39 58.0011 328.701 58.429 329.3 59.028Z" fill="white"/>
<path d="M340.339 60.3117C341.623 62.6223 343.335 65.5319 344.19 66.9867C345.046 68.5271 345.731 71.2655 345.731 73.5761C345.731 75.8867 346.159 77.6838 346.587 77.6838C347.1 77.6838 347.442 75.8011 347.442 73.4049C347.442 69.8963 348.127 68.0992 350.951 63.3925C352.919 60.1405 354.631 57.3165 354.887 56.8886C355.059 56.5463 354.887 56.2896 354.374 56.2896C353.861 56.2896 352.063 58.7713 350.266 61.8521C348.469 64.8473 346.843 67.4146 346.587 67.4146C346.33 67.4146 344.704 64.8473 342.907 61.8521C341.11 58.7713 339.312 56.2896 338.799 56.2896C338.371 56.2896 339.056 58.0867 340.339 60.3117Z" fill="white"/>
</svg>
