<svg width="240" height="112" viewBox="0 0 240 112" fill="none" xmlns="http://www.w3.org/2000/svg">
<path d="M6.49067 7.47879V61.3862C6.49002 62.067 6.82544 62.3418 7.41917 62.3043H16.7917C17.7072 62.3479 17.8312 61.8786 17.799 61.3082V40.1143C17.751 39.2567 18.2087 39.2628 18.6618 39.2611H42.7195C43.261 39.2568 43.6574 39.4425 43.6414 40.1727V61.213C43.6376 62.0449 44.1029 62.2973 44.7571 62.3162H53.7913C54.4417 62.3373 54.882 62.093 54.8572 61.2622V7.51343C54.9102 6.57506 54.4078 6.33576 53.6936 6.36285H44.5765C43.7831 6.36843 43.508 6.76334 43.5392 7.38852V28.0578C43.589 28.8893 43.161 28.9702 42.6563 28.9308H18.5085C17.9154 28.9652 17.7183 28.6698 17.7518 28.1825V7.27092C17.6928 6.52692 17.2757 6.44692 16.8513 6.38052H7.43668C6.82318 6.42075 6.47686 6.75297 6.49067 7.47879ZM106.418 26.2217L114.196 22.0296C114.756 21.7514 114.777 21.362 114.546 20.921C105.472 0.978352 77.6544 2.03846 67.339 14.8771C56.9183 28.4645 59.369 43.9952 67.339 53.8336C79.4877 67.6809 104.601 67.5128 114.61 47.8142C114.928 47.2357 114.837 46.6984 114.362 46.3811L106.236 42.6084C105.571 42.2484 105.091 42.3932 104.799 43.0494C98.6206 53.8285 87.6294 54.7952 79.3303 49.7617C70.3194 43.6998 68.418 27.0009 79.3303 18.9927C86.8853 14.0163 98.5357 14.6991 104.973 25.7786C105.285 26.406 105.779 26.5178 106.418 26.2217ZM116.123 62.287H125.899C126.438 62.2985 126.736 61.8679 126.95 61.2823L131.16 50.0067C131.374 49.4216 131.806 49.2051 132.349 49.1738H139.782C145.226 49.1439 148.36 46.068 149.048 39.7667C149.105 39.1798 148.79 39.0344 148.354 39.0318H136.313C135.619 39.0893 135.424 38.7903 135.57 38.2479L143.003 18.7478C143.139 18.2257 143.854 18.1958 144.043 18.7478L160.246 61.5941C160.498 62.1095 160.878 62.3361 161.361 62.329H171.247C172.17 62.2227 172.202 61.6391 171.965 60.7988L150.915 7.30557C150.655 6.57763 150.229 6.31341 149.689 6.37015H137.671C137.169 6.38991 136.749 6.64032 136.48 7.30557L115.428 60.5652C115.024 61.551 115.173 62.1782 116.123 62.287Z" fill="white"/>
<path d="M202.822 6.24749V21.7454C202.629 28.377 197.648 31.2795 193.143 31.3163H177.45C177.02 31.2723 176.577 31.2513 176.687 30.2723C177.405 25.4384 180.575 23.9467 184.699 23.7559H191.131C193.381 23.7313 195.464 21.8614 195.36 19.5737V12.2389C195.485 8.44193 198.534 5.91823 201.834 5.42437C202.477 5.31952 202.767 5.64163 202.822 6.24749ZM177.507 36.5108H193.18C199.887 36.7018 202.823 41.6274 202.86 46.0817V61.5988C202.815 62.024 202.794 62.4624 201.804 62.3534C196.915 61.6436 195.407 58.5091 195.214 54.4308V48.0715C195.189 45.8459 193.298 43.7864 190.984 43.8893H183.566C179.726 43.7664 177.174 40.7515 176.674 37.4883C176.568 36.8522 176.894 36.5654 177.507 36.5108ZM207.988 61.6199V46.122C208.181 39.4904 213.162 36.5879 217.667 36.5511H233.36C233.79 36.5951 234.233 36.6161 234.123 37.5951C233.405 42.429 230.235 43.9206 226.111 44.1114H219.679C217.429 44.136 215.346 46.006 215.45 48.2936V55.6285C215.325 59.4255 212.276 61.9492 208.976 62.443C208.333 62.5479 208.043 62.2257 207.988 61.6199ZM233.141 31.2741H217.467C210.761 31.0832 207.825 26.1575 207.788 21.7033V6.18612C207.833 5.76089 207.854 5.32252 208.844 5.43158C213.733 6.14133 215.241 9.27586 215.434 13.3541V19.7135C215.459 21.939 217.35 23.9986 219.664 23.8957H227.082C230.922 24.0186 233.474 27.0334 233.973 30.2967C234.079 30.9328 233.754 31.2195 233.141 31.2741Z" fill="white"/>
<path d="M42.2767 105.95H27.6827V104.211C28.0792 104.178 28.649 104.129 29.3924 104.064C30.1522 103.998 30.6725 103.901 30.9534 103.77C31.4489 103.574 31.8123 103.28 32.0436 102.888C32.2748 102.48 32.3905 101.957 32.3905 101.32V88.9475H15.8638V101.05C15.8638 101.622 15.9547 102.104 16.1363 102.496C16.3346 102.888 16.7145 103.231 17.2761 103.525C17.5569 103.672 18.0525 103.819 18.7628 103.966C19.4896 104.113 20.0595 104.195 20.4724 104.211V105.951H5.87842V104.211C6.27486 104.178 6.84475 104.129 7.58808 104.064C8.34792 103.999 8.86825 103.901 9.14906 103.77C9.64461 103.574 10.008 103.28 10.2393 102.888C10.4705 102.48 10.5862 101.957 10.5862 101.32V76.2322C10.5862 75.7096 10.4788 75.2359 10.2641 74.8112C10.0493 74.3702 9.67767 74.0272 9.14908 73.7822C8.70308 73.5698 8.15797 73.382 7.51375 73.2188C6.88605 73.0553 6.34095 72.9573 5.87844 72.9248V71.1853H20.4724V72.9248C20.0099 72.9406 19.44 73.0141 18.7628 73.1452C18.1021 73.2758 17.6065 73.3983 17.2761 73.5127C16.7145 73.7086 16.3346 74.0353 16.1364 74.4927C15.9547 74.95 15.8638 75.4482 15.8638 75.9872V86.7671H32.3905V76.2322C32.3905 75.7095 32.2831 75.2358 32.0684 74.8111C31.8536 74.3701 31.482 74.0272 30.9534 73.7822C30.5074 73.5698 29.9623 73.382 29.318 73.2187C28.6904 73.0553 28.1452 72.9573 27.6827 72.9248V71.1853H42.2767V72.9248C41.8142 72.9406 41.2443 73.014 40.5671 73.1452C39.9063 73.2757 39.4108 73.3982 39.0804 73.5126C38.5188 73.7086 38.1389 74.0352 37.9407 74.4926C37.759 74.95 37.6681 75.4481 37.6681 75.9871V101.05C37.6681 101.622 37.759 102.104 37.9407 102.496C38.1389 102.888 38.5188 103.231 39.0804 103.525C39.3612 103.672 39.8568 103.819 40.5671 103.966C41.2939 104.113 41.8638 104.195 42.2767 104.211L42.2767 105.95Z" fill="white"/>
<path d="M63.0804 100.409C62.0541 102.34 60.6802 103.879 58.9588 105.025C57.2373 106.17 55.2593 106.743 53.0247 106.743C51.055 106.743 49.3253 106.399 47.8355 105.712C46.3624 105.025 45.1458 104.092 44.1857 102.913C43.2257 101.735 42.5056 100.36 42.0256 98.7888C41.5621 97.2176 41.3304 95.5563 41.3304 93.8051C41.3304 92.2338 41.5787 90.6954 42.0753 89.1896C42.5884 87.6675 43.3333 86.3008 44.3099 85.0897C45.2534 83.9277 46.4203 82.9947 47.8107 82.2909C49.2177 81.5708 50.7901 81.2107 52.5282 81.2107C54.3158 81.2107 55.8469 81.4889 57.1215 82.0454C58.396 82.6019 59.4305 83.363 60.2251 84.3286C60.9865 85.2452 61.5493 86.3254 61.9134 87.5693C62.2941 88.8132 62.4845 90.1635 62.4845 91.6201V93.2405H46.2713C46.2713 94.8281 46.4203 96.2683 46.7183 97.5613C47.0328 98.8543 47.5211 99.9918 48.1831 100.974C48.8287 101.923 49.6729 102.676 50.7157 103.232C51.7585 103.773 52.9999 104.043 54.44 104.043C55.9132 104.043 57.1794 103.707 58.2388 103.036C59.3147 102.349 60.3492 101.121 61.3424 99.3535L63.0804 100.409ZM57.5932 91.1782C57.5932 90.2616 57.5105 89.2796 57.3449 88.2321C57.1959 87.1847 56.9476 86.309 56.6 85.6053C56.2193 84.8524 55.6979 84.2386 55.0358 83.764C54.3737 83.2893 53.5213 83.052 52.4785 83.052C50.7405 83.052 49.2921 83.7721 48.1335 85.2124C46.9913 86.6363 46.3706 88.625 46.2713 91.1782H57.5932Z" fill="white"/>
<path d="M87.8113 105.488C87.0354 105.766 86.3502 105.987 85.7559 106.15C85.1781 106.329 84.5178 106.419 83.7749 106.419C82.4872 106.419 81.4553 106.125 80.6794 105.537C79.92 104.933 79.433 104.06 79.2184 102.917H79.0698C77.9967 104.093 76.8411 104.99 75.6029 105.611C74.3813 106.231 72.9037 106.541 71.1703 106.541C69.3378 106.541 67.8272 105.986 66.6386 104.876C65.4664 103.766 64.8804 102.313 64.8804 100.518C64.8804 99.5872 65.0125 98.7546 65.2766 98.0201C65.5407 97.2855 65.9369 96.6244 66.4652 96.0367C66.878 95.547 67.4227 95.1144 68.0996 94.7389C68.7765 94.3471 69.4121 94.037 70.0064 93.8085C70.7493 93.5311 72.2516 93.0169 74.5133 92.2659C76.7916 91.515 78.3269 90.9273 79.1193 90.5029V88.0788C79.1193 87.8666 79.0698 87.4585 78.9707 86.8546C78.8882 86.2506 78.6983 85.6792 78.4012 85.1405C78.071 84.5365 77.6005 84.0141 76.9896 83.5734C76.3953 83.1163 75.5451 82.8878 74.439 82.8878C73.6796 82.8878 72.9697 83.0184 72.3094 83.2796C71.6655 83.5245 71.2115 83.7856 70.9474 84.0632C70.9474 84.3896 71.0217 84.8712 71.1703 85.5079C71.3354 86.1445 71.4179 86.7322 71.4179 87.2709C71.4179 87.8422 71.1538 88.3645 70.6255 88.8379C70.1137 89.3113 69.3956 89.548 68.4711 89.548C67.6456 89.548 67.0348 89.2623 66.6386 88.691C66.2589 88.1034 66.069 87.4504 66.069 86.7322C66.069 85.9813 66.3332 85.263 66.8615 84.5774C67.4062 83.8918 68.1079 83.2796 68.9663 82.7409C69.7092 82.2838 70.609 81.9002 71.6655 81.5901C72.7221 81.2636 73.7539 81.1004 74.761 81.1004C76.1477 81.1004 77.3529 81.1983 78.3764 81.3942C79.4165 81.5736 80.3575 81.9736 81.1994 82.594C82.0414 83.198 82.677 84.0223 83.1062 85.0671C83.552 86.0955 83.7748 87.4259 83.7748 89.0583C83.7748 91.3926 83.7501 93.4657 83.7006 95.2776C83.651 97.0733 83.6263 99.0403 83.6263 101.179C83.6263 101.815 83.7336 102.321 83.9482 102.697C84.1793 103.072 84.526 103.391 84.9883 103.652C85.2359 103.799 85.6239 103.88 86.1521 103.897C86.6969 103.913 87.25 103.92 87.8113 103.92V105.488ZM79.1689 92.5599C77.7656 92.968 76.5357 93.368 75.4791 93.7597C74.4226 94.1515 73.4403 94.6412 72.5323 95.2289C71.7069 95.7839 71.0547 96.445 70.576 97.2122C70.0972 97.9631 69.8578 98.861 69.8578 99.9057C69.8578 101.261 70.2128 102.256 70.9227 102.893C71.6491 103.53 72.5653 103.848 73.6714 103.848C74.8435 103.848 75.8753 103.57 76.7668 103.015C77.6583 102.444 78.4095 101.775 79.0203 101.008L79.1689 92.5599Z" fill="white"/>
<path d="M123.399 74.2593V101.908C123.399 102.497 123.283 102.98 123.051 103.356C122.82 103.716 122.472 103.97 122.009 104.117C121.728 104.199 121.38 104.264 120.967 104.314C120.553 104.346 120.156 104.379 119.775 104.411V106.031H131.787V104.411C131.324 104.379 130.894 104.322 130.497 104.24C130.116 104.158 129.744 104.035 129.38 103.872C128.917 103.675 128.569 103.397 128.337 103.037C128.122 102.677 128.015 102.22 128.015 101.663V87.7492C128.18 87.471 128.412 87.1274 128.71 86.7185C129.008 86.3095 129.438 85.9005 130.001 85.4915C130.58 85.0989 131.233 84.7718 131.961 84.5101C132.706 84.2319 133.508 84.0932 134.369 84.0932C135.543 84.0932 136.536 84.559 137.346 85.4915C138.174 86.424 138.587 87.7495 138.587 89.4672V101.908C138.587 102.497 138.472 102.98 138.24 103.356C138.025 103.716 137.685 103.97 137.222 104.117C136.924 104.216 136.544 104.281 136.081 104.314C135.618 104.346 135.195 104.379 134.815 104.411V106.031H146.826V104.411C146.33 104.379 145.925 104.33 145.611 104.264C145.313 104.183 144.974 104.068 144.593 103.921C144.113 103.725 143.766 103.454 143.551 103.111C143.352 102.751 143.253 102.284 143.253 101.712V89.1239C143.253 86.5554 142.666 84.5916 141.491 83.2338C140.317 81.8596 138.637 81.1732 136.453 81.1732C135.394 81.1732 134.434 81.304 133.574 81.5658C132.73 81.8275 131.994 82.1546 131.366 82.5472C130.638 83.0053 130.05 83.4466 129.604 83.8719C129.157 84.2809 128.66 84.7553 128.114 85.2952H128.015V74.2593L123.399 74.2593ZM105.754 74.4002V81.9333H101.237V84.2895H105.654V100.681C105.654 102.546 106.068 103.995 106.895 105.025C107.739 106.039 109.187 106.546 111.239 106.546C112.629 106.546 113.803 106.391 114.763 106.08C115.723 105.786 116.74 105.418 117.815 104.976V103.184C117.484 103.299 116.913 103.397 116.103 103.479C115.309 103.545 114.704 103.577 114.291 103.577C113.397 103.577 112.686 103.455 112.157 103.209C111.628 102.964 111.23 102.604 110.965 102.129C110.684 101.622 110.502 101.034 110.419 100.363C110.353 99.6758 110.321 98.8247 110.321 97.8104V84.2895H117.294V81.9333H110.271V74.4002L105.754 74.4002Z" fill="white"/>
<path d="M158.594 106.822C154.99 106.822 152.169 105.64 150.131 103.275C148.094 100.91 147.075 97.7381 147.075 93.7581C147.075 92.0262 147.344 90.4109 147.883 88.9121C148.439 87.3967 149.239 86.0228 150.283 84.7905C151.277 83.6082 152.523 82.6589 154.022 81.9429C155.521 81.2101 157.154 80.8438 158.923 80.8438C161.365 80.8438 163.352 81.4266 164.885 82.5923C166.417 83.7414 167.183 85.3151 167.183 87.3134C167.183 88.146 166.981 88.8871 166.577 89.5365C166.173 90.1693 165.508 90.4858 164.581 90.4858C163.588 90.4858 162.813 90.236 162.257 89.7364C161.718 89.2368 161.449 88.6789 161.449 88.0628C161.449 87.3134 161.55 86.5474 161.752 85.7647C161.954 84.9653 162.072 84.3825 162.106 84.0161C161.803 83.4999 161.348 83.1585 160.742 82.992C160.152 82.8089 159.512 82.7174 158.822 82.7174C158.013 82.7174 157.239 82.8922 156.498 83.242C155.774 83.575 155.066 84.1995 154.376 85.1154C153.752 85.948 153.247 87.0721 152.86 88.4876C152.473 89.9031 152.279 91.5934 152.279 93.5584C152.279 96.6558 152.969 99.1871 154.35 101.152C155.748 103.101 157.576 104.075 159.832 104.075C161.466 104.075 162.83 103.683 163.925 102.901C165.036 102.118 166.064 100.944 167.007 99.3786L168.624 100.428C167.512 102.393 166.047 103.95 164.228 105.099C162.409 106.248 160.531 106.822 158.594 106.822ZM192.865 105.723C192.073 106.006 191.374 106.231 190.768 106.398C190.179 106.581 189.505 106.672 188.747 106.672C187.433 106.672 186.381 106.372 185.589 105.773C184.815 105.157 184.318 104.266 184.099 103.1H183.947C182.853 104.299 181.674 105.215 180.41 105.848C179.164 106.481 177.657 106.797 175.889 106.797C174.019 106.797 172.478 106.231 171.266 105.098C170.07 103.966 169.472 102.484 169.472 100.652C169.472 99.7029 169.607 98.8536 169.876 98.1042C170.146 97.3548 170.55 96.6804 171.089 96.0809C171.51 95.5813 172.066 95.1401 172.756 94.757C173.447 94.3574 174.095 94.0409 174.701 93.8078C175.459 93.5245 176.992 92.9999 179.299 92.2341C181.623 91.468 183.189 90.8685 183.998 90.4356V87.9627C183.998 87.7461 183.947 87.3298 183.846 86.7137C183.762 86.0976 183.569 85.5147 183.265 84.9652C182.928 84.349 182.448 83.8161 181.825 83.3665C181.219 82.9002 180.352 82.667 179.223 82.667C178.449 82.667 177.724 82.8003 177.051 83.0668C176.394 83.3165 175.931 83.583 175.661 83.8662C175.661 84.1992 175.737 84.6905 175.889 85.3399C176.057 85.9894 176.141 86.5889 176.141 87.1384C176.141 87.7213 175.872 88.2542 175.333 88.7371C174.811 89.2201 174.078 89.4615 173.135 89.4615C172.293 89.4615 171.67 89.1701 171.266 88.5873C170.878 87.9878 170.685 87.3216 170.685 86.5889C170.685 85.8228 170.954 85.0901 171.493 84.3907C172.049 83.6913 172.765 83.0668 173.64 82.5173C174.398 82.051 175.316 81.6597 176.394 81.3433C177.472 81.0102 178.524 80.8437 179.552 80.8437C180.967 80.8437 182.196 80.9436 183.24 81.1434C184.301 81.3264 185.261 81.7344 186.12 82.3673C186.979 82.9835 187.627 83.8244 188.065 84.8902C188.52 85.9393 188.747 87.2966 188.747 88.9619C188.747 91.3432 188.722 93.4581 188.672 95.3066C188.621 97.1384 188.596 99.1451 188.596 101.327C188.596 101.976 188.705 102.492 188.924 102.875C189.16 103.258 189.514 103.583 189.985 103.85C190.238 103.999 190.634 104.083 191.173 104.099C191.728 104.116 192.293 104.124 192.865 104.124L192.865 105.723ZM184.048 92.534C182.617 92.9504 181.362 93.3584 180.284 93.7581C179.206 94.1577 178.204 94.6573 177.278 95.2568C176.436 95.823 175.771 96.4974 175.282 97.2801C174.794 98.0461 174.55 98.9621 174.55 100.028C174.55 101.41 174.912 102.426 175.636 103.075C176.377 103.725 177.312 104.049 178.44 104.049C179.636 104.049 180.688 103.766 181.598 103.2C182.507 102.617 183.273 101.935 183.897 101.152L184.048 92.534Z" fill="white"/>
<path d="M213.036 85.0224C213.036 85.8554 212.829 86.5985 212.417 87.2518C212.004 87.8888 211.368 88.2073 210.509 88.2073C209.584 88.2073 208.873 87.9705 208.378 87.4968C207.899 87.0232 207.659 86.5005 207.659 85.9289C207.659 85.5695 207.684 85.2429 207.734 84.9489C207.8 84.655 207.858 84.361 207.907 84.0669C207.131 84.0669 206.222 84.3773 205.182 84.9979C204.141 85.6186 203.257 86.5005 202.531 87.6438V101.706C202.531 102.278 202.638 102.744 202.853 103.103C203.084 103.462 203.439 103.732 203.918 103.911C204.331 104.075 204.86 104.197 205.504 104.279C206.165 104.36 206.734 104.418 207.214 104.45V106.067H194.33V104.45C194.709 104.418 195.098 104.385 195.494 104.352C195.907 104.32 196.262 104.254 196.559 104.156C197.022 104.01 197.361 103.756 197.575 103.397C197.806 103.021 197.922 102.539 197.922 101.952V87.0314C197.922 86.5251 197.798 86.027 197.55 85.537C197.319 85.047 196.989 84.655 196.559 84.361C196.245 84.1651 195.874 84.0261 195.444 83.9443C195.015 83.8463 194.552 83.7811 194.057 83.7485V82.1561L202.184 81.6171L202.53 81.9603V85.3657H202.654C203.678 84.0427 204.818 83.0382 206.073 82.3523C207.329 81.6663 208.477 81.3233 209.517 81.3233C210.558 81.3233 211.4 81.6582 212.045 82.3278C212.705 82.9975 213.036 83.8955 213.036 85.0224ZM234.974 100.383C233.949 102.311 232.578 103.846 230.861 104.989C229.143 106.133 227.169 106.704 224.939 106.704C222.973 106.704 221.247 106.361 219.76 105.675C218.29 104.989 217.076 104.058 216.118 102.882C215.16 101.706 214.442 100.334 213.963 98.7665C213.5 97.1986 213.269 95.5408 213.269 93.7932C213.269 92.2252 213.517 90.6899 214.012 89.1873C214.524 87.6683 215.268 86.3046 216.242 85.0959C217.184 83.9363 218.348 83.0053 219.736 82.303C221.14 81.5844 222.709 81.225 224.443 81.225C226.227 81.225 227.755 81.5027 229.027 82.0581C230.299 82.6134 231.331 83.3729 232.124 84.3365C232.884 85.2511 233.446 86.329 233.809 87.5703C234.189 88.8116 234.379 90.1591 234.379 91.6127V93.2297H218.2C218.2 94.814 218.348 96.2512 218.645 97.5416C218.959 98.8319 219.447 99.967 220.107 100.947C220.751 101.894 221.594 102.646 222.635 103.201C223.675 103.74 224.914 104.009 226.351 104.009C227.821 104.009 229.085 103.675 230.142 103.005C231.216 102.319 232.248 101.094 233.239 99.33L234.974 100.383ZM229.498 91.1718C229.498 90.2571 229.415 89.2771 229.25 88.2318C229.101 87.1865 228.854 86.3127 228.507 85.6104C228.127 84.8591 227.606 84.2466 226.946 83.773C226.285 83.2993 225.434 83.0625 224.394 83.0625C222.659 83.0625 221.214 83.7811 220.058 85.2184C218.918 86.6393 218.299 88.6238 218.199 91.1718H229.498Z" fill="white"/>
<path d="M92.9542 75.9362V101.892C92.9542 102.475 92.8393 102.953 92.6101 103.325C92.3809 103.681 92.0368 103.932 91.5784 104.078C91.3001 104.159 90.9487 104.223 90.523 104.272C90.0974 104.304 89.6962 104.336 89.3197 104.369V105.972H101.131V104.369C100.689 104.336 100.288 104.28 99.9281 104.199C99.5843 104.118 99.2321 103.996 98.8719 103.834C98.3972 103.64 98.0531 103.365 97.8403 103.009C97.6275 102.637 97.5214 102.168 97.5214 101.601V75.9362L92.9542 75.9362Z" fill="white"/>
<path d="M127.677 70.7508L118.619 71.3155V72.8857C119.082 72.9184 119.686 72.9838 120.431 73.082C121.192 73.1639 121.721 73.3112 122.019 73.5239C122.432 73.802 122.764 74.2196 123.012 74.7758C123.277 75.3321 123.409 75.8877 123.409 76.4439V80.409H128.025V71.1192L127.677 70.7508ZM105.764 77.107V80.409H110.281V77.107H105.764Z" fill="white"/>
<path d="M97.1701 70.7411L88.0601 71.2997V72.8541C88.5349 72.8864 89.1651 72.9832 89.9509 73.1451C90.7367 73.3069 91.2773 73.4851 91.572 73.6794C91.9812 73.9707 92.3082 74.3755 92.5538 74.8934C92.8157 75.3952 92.947 75.9371 92.947 76.5198V99.9095H97.5142V71.1057L97.1701 70.7411Z" fill="white"/>
<path d="M200.426 33.0465C202.016 31.893 203.442 30.6472 204.387 29.1299C205.037 28.3126 205.687 28.3239 206.337 29.1299C207.331 30.5989 208.506 31.9267 210.145 32.8949C211.262 33.6893 211.051 34.3778 210.145 35.0109C208.68 36.0488 207.467 37.245 206.512 38.6031C205.783 39.4691 205.055 39.5472 204.326 38.6031C203.231 37.2277 202.094 35.879 200.498 34.8184C199.824 34.3546 199.473 33.8276 200.426 33.0465Z" fill="white"/>
</svg>
