<svg width="176" height="123" viewBox="0 0 176 123" fill="none" xmlns="http://www.w3.org/2000/svg">
<path d="M11.13 0.346561C8.03837 0.88437 5.30004 2.40816 3.35671 4.64904C0.0442159 8.50334 0.220882 4.91795 0.220882 61.2983C0.220882 118.754 -0.0441175 114.407 3.97504 118.485C8.2592 122.878 0.132545 122.474 88.1124 122.474C162.621 122.474 165.271 122.429 167.568 121.623C170.351 120.637 173.531 117.679 174.9 114.855C175.783 113.107 175.783 111.897 175.783 61.2983V9.53414L174.679 7.33809C173.354 4.64904 170.439 2.04962 167.701 0.929188C165.713 0.167291 162.047 0.122473 89.4374 0.077656C47.5233 0.0328385 12.3225 0.167291 11.13 0.346561ZM166.596 7.78626C167.524 8.50334 168.716 10.0271 169.291 11.1028L170.262 13.0747V61.2983C170.262 107.236 170.218 109.567 169.423 111.27C168.451 113.376 166.596 115.259 164.83 115.931C163.946 116.289 140.317 116.424 88.0241 116.424C12.8967 116.424 12.4109 116.424 10.5559 115.527C9.49587 114.99 8.17087 113.78 7.4642 112.749L6.18337 110.911L6.05087 62.4636C5.96254 28.8505 6.05087 13.5229 6.40421 12.3576C7.02254 10.1168 8.87753 8.01035 11.0417 7.02436C12.72 6.21765 15.8117 6.17283 88.8632 6.30728L164.874 6.39692L166.596 7.78626Z" fill="white"/>
<path d="M12.3671 9.71341C11.8813 9.9375 10.9979 10.6546 10.3796 11.3268L9.27543 12.5369V110.149L10.7329 111.584L12.1463 113.062L87.4945 113.197C155.511 113.287 162.975 113.242 164.3 112.569C167.348 111.091 167.215 114.183 167.083 60.6709L166.95 12.4473L165.493 11.0131L164.079 9.53414L88.6428 9.4445C47.1704 9.39969 12.8529 9.53414 12.3671 9.71341ZM55.6503 41.3545L49.6879 41.6234V56.3684H66.9128V41.5786H61.1712V17.8254H93.8544L93.7661 29.5675L93.6336 41.3545L88.1128 41.6234V54.4861L93.3244 52.0659C96.1511 50.7214 100.214 49.0183 102.379 48.2564L106.221 46.8223V41.5786H100.479V17.8254H123.446C143.144 17.8254 146.678 17.915 148.047 18.4976C150.255 19.4388 151.227 20.38 152.199 22.5312C152.949 24.1895 153.038 25.9373 153.038 46.7326C153.038 67.5279 152.949 69.2758 152.199 70.9341C150.299 75.1469 148.754 75.5951 136.387 75.6399H126.538V83.707H133.163V104.771H100.479V83.707L101.584 83.4381C102.202 83.3037 103.483 83.2589 104.454 83.3485L106.221 83.5278V74.6987L103.041 76.4914C98.4919 79.0012 94.8261 80.1216 91.2045 80.1665L88.1128 80.2113V83.707H93.8544V104.771H61.1712V83.707H66.9128V68.9173H49.6879L49.7762 76.1777L49.9087 83.483L55.8712 83.7519L55.7828 94.1495L55.6503 104.547L39.4412 104.682L23.1879 104.771V83.707H28.9296V41.5786H23.1879V17.8254L39.4412 17.915L55.6503 18.0495V41.3545Z" fill="white"/>
<path d="M126.537 66.6763H128.303C130.556 66.6763 132.058 65.9592 132.676 64.5698C132.985 63.8976 133.162 60.0433 133.162 54.0825C133.162 42.1611 132.941 41.5785 128.48 41.5785H126.537V66.6763Z" fill="white"/>
<path d="M107.899 46.5982C106.53 46.9568 106.22 47.2705 106.22 48.122C106.22 48.7046 106.265 49.1976 106.353 49.1976C106.397 49.1976 107.413 48.8839 108.605 48.5254C112.713 47.2705 113.596 48.0324 110.858 50.4973C109.268 51.8867 106.706 53.4105 106.441 53.1416C106.353 53.0519 106.22 52.2452 106.132 51.3041C106.088 50.4077 105.911 49.6458 105.779 49.6458C104.454 49.6458 91.2038 55.6962 88.9071 57.3544L87.6705 58.2059V56.8614C87.6705 56.0995 87.4938 55.4721 87.273 55.4721C86.478 55.4721 83.4305 59.4608 82.8563 61.2087C82.1055 63.4944 82.5471 64.7493 84.358 65.6456L85.8596 66.3627L84.358 68.1554C81.443 71.6064 80.8247 74.2954 82.3263 76.8052C83.1213 78.1497 85.5946 79.6735 86.9638 79.6735C88.1563 79.6735 87.8471 77.4775 86.6105 76.9845C85.153 76.4466 84.4463 74.9229 84.7113 73.0853C84.9763 71.5167 86.9196 68.4691 87.7146 68.4691C87.9355 68.4691 88.1121 70.3963 88.1121 72.9061V77.3878L90.0996 77.7015C91.248 77.836 92.9705 77.7464 94.163 77.4326C96.9455 76.7604 102.025 74.2954 104.365 72.5475C105.911 71.3823 106.22 70.8893 106.22 69.5896C106.22 68.738 106 68.021 105.779 68.021C105.16 68.021 99.5071 70.8893 96.4596 72.7716C93.4121 74.6091 92.8821 74.654 93.0588 73.0853C93.1471 72.2338 93.8538 71.3375 95.3996 70.1722C97.6521 68.4243 103.394 65.2423 105.249 64.7941C106.176 64.5252 106.22 64.3011 106.22 60.4468V56.4132L104.807 56.9959C101.583 58.3404 101.362 58.3404 101.362 56.9062C101.362 55.741 101.627 55.4721 103.526 54.6205C106.265 53.4553 106.22 53.4553 106.22 54.7998C106.22 56.0995 106.309 56.1443 108.075 55.2032C110.814 53.769 114.612 49.5562 114.612 47.8979C114.612 46.2397 111.52 45.6122 107.899 46.5982ZM88.9071 63.584C88.1121 64.1218 88.7305 64.077 90.188 63.4944C90.8505 63.2255 92.6613 62.5532 94.2071 61.9258L96.9896 60.8502L96.8571 62.2395C96.7246 63.4944 96.4155 63.7633 93.7213 64.9286C92.043 65.6456 90.1438 66.6316 89.4371 67.1246C88.7746 67.6176 88.068 68.021 87.8913 68.021C87.7146 68.021 87.6705 67.035 87.7588 65.7801C87.9355 64.2115 87.803 63.5392 87.3613 63.3599C86.478 63.0014 86.6546 61.9706 88.0238 60.3572L89.2163 58.8782L89.3488 61.0743C89.4371 62.5084 89.3046 63.36 88.9071 63.584Z" fill="white"/>
<path d="M107.016 64.4805C106.574 64.7494 106.221 65.4665 106.221 66.1387C106.221 67.304 106.309 67.3488 107.988 67.2143C110.328 66.9903 110.328 67.8866 107.943 69.9034C106.398 71.2031 106.177 71.6513 106.309 72.9062L106.442 74.3851L108.562 72.5028C109.71 71.472 110.947 70.0378 111.3 69.3208C112.095 67.797 112.139 65.2424 111.433 64.5253C110.77 63.853 108.076 63.853 107.016 64.4805Z" fill="white"/>
</svg>
