<svg width="356" height="80" viewBox="0 0 356 80" fill="none" xmlns="http://www.w3.org/2000/svg">
<path d="M170.584 79.2874H356V0H170.584V79.2874ZM266.883 10.4792C267.351 10.8119 269.342 14.7486 269.342 15.3585C269.342 15.5802 269.615 16.0793 269.967 16.5783C270.552 17.4654 272.933 22.1783 275.861 28.2773C276.681 29.9407 277.5 31.6041 277.735 31.9922C277.93 32.3248 278.515 33.4892 279.023 34.4872C279.53 35.4852 280.857 38.1466 282.029 40.4199C283.2 42.6932 284.254 44.9665 284.371 45.5209C284.527 46.1308 284.8 46.5744 284.995 46.5744C285.19 46.5744 285.503 47.018 285.62 47.517C285.776 48.0714 286.244 49.1803 286.674 49.9566C287.142 50.7328 287.767 51.9526 288.079 52.6734C288.391 53.3388 289.328 55.1685 290.148 56.721C292.022 60.3249 292.1 62.7091 290.382 65.2596C288.664 67.921 286.908 67.8101 284.995 64.9269C283.317 62.321 280.662 57.3309 280.662 56.6655C280.662 56.3883 280.311 55.7229 279.882 55.1685C279.452 54.614 279.101 53.8378 279.101 53.3942C279.101 53.0061 278.632 52.3962 278.086 52.119C277.032 51.5091 251.035 51.3427 249.551 51.8972C248.966 52.119 247.6 54.5031 245.726 58.5507C242.759 64.8715 241.627 66.5348 240.417 66.5348C239.402 66.5348 237.372 64.7051 237.099 63.5962C236.748 61.9883 237.255 59.0497 238.114 57.9408C238.544 57.3863 238.895 56.721 238.895 56.4437C238.895 56.2219 239.48 54.7804 240.183 53.3388C240.886 51.8972 241.979 49.4576 242.603 47.9605C243.228 46.4081 243.969 44.9665 244.243 44.7447C244.516 44.5229 244.75 44.0793 244.75 43.8021C244.75 43.5249 246.077 40.5308 247.678 37.2041C249.278 33.8219 251.035 29.8852 251.659 28.4436C252.245 26.9466 252.947 25.5605 253.221 25.3387C253.494 25.1169 253.728 24.6733 253.728 24.3961C253.728 23.9525 255.172 20.5704 255.992 19.1288C256.148 18.7961 256.773 17.4099 257.358 15.9684C258.842 12.3089 260.325 10.3683 261.926 9.92478C263.331 9.53666 266.024 9.81389 266.883 10.4792ZM186.393 10.3129C187.213 10.7565 191.663 18.7406 191.663 19.7387C191.663 20.1822 191.858 20.5149 192.053 20.5149C192.287 20.5149 192.638 21.0694 192.834 21.7347C193.068 22.4555 193.848 24.1189 194.551 25.505C195.293 26.8912 195.917 28.3328 195.917 28.6654C195.956 29.0535 196.112 29.3862 196.308 29.3862C196.62 29.3862 197.518 31.1605 198.962 34.5427C199.196 35.1526 199.548 35.7625 199.743 35.9843C199.899 36.1506 200.25 36.7051 200.445 37.2041C200.797 38.0912 201.499 39.4773 204.661 45.7981C205.325 47.1843 206.105 48.7368 206.301 49.2358C206.535 49.7902 207.042 50.7328 207.433 51.3982L208.213 52.618L209.306 50.8992C209.892 49.9566 210.399 48.9586 210.399 48.7368C210.399 48.515 210.634 47.9605 210.907 47.5724C211.141 47.1843 212.273 44.9665 213.327 42.6932C214.381 40.4199 215.474 38.313 215.747 38.0912C216.02 37.8694 216.255 37.3704 216.294 36.9823C216.294 36.5942 216.918 35.208 217.621 33.8219C218.362 32.4357 219.885 29.3862 221.017 27.0021C222.11 24.6733 223.203 22.7327 223.359 22.7327C223.515 22.7327 223.671 22.4001 223.671 22.0119C223.671 21.6793 224.413 19.905 225.35 18.1862C226.248 16.4674 227.262 14.4713 227.575 13.806C229.097 10.5901 229.8 9.98023 232.142 9.98023C236.319 9.98023 237.412 13.0852 234.913 17.8535C234.211 19.1842 233.118 21.3466 232.454 22.7327C231.049 25.7268 230.737 26.3367 229.839 27.7783C229.448 28.3328 229.136 29.0535 229.136 29.3308C229.136 29.608 228.707 30.5506 228.199 31.4377C227.692 32.2694 226.287 35.0971 225.037 37.7031C223.788 40.309 222.227 43.5249 221.563 44.8001C220.9 46.1308 220.158 47.7388 219.885 48.3487C219.651 48.9586 219.299 49.6239 219.104 49.8457C218.948 50.012 218.011 51.7863 217.113 53.7269C212.585 63.2081 211.844 64.3725 209.931 65.4259C208.409 66.2022 208.096 66.2022 206.691 65.4259C205.832 64.9824 204.7 63.9289 204.154 63.1527C203.061 61.5447 201.421 58.4398 201.421 57.9408C201.421 57.6635 200.523 55.9447 197.518 50.3447C197.088 49.5685 196.737 48.6259 196.737 48.2932C196.737 47.9605 196.581 47.6833 196.425 47.6833C196.23 47.6833 195.371 46.1308 194.473 44.1902C191.467 37.7585 190.53 35.7625 189.906 34.8753C189.594 34.3763 189.32 33.711 189.32 33.3783C189.32 33.0456 189.086 32.5466 188.813 32.3248C188.54 32.1031 187.681 30.4951 186.9 28.8318C186.12 27.1684 184.948 24.8397 184.285 23.6199C183.621 22.4555 183.075 21.1803 183.075 20.7921C183.075 20.404 182.802 19.9605 182.489 19.7387C182.177 19.5723 181.904 19.0733 181.904 18.6852C181.904 18.2416 181.552 17.4654 181.123 16.9109C180.147 15.6911 180.069 12.1426 180.967 10.8674C181.591 9.98023 185.105 9.64755 186.393 10.3129ZM332.852 11.2C333.555 11.7545 334.453 12.1981 334.882 12.1981C336.951 12.1981 340.659 17.0218 341.44 20.6812C342.103 23.8417 342.064 31.8258 341.362 35.0417C340.542 38.9783 337.302 42.7486 334.14 43.4694C333.203 43.6912 332.149 44.1348 331.837 44.5229C331.486 44.9665 329.144 45.2437 324.889 45.41C321.415 45.4655 318.526 45.7981 318.526 46.0754C318.526 46.3526 318.839 46.5744 319.229 46.5744C319.58 46.5744 320.478 47.0734 321.181 47.6833C321.883 48.2932 322.664 48.7922 322.898 48.7922C323.132 48.7922 324.147 49.2912 325.123 49.9566C326.099 50.6219 327.621 51.5645 328.48 52.119C329.339 52.6734 330.861 53.616 331.837 54.2813C332.813 54.9467 333.867 55.4457 334.101 55.4457C334.374 55.4457 335.311 56.0002 336.209 56.6655C337.107 57.3309 338.122 57.9962 338.434 58.218C339.41 58.8279 340.074 61.4338 339.722 63.0418C339.488 64.0398 338.824 64.7606 337.458 65.5368C335.663 66.5348 335.467 66.5348 333.594 65.6477C332.501 65.1487 330.9 64.2616 330.003 63.7071C329.105 63.0972 328.168 62.6536 327.934 62.6536C327.66 62.6536 326.802 62.1546 326.021 61.6002C323.601 59.8259 320.985 58.218 320.556 58.218C320.322 58.218 319.658 57.8299 319.034 57.3863C317.277 56.1111 313.53 53.7823 313.217 53.7823C313.061 53.7823 312.125 53.2833 311.149 52.618C310.173 52.0081 308.728 51.0655 307.987 50.6219C307.245 50.1229 305.918 49.2358 305.059 48.6813C304.2 48.0714 302.99 47.6833 302.327 47.7942L301.156 47.9605L300.765 64.5942L299.282 65.5923C297.916 66.5903 297.76 66.5903 296.081 65.7032C294.637 64.8715 294.286 64.3725 293.934 62.7091C293.466 60.214 293.427 16.0793 293.934 13.0852C294.09 11.9208 294.52 10.701 294.793 10.4238C295.066 10.202 303.459 10.0357 313.452 10.0911C329.885 10.2575 331.72 10.3683 332.852 11.2Z" fill="white"/>
<path d="M262.979 23.1208C262.432 24.008 260.871 27.2238 257.904 33.5446C257.319 34.7644 256.733 35.9842 256.538 36.3169C255.796 37.6476 254.508 40.9189 254.508 41.5288C254.508 41.9724 257.123 42.1387 263.681 42.1387C268.717 42.1387 272.855 42.0833 272.855 41.9724C272.855 41.307 271.215 37.204 270.747 36.5941C270.395 36.206 270.122 35.5961 270.122 35.208C270.122 34.8753 269.771 34.0991 269.341 33.5446C268.912 32.9902 268.561 32.3248 268.561 31.9921C268.561 31.7149 267.858 30.2179 266.999 28.7208C266.141 27.1684 265.438 25.6159 265.438 25.2278C265.438 24.8396 265.165 24.3961 264.852 24.1743C264.54 24.008 264.267 23.5089 264.267 23.0099C264.267 21.901 263.759 21.9565 262.979 23.1208Z" fill="white"/>
<path d="M301.858 19.7935C300.999 20.0153 300.96 20.2371 300.96 26.3361C300.96 29.9401 301.155 33.2668 301.428 34.0985L301.858 35.4847H315.793C328.87 35.4847 329.846 35.4292 331.524 34.3758C333.788 32.9342 334.53 31.2708 334.53 27.6668C334.53 24.3955 333.749 22.6767 331.524 20.9024C330.119 19.7381 329.455 19.7381 316.379 19.6272C308.884 19.5718 302.326 19.6272 301.858 19.7935Z" fill="white"/>
<path d="M1.6785 12.3089C0 14.9149 0 15.1921 0 38.5347C0 60.4358 0.039035 61.1566 0.819735 62.7091C1.48333 64.0952 1.87368 64.317 3.35701 64.317C6.83112 64.317 6.63595 65.4814 6.63595 45.7981C6.63595 30.6615 6.71402 28.3327 7.26051 27.6674C7.76796 27.0575 8.00217 27.2238 8.89998 28.8872C9.4855 29.8852 10.2272 31.1605 10.5394 31.604C11.3592 32.8238 12.9206 35.5407 13.8574 37.3704C14.2868 38.2575 14.9114 39.3664 15.2627 39.8654C15.614 40.3645 17.4486 43.4694 19.3223 46.8516C21.235 50.1783 22.9916 53.2279 23.1868 53.616C23.421 53.9487 24.3188 55.4457 25.1776 56.9427C26.0363 58.3843 27.4416 60.6576 28.3394 61.9328C29.9008 64.2616 30.0179 64.317 32.5162 64.317C35.4047 64.317 35.639 64.0952 38.4495 59.0497C39.5034 57.22 40.4403 55.612 40.5964 55.4457C40.7135 55.2794 42.6653 51.9526 44.8903 47.9605C47.1152 44.0239 49.2231 40.3645 49.5745 39.8654C49.8867 39.3664 50.5113 38.2575 50.9407 37.4258C51.8385 35.5961 53.3999 32.8238 54.2587 31.604C54.5709 31.1605 55.3126 29.8852 55.8981 28.8872C56.7959 27.2238 57.0301 27.0575 57.5376 27.6674C58.0841 28.3327 58.1622 30.6615 58.1622 46.0199C58.1622 65.814 57.8889 64.317 61.285 64.317C62.8073 64.317 63.3148 64.0952 63.627 63.2635C64.2126 61.6556 64.1735 15.303 63.549 13.6951C62.8854 11.9208 62.0266 11.1446 60.6994 11.0891C58.8648 11.0891 57.3034 12.8634 54.2587 18.2971C53.7122 19.2951 53.0876 20.3486 52.8924 20.7367C52.6582 21.0694 51.7214 22.7327 50.7455 24.3961C49.8087 26.0595 48.7547 27.8337 48.4034 28.3327C48.0911 28.8318 47.3885 30.0516 46.842 31.0496C45.71 33.1565 42.9385 37.814 41.3381 40.309C40.7135 41.2516 40.2061 42.2496 40.2061 42.5268C40.2061 42.8041 39.8938 43.3585 39.5425 43.8575C39.1521 44.3011 38.4104 45.5209 37.8639 46.5189C37.3565 47.517 36.5758 48.9031 36.1074 49.5684C35.678 50.2892 34.8192 51.6199 34.2337 52.618C32.5552 55.3348 31.9306 54.8358 28.2223 48.0714C27.4416 46.6298 26.6219 45.4655 26.4657 45.4655C26.3096 45.4655 26.1535 45.1882 26.1535 44.8556C26.1535 44.4674 25.7631 43.6358 25.2947 42.9704C23.7723 40.9189 22.0938 38.1466 19.4004 33.3783C16.9412 29.109 15.0675 26.004 13.6232 23.8416C13.3109 23.3426 11.8276 20.8476 10.3833 18.2971C8.89998 15.7466 7.10437 13.0852 6.3627 12.3644C4.64516 10.701 2.73245 10.701 1.6785 12.3089Z" fill="white"/>
<path d="M93.6831 23.2319C92.6292 23.6755 92.1217 25.5606 92.5121 27.723C92.7463 29.1091 92.7853 29.1091 98.2112 29.3864C103.286 29.6636 103.754 29.7745 105.316 31.2161C107.033 32.7685 107.267 33.4339 106.487 34.2101C106.213 34.4319 100.085 34.7646 92.9024 34.9309C78.8108 35.2636 76.5077 35.6517 73.5801 38.5349C70.8477 41.1408 70.145 42.9151 69.9498 47.6834C69.6766 54.4478 70.0279 56.6656 71.8626 59.2162C72.6823 60.436 73.8924 61.6003 74.4779 61.8221C75.0634 61.9884 75.8441 62.5983 76.2735 63.0973C76.8981 63.929 78.4985 64.0399 91.6923 64.0399C106.291 64.0399 106.369 64.0399 108.243 62.7647C109.258 62.0439 110.702 60.3805 111.444 59.1053L112.81 56.7211V31.4379L111.444 29.1091C109.336 25.3943 107.541 24.3962 101.49 23.5091C95.6739 22.6774 95.0884 22.6774 93.6831 23.2319ZM106.721 42.4715C107.228 42.7488 107.345 43.8022 107.345 48.0161C107.345 54.0597 106.916 55.4458 104.574 57.1647C103.208 58.1072 102.193 58.2181 92.0437 58.2181C82.9875 58.2181 80.8016 58.0518 79.8647 57.3864C79.2792 56.9429 78.5375 56.5548 78.2643 56.5548C77.9911 56.5548 77.3275 56.0557 76.781 55.4458C75.5709 54.1151 75.1415 51.5092 75.4928 48.0716C75.7661 45.4102 77.2104 43.4141 79.3963 42.6379C80.8406 42.1943 105.862 41.9725 106.721 42.4715Z" fill="white"/>
<path d="M129.987 23.5649C124.015 24.452 121.243 26.2263 119.057 30.4956C118.082 32.4362 118.082 32.6025 118.082 43.5254C118.082 54.1155 118.121 54.6699 118.979 56.3888C119.448 57.3313 119.838 58.3848 119.838 58.7175C119.838 59.0502 120.072 59.3274 120.346 59.3274C120.619 59.3274 121.243 59.8264 121.712 60.4363C122.18 61.0462 123.117 61.7115 123.82 61.9333C124.522 62.0997 125.654 62.6541 126.279 63.1531C127.255 63.8185 129.636 64.0403 139.746 64.3175C153.213 64.6502 153.799 64.8165 150.285 67.5333C148.763 68.7531 147.865 68.9749 143.376 69.2522C140.566 69.4185 138.146 69.7512 137.989 69.973C137.833 70.1393 137.638 71.3037 137.521 72.468C137.365 74.1314 137.482 74.7967 138.107 75.573C139.59 77.4581 149.7 76.1829 153.096 73.6878C153.877 73.1334 154.774 72.6343 155.048 72.6343C155.789 72.5789 157.39 70.472 158.405 68.1432C159.224 66.2026 159.263 65.7591 159.263 49.7353C159.263 33.4897 159.263 33.3788 158.327 31.0501C156.648 26.7808 153.291 24.5075 147.358 23.5095C142.166 22.6223 136.038 22.6778 129.987 23.5649ZM147.358 29.8857C150.793 31.4382 151.73 32.159 152.549 33.8778C153.408 35.7075 153.447 36.0402 153.33 46.1867C153.213 55.7789 153.135 56.7214 152.471 57.4422C151.3 58.6066 131.432 58.5511 129.831 57.3868C129.246 56.9432 128.231 56.5551 127.606 56.5551C126.942 56.5551 125.967 55.8897 125.108 54.8363L123.742 53.1175V43.5808C123.781 35.4303 123.859 33.9332 124.444 32.9907C125.264 31.6045 126.825 30.1629 127.84 29.7748C129.285 29.2758 146.187 29.3867 147.358 29.8857Z" fill="white"/>
</svg>
