<svg width="356" height="86" viewBox="0 0 356 86" fill="none" xmlns="http://www.w3.org/2000/svg">
<path fill-rule="evenodd" clip-rule="evenodd" d="M66.8907 10.3448L66.8017 10.4343C66.6772 10.4308 66.5534 10.4551 66.4393 10.5054C66.3251 10.5557 66.2235 10.6307 66.1416 10.725L59.1691 18.636L44.6977 34.2715L49.8899 36.7693C50.7025 37.1583 51.6174 37.277 52.5016 37.108C53.3859 36.9391 54.1936 36.4914 54.8077 35.8299L59.1691 31.1176V46.3132L20.5983 27.8294L17.4607 26.3382C17.406 26.3085 17.3448 26.2931 17.2827 26.2934C17.1706 26.2934 17.063 26.3382 16.9837 26.4179C16.9044 26.4976 16.8599 26.6057 16.8599 26.7184V74.8329C16.8537 75.0087 16.9025 75.1821 16.9993 75.3286C17.0962 75.4752 17.2362 75.5876 17.3998 75.6501C17.5634 75.7126 17.7424 75.7221 17.9116 75.6771C18.0809 75.6322 18.2318 75.5351 18.3434 75.3996L25.3307 67.6004L39.9505 51.8456L34.7583 49.3553C33.9472 48.9671 33.0344 48.8482 32.1518 49.0158C31.2691 49.1833 30.4623 49.6286 29.8479 50.2873L25.3974 55.1338V39.7443L59.2211 55.9614L67.0687 59.7566C67.1301 59.7678 67.1929 59.7678 67.2542 59.7566C67.3663 59.7566 67.4739 59.7118 67.5531 59.6321C67.6324 59.5524 67.677 59.4443 67.677 59.3316V11.2843C67.6766 11.164 67.6505 11.0452 67.6006 10.9359C67.5507 10.8266 67.4781 10.7292 67.3877 10.6505C67.2643 10.5376 67.1085 10.4671 66.9426 10.4492L66.8907 10.3448ZM82.4229 0.547416C82.7021 0.545451 82.979 0.598912 83.2376 0.704732C83.4962 0.810551 83.7315 0.966648 83.9299 1.16407C84.1284 1.36149 84.2861 1.59636 84.3941 1.85519C84.5021 2.11403 84.5582 2.39175 84.5591 2.67241V83.4224C84.5572 83.9853 84.3338 84.5247 83.9378 84.9228C83.5418 85.3209 83.0052 85.5454 82.4452 85.5474H2.09173C1.53493 85.5415 1.00293 85.315 0.611282 84.9171C0.219634 84.5192 -3.08468e-05 83.9821 3.25157e-09 83.4224V2.67241C-3.08468e-05 2.11268 0.219634 1.57554 0.611282 1.17767C1.00293 0.779789 1.53493 0.553307 2.09173 0.547416H82.4229Z" fill="white"/>
<path fill-rule="evenodd" clip-rule="evenodd" d="M343.012 16.8478V28.2706H354.398V36.778H343.012V60.8912C343.012 62.7328 343.398 64.0078 344.05 64.7087C344.703 65.4096 345.831 65.7899 347.44 65.7899C349.5 65.7919 351.555 65.5694 353.567 65.1263L353.997 65.0293L354.338 64.9473L355.755 64.5894L356 73.2236L354.798 73.5442C352.515 74.1846 350.159 74.5255 347.789 74.5583C342.819 74.5583 339.14 73.4249 336.767 71.1061C334.393 68.7872 333.303 65.3723 333.221 60.6675V36.8079H327.087V28.2706H333.354L334.756 16.8478H343.012ZM235.622 11.2706C236.796 11.2706 237.943 11.6204 238.919 12.2759C239.894 12.9313 240.655 13.8629 241.104 14.9528C241.553 16.0428 241.671 17.2421 241.442 18.3992C241.213 19.5563 240.648 20.6191 239.818 21.4533C238.988 22.2875 237.931 22.8556 236.78 23.0858C235.628 23.316 234.435 23.1978 233.351 22.7464C232.267 22.2949 231.34 21.5304 230.688 20.5494C230.036 19.5685 229.688 18.4153 229.688 17.2355C229.688 15.6535 230.313 14.1363 231.426 13.0177C232.539 11.899 234.048 11.2706 235.622 11.2706ZM264.832 35.0855C262.881 35.0855 260.967 35.682 259.855 36.8899C258.742 38.0978 258.23 39.7083 258.171 41.9302V46.2921H271.686V42.4372C271.686 39.9767 271.077 38.15 269.95 36.9346C268.822 35.7193 266.849 35.0855 264.839 35.0855H264.832ZM164.696 35.0855C162.745 35.0855 160.824 35.682 159.719 36.8899C158.614 38.0978 158.095 39.7083 158.028 41.9302V46.2921H171.55V42.4372C171.55 39.9767 170.934 38.15 169.814 36.9346C168.694 35.7193 166.714 35.0855 164.703 35.0855H164.696ZM308.639 27.2267C312.756 27.2267 315.99 28.6509 318.282 31.4842C320.379 34.1137 321.467 37.7647 321.546 42.4372V73.3653H311.688V43.8912C311.688 38.7837 310.205 36.4351 307.141 36.4351C305.502 36.5208 303.933 37.1293 302.661 38.1723C301.131 39.3194 299.83 40.746 298.826 42.3776L298.656 42.646L298.559 42.8026V73.3728H288.679V28.2482H298.099V32.3566L298.144 32.3044C298.899 31.4656 299.728 30.6969 300.621 30.0079L300.91 29.7916L301.177 29.6052L301.4 29.4487L301.6 29.3144C303.692 27.9385 306.14 27.2124 308.639 27.2267ZM230.467 73.3653H240.354V28.3824H230.467V73.3653ZM196.346 28.3824L204.38 42.4745L212.494 28.3824H223.569L210.254 50.0052L224.525 73.3653H213.169L204.187 57.8789L195.441 73.3653H184.108L198.201 50.2513L184.998 28.3824H196.346ZM264.394 27.2267C269.638 27.2267 273.696 28.718 276.514 31.7004C279.219 34.5536 280.619 38.575 280.713 43.7644V53.7109H258.089V57.9311C258.089 60.5258 258.72 62.3377 259.87 63.3964C261.019 64.4552 263.074 65.0741 265.893 65.0741C269.408 64.991 272.907 64.5741 276.344 63.8289L276.767 63.7469L278.48 63.3964L278.717 72.3885L276.893 72.7241L276.24 72.8434C272.942 73.4887 269.604 73.9072 266.249 74.096H265.804C259.684 74.096 255.226 72.7241 252.452 69.9355C249.678 67.1469 248.365 63.225 248.284 57.8565V43.9881C248.328 38.6794 249.671 34.5636 252.341 31.6557C255.011 28.7478 259.12 27.182 264.431 27.182L264.394 27.2267ZM164.258 27.2267C169.503 27.2267 173.56 28.718 176.379 31.7004C179.088 34.5536 180.488 38.575 180.577 43.7644V53.7109H157.917V57.9311C157.917 60.5258 158.547 62.3377 159.697 63.3964C160.846 64.4552 162.901 65.0741 165.72 65.0741C169.235 64.9914 172.734 64.5745 176.171 63.8289L176.564 63.7618L178.277 63.4114L178.515 72.4035L176.69 72.739L176.037 72.8583C172.739 73.5036 169.401 73.9221 166.046 74.1109H165.601C159.482 74.1109 155.024 72.739 152.25 69.9504C149.475 67.1618 148.163 63.2399 148.081 57.8714V43.9881C148.125 38.6794 149.468 34.5636 152.138 31.6557C154.809 28.7478 158.918 27.182 164.229 27.182L164.258 27.2267ZM101.477 13.6566H115.303L131.807 56.9022V13.6566H141.45V73.3653H127.994L111.142 30.0153V73.3653H101.499L101.477 13.6566Z" fill="white"/>
</svg>
