<svg width="312" height="66" viewBox="0 0 312 66" fill="none" xmlns="http://www.w3.org/2000/svg">
<g clip-path="url(#clip0_349_2013)">
<path d="M5.71869 48.0613C8.95684 50.8186 13.8208 52.1942 20.3035 52.1942C26.597 52.1942 31.4585 50.8649 34.8899 48.204C38.3219 45.3526 40.0375 41.3582 40.0375 36.2272C40.0375 33.8511 39.5703 31.6602 38.4649 29.6659C37.4519 27.8404 35.7321 26.1195 33.6496 25.0815C32.3327 24.4249 31.5291 24.1375 29.9058 23.6396C28.1517 23.1054 19.4291 20.7317 18.5473 20.4988C13.6875 19.3176 10.6021 17.7031 10.5801 14.8375C10.8319 9.29258 16.0137 8.84913 18.8736 8.84913C21.8278 8.84913 24.1662 9.4678 25.8818 10.7024C28.9591 13.0921 28.6168 16.1266 28.6168 16.1266H38.3219C38.1306 11.373 36.4126 7.5178 33.1744 4.57146C30.0285 1.91053 25.5458 0.579102 19.7314 0.579102C13.5343 0.579102 8.81592 1.86235 5.57565 4.42886C2.33285 7.09195 0.714192 10.7527 0.714192 15.408C0.72985 21.3921 3.57402 24.9186 6.14736 26.5293C7.71439 27.4652 11.269 28.897 15.8707 29.8089L19.7372 30.6503C26.4421 32.2788 30.2904 34.3436 30.1694 37.6506C30.0971 39.647 29.4082 41.1712 27.8817 42.2152C26.4861 43.1677 24.1159 43.7837 21.1613 43.7837C17.8241 43.7837 15.2041 43.119 13.2969 41.7877C11.4845 40.6472 10.3889 38.6507 10.008 35.7973H-0.000976562C0.285092 41.2155 2.19024 45.3041 5.71869 48.0613Z" fill="white"/>
<path d="M51.8544 60.7054C51.8544 63.2575 49.8646 65.5772 46.9684 65.5772H42.0828V29.8952C42.6507 20.4019 46.1123 12.8354 60.5723 12.3189C66.8277 12.3974 71.365 14.8799 74.0474 18.0042C76.9234 21.7316 78.154 26.3608 78.154 32.1888C78.154 38.2053 76.7156 43.0788 73.8423 46.8041C70.9681 50.4374 67.2788 52.2506 62.7758 52.2506C56.021 52.2506 52.7406 49.4473 51.8502 48.9207C51.8502 49.2465 51.8544 60.7054 51.8544 60.7054ZM68.2351 32.6183C68.2351 28.8909 67.5505 21.0109 59.9015 21.0109C52.6398 21.0109 51.8544 28.7023 51.8544 32.6183C51.8544 42.5349 57.5072 43.7958 60.1897 43.7958C67.1358 43.7958 68.2351 36.4478 68.2351 32.6183Z" fill="white"/>
<path d="M97.8757 20.7308C104.02 20.6486 104.974 25.8639 105.168 28.4304H90.583C90.583 28.4304 90.4603 20.8676 97.8757 20.7308ZM98.3044 43.6888C95.8274 43.5642 91.1107 43.0807 90.6774 34.8487L115.457 34.8529C115.461 34.6019 115.457 31.8927 115.463 31.8864C115.292 25.6854 113.801 21.0626 110.887 17.5938C107.742 14.172 103.309 12.4613 97.5875 12.4613C92.156 12.4613 87.9128 14.2222 84.8633 17.7369C81.907 21.1587 80.431 25.9141 80.431 31.9953C80.431 38.3651 81.9532 43.2613 85.0064 46.6832C88.0554 50.1995 92.299 51.9587 97.7305 51.9587C102.213 51.9587 105.929 50.8662 108.885 48.6791C111.84 46.5887 113.858 43.5365 114.905 39.542L106.294 39.5441C105.026 43.1267 101.788 43.8639 98.3044 43.6888Z" fill="white"/>
<path d="M142.783 39.5558H152.182C152.182 39.5558 149.629 51.9587 135.431 51.9587C121.235 51.9587 117.739 40.596 117.739 33.1315C117.739 25.665 119.068 12.9127 134.88 12.465C149.488 12.2481 151.896 24.87 151.896 24.87H141.888C141.888 24.87 140.917 20.6025 134.96 20.7371C129.004 20.8713 127.447 26.4504 127.447 31.7521C127.447 37.0559 128.77 43.6887 135.383 43.6887C141.673 43.8795 142.227 40.4901 142.783 39.5558Z" fill="white"/>
<path d="M164.312 23.4539H170.19L170.187 13.4589H164.324V7.04266C164.324 5.28139 163.342 2.19494 159.605 2.19494H154.458V44.1163C154.458 48.4885 156.158 51.1031 159.841 51.1031C159.884 51.1031 164.158 51.1073 164.314 51.1073L164.312 23.4539Z" fill="white"/>
<path d="M180.665 51.1764V31.6425C180.665 28.7908 181.329 26.7002 182.667 25.3689C184 24.0376 186.048 23.3724 188.815 23.3724H192.104V13.2475C192.104 13.2475 186.925 13.1226 183.168 14.2476C180.754 14.9684 178.614 15.9583 176.804 17.382C174.896 18.9041 173.395 20.9245 172.3 23.443C171.204 25.9635 170.656 29.076 170.656 32.7831V51.1764H180.665Z" fill="white"/>
<path d="M194.935 13.3087H204.944V37.5482C204.944 37.5482 204.585 44.1049 211.524 44.1088C218.069 44.113 218.235 38.2428 218.24 37.8271V18.0117C218.24 18.0117 218.579 13.3087 222.919 13.3087H228.11C228.11 13.3087 228.105 35.6079 228.108 35.8226C228.04 37.0498 229.422 51.9589 211.524 51.8989C193.791 51.8989 195.05 36.8148 194.935 35.9253V13.3087Z" fill="white"/>
<path d="M264.251 51.2983H254.338V26.937C254.338 24.1295 253.178 20.346 247.581 20.346C242.091 20.346 240.973 24.6435 240.973 26.937V51.2983H230.912V28.9431C230.912 22.4488 232.843 18.48 236.015 15.9017C239.155 13.3513 243.174 12.5119 247.295 12.3191C249.498 12.3191 251.654 12.5601 253.762 13.0361C255.869 13.5158 257.785 14.4699 259.511 15.9017C260.948 14.6624 262.647 13.777 264.612 13.2508C266.576 12.7268 268.608 12.3313 270.72 12.3191C282.99 12.2546 287.916 17.8576 288.322 19.6548C288.322 19.681 288.326 51.2983 288.326 51.2983H282.646C281.211 51.2983 277.761 50.3245 277.761 46.4266V26.937C277.788 24.1734 276.817 20.346 271.006 20.346C265.257 20.346 264.251 24.6435 264.251 26.937V51.2983Z" fill="white"/>
<path d="M291.113 19.6373V51.251L311.999 35.4486L291.113 19.6373Z" fill="white"/>
</g>
<defs>
<clipPath id="clip0_349_2013">
<rect width="312" height="65" fill="white" transform="translate(0 0.577759)"/>
</clipPath>
</defs>
</svg>
