<svg width="276" height="64" viewBox="0 0 276 64" fill="none" xmlns="http://www.w3.org/2000/svg">
<g clip-path="url(#clip0_349_2025)">
<path d="M51.3877 18.0938H34.0266C34.0266 15.1797 31.1993 13.347 26.6738 13.347C21.5211 13.347 19.3286 15.7324 19.3286 18.0458C19.3286 27.5975 54.2389 18.1554 54.2389 43.2908C54.2389 56.4171 43.4374 63.0994 27.6609 63.0994C10.7774 63.0994 0.499023 55.6579 0.499023 43.0638H18.7573C18.7573 46.9221 21.9722 48.9707 27.5828 48.9707C32.0885 48.9707 36.1575 47.6369 36.1575 43.9758C36.1575 34.2647 2.01514 43.4943 2.01514 18.2389C2.01514 7.72322 11.503 0.0993652 26.9728 0.0993652C42.3674 0.0993652 51.3877 7.3639 51.3877 18.0938Z" fill="white"/>
<path fill-rule="evenodd" clip-rule="evenodd" d="M104.802 1.77712V18.0935H88.0309V61.4156H69.9599V18.0935H53.4235V1.77712H104.802ZM272.835 1.77712L246.933 45.0992H275.499L266.389 61.4156H217.7L243.572 18.0935H219.859V1.77712H272.835ZM187.927 1.77712C202.166 1.77712 213.151 7.45427 213.151 21.3674C213.151 30.8878 207.573 36.783 201.615 39.3445L216.953 61.4156H195.516L180.504 36.3371V61.4159H162.433V1.77684L187.927 1.77712ZM180.504 28.1521H188.212C191.982 28.1521 195.17 26.8065 195.17 22.3164C195.17 17.8265 191.897 16.4806 188.212 16.4806H180.504V28.1521ZM134.996 1.77712L158.713 61.4156H139.535L137.374 54.9341H116.482L114.322 61.4156H95.1434L118.86 1.77712H134.996ZM120.468 42.9769H133.389L126.928 23.5943L120.468 42.9769Z" fill="white"/>
</g>
<defs>
<clipPath id="clip0_349_2025">
<rect width="275" height="63" fill="white" transform="translate(0.5 0.0993652)"/>
</clipPath>
</defs>
</svg>
