<svg width="270" height="92" viewBox="0 0 270 92" fill="none" xmlns="http://www.w3.org/2000/svg">
<g clip-path="url(#clip0_349_1978)">
<path fill-rule="evenodd" clip-rule="evenodd" d="M17.1991 81.0349C17.2039 81.0349 17.3983 81.1408 18.0049 81.1857C56.207 84.0327 75.5889 85.292 134.71 85.3063C193.815 85.292 213.196 84.0327 251.402 81.1857C252.019 81.1396 252.208 81.0313 252.218 81.0253C252.215 81.0253 252.416 80.7944 252.617 79.8797L262.65 14.5964C262.669 14.3613 262.693 14.0729 262.693 14.0729C262.714 13.8169 262.745 13.4167 261.167 13.2456C125.597 -1.4238 9.46092 13.0894 8.30471 13.2378C6.66431 13.4268 6.69551 13.8199 6.71951 14.107L6.75731 14.6138L16.7869 79.8797C16.9879 80.7884 17.1871 81.0223 17.1991 81.0349ZM134.71 92C75.3477 91.9844 55.8794 90.7198 17.5033 87.8608C13.4743 87.5581 11.0851 85.3709 10.2001 81.1737C10.1875 81.1133 10.1767 81.0528 10.1677 80.9912L0.103895 15.5063C0.0942948 15.4513 0.0882948 15.3968 0.0816948 15.3406C0.0720948 15.2521 0.0264947 14.6132 0.0264947 14.6132C-0.235706 11.3558 1.5601 7.27637 7.49171 6.59438C8.61011 6.4496 125.488 -8.16834 261.891 6.59139C266.789 7.12202 269.73 10.2807 269.382 14.6401L269.335 15.1934C269.328 15.2862 269.316 15.4148 269.301 15.5063L259.237 80.9912C259.228 81.0528 259.217 81.1133 259.204 81.1737C258.319 85.3709 255.93 87.5581 251.904 87.8608C213.524 90.7198 194.056 91.9844 134.71 92Z" fill="white"/>
<path fill-rule="evenodd" clip-rule="evenodd" d="M42.6367 53.2324L32.745 20.4304H45.2011L48.9379 37.7446L52.6015 20.4304H64.7641L54.8725 53.2324V71.5684H42.6367V53.2324Z" fill="white"/>
<path fill-rule="evenodd" clip-rule="evenodd" d="M69.4661 20.4304H93.279V31.9734H81.7025V40.2285H92.0333V51.4784H81.7025V60.0266H93.4986V71.5684H69.4661V20.4304Z" fill="white"/>
<path fill-rule="evenodd" clip-rule="evenodd" d="M99.0706 20.4304H111.307V60.0266H121.271V71.5684H99.0706V20.4304Z" fill="white"/>
<path fill-rule="evenodd" clip-rule="evenodd" d="M126.812 20.4304H139.048V60.0266H149.012V71.5684H126.812V20.4304Z" fill="white"/>
<path fill-rule="evenodd" clip-rule="evenodd" d="M170.778 47.8974V44.104C170.778 33.2161 169.506 31.2497 167.316 31.2497C165.196 31.2497 163.924 33.2161 163.924 44.104V47.8974C163.924 58.7848 165.196 60.7512 167.316 60.7512C169.506 60.7512 170.778 58.7848 170.778 47.8974ZM151.843 47.6863V44.3146C151.843 28.4398 157.707 20.4323 167.316 20.4323C176.925 20.4323 182.789 28.4398 182.789 44.3146V47.6863C182.789 63.5605 176.925 71.5685 167.316 71.5685C157.707 71.5685 151.843 63.5605 151.843 47.6863Z" fill="white"/>
<path fill-rule="evenodd" clip-rule="evenodd" d="M184.534 20.4323H197.283L200.141 48.6632L203.657 20.4323H213.842L217.359 48.6632L220.217 20.4323H232.819L224.759 71.5685H212.01L208.64 48.6632L205.269 71.5685H192.594L184.534 20.4323Z" fill="white"/>
</g>
<defs>
<clipPath id="clip0_349_1978">
<rect width="270" height="92" fill="white"/>
</clipPath>
</defs>
</svg>
