<svg width="235" height="442" viewBox="0 0 235 442" fill="none" xmlns="http://www.w3.org/2000/svg">
<path d="M29.0166 23L204.983 23V44.0974L62.1989 44.0974L62.1989 80.3701H29.0166L29.0166 23Z" fill="white"/>
<path d="M26 121.764C26 113.292 29.8545 105.807 37.5636 99.3094C45.2726 92.8116 55.9144 87.712 69.489 84.0107C83.2311 80.3094 99.0682 78.4588 117 78.4588C134.932 78.4588 150.685 80.3094 164.26 84.0107C178.002 87.712 188.727 92.8116 196.436 99.3094C204.146 105.807 208 113.292 208 121.764C208 130.318 204.145 137.844 196.436 144.342C188.727 150.84 178.002 155.898 164.26 159.517C150.685 163.219 134.932 165.069 117 165.069C99.0682 165.069 83.2311 163.219 69.489 159.517C55.9144 155.898 45.2726 150.84 37.5636 144.342C29.8545 137.844 26 130.318 26 121.764ZM64.9641 121.764C64.9641 126.288 67.059 130.154 71.2486 133.361C75.6059 136.651 81.6391 139.16 89.3481 140.887C97.2247 142.697 106.442 143.602 117 143.602C127.726 143.602 136.943 142.697 144.652 140.887C152.361 139.16 158.31 136.651 162.5 133.361C166.857 130.154 169.036 126.288 169.036 121.764C169.036 117.322 166.857 113.457 162.5 110.167C158.31 106.877 152.361 104.327 144.652 102.517C136.943 100.79 127.726 99.9263 117 99.9263C106.442 99.9263 97.2247 100.79 89.3481 102.517C81.6391 104.327 75.6059 106.877 71.2486 110.167C67.059 113.457 64.9641 117.322 64.9641 121.764Z" fill="white"/>
<path d="M26 210.723C26 202.498 29.6869 195.301 37.0608 189.132C44.4346 183.046 54.8251 178.275 68.2321 174.821C81.6391 171.448 97.3085 169.762 115.24 169.762C133.34 169.762 149.344 171.531 163.254 175.068C177.164 178.604 188.057 183.704 195.934 190.366C203.978 197.029 208 205.007 208 214.301C208 224.829 202.889 233.507 192.666 240.334C182.443 247.161 168.282 251.602 150.182 253.658V230.464C156.048 229.148 160.489 227.132 163.506 224.418C166.69 221.786 168.282 218.373 168.282 214.178C168.282 209.078 166.103 204.801 161.746 201.347C157.389 197.974 151.188 195.425 143.144 193.697C135.267 192.052 125.882 191.23 114.989 191.23C103.928 191.23 94.5433 192.093 86.8343 193.821C79.2928 195.548 73.5949 198.057 69.7403 201.347C65.8858 204.637 63.9586 208.626 63.9586 213.314C63.9586 219.73 67.1427 224.583 73.5111 227.873C80.047 231.245 87.8398 233.342 96.8895 234.165V215.535H128.564V255.262H29.0166L29.0166 235.769L46.6133 234.165C42.256 232.52 38.4853 230.587 35.3011 228.366C32.2845 226.145 30.0221 223.555 28.5138 220.593C26.838 217.715 26 214.425 26 210.723Z" fill="white"/>
<path d="M26 304.612C26 296.14 29.8545 288.655 37.5635 282.157C45.2726 275.66 55.9144 270.56 69.489 266.859C83.2311 263.157 99.0682 261.307 117 261.307C134.932 261.307 150.685 263.157 164.26 266.859C178.002 270.56 188.727 275.66 196.436 282.157C204.145 288.655 208 296.14 208 304.612C208 313.166 204.145 320.692 196.436 327.19C188.727 333.688 178.002 338.746 164.26 342.365C150.685 346.067 134.932 347.917 117 347.917C99.0681 347.917 83.2311 346.067 69.489 342.365C55.9144 338.746 45.2726 333.688 37.5635 327.19C29.8545 320.692 26 313.166 26 304.612ZM64.9641 304.612C64.9641 309.136 67.0589 313.002 71.2486 316.209C75.6059 319.499 81.639 322.008 89.3481 323.735C97.2247 325.545 106.442 326.45 117 326.45C127.726 326.45 136.943 325.545 144.652 323.735C152.361 322.008 158.31 319.499 162.5 316.209C166.857 313.002 169.036 309.136 169.036 304.612C169.036 300.17 166.857 296.305 162.5 293.015C158.31 289.725 152.361 287.175 144.652 285.365C136.943 283.638 127.726 282.774 117 282.774C106.442 282.774 97.2247 283.638 89.3481 285.365C81.639 287.175 75.6059 289.725 71.2486 293.015C67.0589 296.305 64.9641 300.17 64.9641 304.612Z" fill="white"/>
<path d="M26 386.416C26 380.247 28.0948 374.613 32.2845 369.513C36.4742 364.496 42.7587 360.465 51.1381 357.422C59.5175 354.461 69.9079 352.857 82.3094 352.61L82.3094 375.065C78.1197 375.229 74.5166 375.805 71.5 376.792C68.4834 377.779 66.1372 379.095 64.4613 380.74C62.7855 382.385 61.9475 384.236 61.9475 386.292C61.9475 388.019 62.4503 389.541 63.4558 390.857C64.6289 392.255 66.3048 393.366 68.4834 394.188C70.8296 395.011 73.7624 395.422 77.2818 395.422C80.8011 395.422 83.9015 394.887 86.5829 393.818C89.4319 392.831 91.9457 391.433 94.1243 389.623C96.3029 387.814 98.314 385.675 100.157 383.208C102.001 380.822 103.761 378.314 105.436 375.682C109.961 368.773 116.162 363.385 124.039 359.519C131.915 355.736 142.557 353.844 155.964 353.844C167.192 353.844 176.661 355.201 184.37 357.916C192.079 360.63 197.945 364.331 201.967 369.019C205.989 373.708 208 378.931 208 384.688C208 390.775 205.905 396.121 201.715 400.727C197.693 405.416 191.744 409.117 183.867 411.831C175.991 414.628 166.438 416.149 155.21 416.396V393.571C158.562 393.489 161.494 392.996 164.008 392.091C166.522 391.268 168.449 390.199 169.79 388.883C171.298 387.567 172.052 386.128 172.052 384.565C172.22 383.084 171.801 381.686 170.796 380.37C169.79 379.136 168.282 378.108 166.271 377.286C164.26 376.545 161.662 376.175 158.478 376.175C155.294 376.175 152.445 376.587 149.931 377.409C147.585 378.314 145.49 379.506 143.646 380.987C141.971 382.55 140.295 384.318 138.619 386.292C137.11 388.348 135.602 390.528 134.094 392.831C131.077 397.273 127.474 401.385 123.285 405.169C119.262 409.035 113.9 412.119 107.196 414.422C100.493 416.807 91.5267 418 80.2983 418C70.4107 418 61.361 416.766 53.1492 414.299C44.9374 411.831 38.3177 408.253 33.2901 403.565C28.43 398.877 26 393.16 26 386.416Z" fill="white"/>
</svg>
