<svg width="235" height="442" viewBox="0 0 235 442" fill="none" xmlns="http://www.w3.org/2000/svg">
<path d="M41.95 142L25 37H35.95L47.95 120.85L64 37H75.1L91.15 120.85L103.15 37H114.1L97.15 142H85.3L69.55 57.1L53.8 142H41.95Z" fill="white"/>
<path d="M135.491 142V37H145.991V83.35H199.991V37H210.491V142H199.991V92.95H145.991V142H135.491Z" fill="white"/>
<path d="M69.55 274.8C61.15 274.8 53.9 272.55 47.8 268.05C41.8 263.45 37.15 257.1 33.85 249C30.65 240.8 29.05 231.3 29.05 220.5C29.05 209.8 30.65 200.4 33.85 192.3C37.15 184.1 41.8 177.7 47.8 173.1C53.9 168.5 61.15 166.2 69.55 166.2C78.05 166.2 85.3 168.5 91.3 173.1C97.3 177.7 101.9 184.1 105.1 192.3C108.4 200.4 110.05 209.8 110.05 220.5C110.05 231.3 108.4 240.8 105.1 249C101.9 257.1 97.3 263.45 91.3 268.05C85.3 272.55 78.05 274.8 69.55 274.8ZM69.55 264.9C78.45 264.9 85.6 261.05 91 253.35C96.5 245.55 99.25 234.6 99.25 220.5C99.25 206.4 96.5 195.5 91 187.8C85.6 180 78.45 176.1 69.55 176.1C60.75 176.1 53.6 180 48.1 187.8C42.6 195.5 39.85 206.4 39.85 220.5C39.85 234.6 42.6 245.55 48.1 253.35C53.6 261.05 60.75 264.9 69.55 264.9Z" fill="white"/>
<path d="M143.141 273V264H167.741V177H143.141V168H202.841V177H178.241V264H202.841V273H143.141Z" fill="white"/>
<path d="M35.5 404V299H68.8C79.8 299 87.95 301.5 93.25 306.5C98.65 311.5 101.35 317.85 101.35 325.55C101.35 329.65 100.55 333.3 98.95 336.5C97.45 339.6 95.45 342.25 92.95 344.45C90.55 346.55 88 348.15 85.3 349.25V350.15C88.5 351.15 91.5 352.8 94.3 355.1C97.1 357.3 99.35 360.1 101.05 363.5C102.85 366.9 103.75 370.85 103.75 375.35C103.75 380.55 102.45 385.35 99.85 389.75C97.25 394.05 93.45 397.5 88.45 400.1C83.45 402.7 77.25 404 69.85 404H35.5ZM46 345.2H68.5C75.6 345.2 81.05 343.55 84.85 340.25C88.65 336.95 90.55 332.4 90.55 326.6C90.55 321 88.7 316.6 85 313.4C81.3 310.2 75.65 308.6 68.05 308.6H46V345.2ZM46 394.4H69.1C76.7 394.4 82.55 392.65 86.65 389.15C90.85 385.55 92.95 380.65 92.95 374.45C92.95 368.25 90.75 363.4 86.35 359.9C82.05 356.3 76.15 354.5 68.65 354.5H46V394.4Z" fill="white"/>
<path d="M141.341 404V299H205.991V308.6H151.841V346.4H201.491V356H151.841V394.4H205.991V404H141.341Z" fill="white"/>
</svg>
