<svg width="615" height="610" viewBox="0 0 615 610" fill="none" xmlns="http://www.w3.org/2000/svg">
<path d="M394.708 609.692C394.708 609.692 412.108 598.437 440.032 576.351C452.477 564.482 466.612 549.118 480.901 530.911C493.384 511.86 505.253 489.658 515.471 464.884C522.845 439.801 527.647 413.029 529.337 385.028C527.685 357.833 522.615 330.984 514.049 304.827C502.641 281.319 488.237 259.733 471.567 241.065C453.207 225.701 433.579 213.678 413.644 205.228C393.747 200.158 374.542 198.353 356.796 199.466C340.626 203.115 326.567 208.762 314.967 215.868C305.403 224.164 298.297 232.845 293.457 241.488C290.538 250.092 289.347 258.004 289.655 264.841C291.191 271.179 293.534 276.364 296.415 280.359C299.91 283.931 303.483 286.658 306.786 288.694C314.199 292.651 318.732 295.147 318.732 295.147C318.732 295.147 310.473 304.827 305.518 316.849C298.259 328.91 286.928 338.321 286.928 338.321C286.928 338.321 283.624 335.094 277.133 328.987C273.753 325.53 269.681 320.921 265.302 314.967C261.423 308.322 257.812 300.025 255.124 290.115C253.856 279.553 254.24 267.607 256.929 254.624C261.922 241.718 269.643 228.658 280.436 216.098C293.726 205.036 310.012 195.702 328.834 188.788C349.498 184.909 371.93 184.525 395.207 187.982C418.561 195.395 441.53 206.918 463.04 222.398C482.63 241.603 499.645 264.073 513.243 288.886C523.69 316.542 530.182 345.004 532.871 373.889C531.872 403.58 527.416 431.966 520.08 458.469C509.709 484.627 497.494 507.98 484.512 527.992C469.685 547.044 455.012 563.023 441.953 575.352C412.837 598.168 394.708 609.692 394.708 609.692Z" fill="white"/>
<path d="M239.412 0C239.412 0 220.937 9.37218 190.669 28.5007C176.803 39.1404 161.016 52.9682 144.577 69.8305C129.942 87.5761 115.615 108.472 102.517 132.324C92.2998 156.523 84.4256 182.911 79.4322 210.913C77.9342 238.261 79.7779 265.955 85.1938 293.073C93.7594 318.193 105.398 341.585 119.725 362.442C136.088 380.226 154.102 395.015 172.962 406.23C191.975 414.066 210.796 418.675 228.581 420.25C245.212 419.175 259.924 415.833 272.599 410.84C283.316 404.387 291.804 397.204 297.988 389.791C302.406 382.109 305.018 374.887 306.016 368.434C305.786 362.25 304.557 357.026 302.598 352.801C299.986 348.922 297.182 345.849 294.493 343.391C288.194 338.743 284.084 336.016 284.084 336.016C284.084 336.016 295.031 327.105 302.022 315.543C306.823 303.252 315.388 292.958 315.388 292.958C315.388 292.958 319.498 296.069 326.72 302.33C330.253 306.056 334.248 311.011 338.281 317.425C341.546 324.493 344.273 333.173 345.771 343.391C345.694 353.992 343.697 365.784 339.318 378.306C332.635 390.444 323.147 402.389 310.741 413.49C295.876 422.747 278.399 429.93 258.618 434.424C237.338 435.615 214.753 433.195 191.86 426.857C169.159 416.448 147.419 401.967 127.522 383.799C110.045 362.097 95.6031 337.475 84.6945 310.78C77.3965 281.819 74.0548 252.242 74.5925 222.935C78.9329 193.013 86.615 164.781 96.8706 139.008C110.238 113.695 125.064 91.494 140.313 72.7112C157.444 55.004 173.884 40.5616 188.441 29.4225C220.13 9.60265 239.412 0 239.412 0Z" fill="white"/>
<path d="M4.37939 401.083C4.37939 401.083 15.3648 418.33 37.0668 446.139C48.6668 458.507 63.7238 472.642 81.6231 486.931C100.329 499.453 122.069 511.36 146.537 521.769C171.158 529.336 197.431 534.368 225.125 536.442C251.897 535.213 278.439 530.642 304.251 522.653C327.528 511.898 348.999 498.185 367.628 482.245C382.993 464.73 395.284 445.831 404.003 426.626C409.457 407.498 411.762 389.022 411.263 371.891C408.344 356.22 403.427 342.699 397.128 331.33C389.676 322.073 381.802 315.082 373.966 310.319C366.13 307.361 358.909 306.094 352.648 306.286C346.848 307.669 342.008 309.896 338.167 312.662C334.71 316.081 331.868 319.576 329.602 322.764C324.916 329.985 321.958 334.402 321.958 334.402C321.958 334.402 313.854 324.339 303.099 318.001C290.538 312.547 279.514 303.136 279.514 303.136C279.514 303.136 282.395 299.564 287.888 292.573C291.038 288.963 295.301 284.622 300.871 279.936C307.208 275.865 315.159 272.062 324.724 269.22C334.903 267.798 346.503 268.106 359.063 270.641C371.585 275.481 384.222 283.047 396.359 293.572C407.038 306.708 415.987 322.649 422.555 341.086C426.089 361.405 426.243 383.414 422.632 406.115C415.027 429.123 403.35 451.631 387.948 472.642C368.781 491.771 346.349 508.364 321.689 521.539C294.226 531.602 265.994 537.748 237.378 540.129C207.879 538.862 179.839 534.214 153.605 526.724C127.677 516.2 104.631 503.908 84.8496 490.849C66.0668 475.984 50.28 461.234 38.1423 448.213C15.6721 419.136 4.37939 401.083 4.37939 401.083Z" fill="white"/>
<path d="M614.301 245.789C614.301 245.789 604.699 227.16 585.148 196.739C574.278 182.758 560.181 166.971 543.011 150.493C524.92 135.858 503.564 121.531 479.365 108.625C454.744 98.5616 427.818 90.8795 399.433 86.2318C371.662 85.1179 343.545 87.4226 316.043 93.3762C290.654 102.556 267.108 114.886 246.136 129.943C228.237 147.074 213.679 165.895 202.655 185.523C195.165 205.343 191.017 224.894 189.98 243.37C191.708 260.578 195.741 275.865 201.541 288.886C208.762 299.948 216.79 308.629 224.972 314.967C233.46 319.423 241.373 321.996 248.441 322.918C255.201 322.572 260.886 321.228 265.38 319.192C269.451 316.465 272.601 313.584 274.982 310.78C279.169 304.327 281.551 300.14 281.551 300.14C281.551 300.14 292.075 309.205 304.52 314.314C315.813 320.805 324.494 331.215 324.494 331.215C324.494 331.215 320.96 334.979 314.084 341.739C310.09 345.081 304.866 348.845 298.144 352.648C290.731 355.797 281.743 358.371 271.141 359.754C260.233 359.562 248.056 357.487 235.112 352.955C222.552 346.118 210.184 336.438 198.699 323.763C189.019 308.668 181.491 290.807 176.69 270.679C175.192 248.978 177.419 225.931 183.604 202.578C193.898 179.416 208.263 157.215 226.508 136.857C248.287 118.881 273.023 104.016 299.872 92.7232C329.103 85.0411 358.909 81.4305 388.486 81.6994C418.638 85.7709 447.215 93.261 473.296 103.363C498.839 116.576 521.348 131.364 540.399 146.613C558.337 163.668 573.01 180.107 584.341 194.703C604.507 226.43 614.301 245.789 614.301 245.789Z" fill="white"/>
<path d="M0 230.233C0 230.233 0.268873 250.898 3.95629 285.737C7.29801 302.714 12.6371 322.572 20.3576 344.428C29.6914 365.131 41.906 386.833 57.155 408.574C74.1324 428.125 94.0291 446.6 116.384 462.963C139.776 476.138 164.973 486.47 191.131 493.423C216.751 496.726 242.371 496.534 266.762 492.923C289.385 486.24 309.858 476.791 327.681 465.114C342.622 451.824 354.568 437.382 363.441 422.555C369.395 407.729 372.621 393.517 373.466 380.534C372.237 368.665 369.433 358.448 365.477 350.19C360.56 343.314 355.221 338.359 349.92 335.056C344.351 332.982 339.127 332.252 334.518 332.405C329.793 333.289 325.607 334.633 322.073 336.131C314.544 339.703 309.781 341.97 309.781 341.97C309.781 341.97 308.168 328.756 302.291 317.425C293.956 306.862 288.732 293.649 288.732 293.649C288.732 293.649 293.111 291.805 301.562 288.387C306.171 286.812 312.163 285.352 319.461 284.315C327.028 284.2 335.785 285.276 345.426 287.964C354.837 292.343 364.478 298.835 373.735 307.746C381.724 318.578 388.331 331.868 392.94 347.347C394.976 364.209 393.977 382.608 389.637 401.852C381.686 421.134 370.048 439.878 354.76 457.278C335.939 472.835 314.045 485.741 289.616 495.42C262.92 501.527 235.034 503.678 206.841 501.758C178.187 495.727 150.608 485.856 125.026 472.681C100.636 455.972 79.049 436.959 60.6887 416.717C44.249 394.016 31.0358 371.2 21.1642 349.729C12.8675 326.682 7.29801 305.902 3.80265 288.31C0.0768202 251.666 0 230.233 0 230.233Z" fill="white"/>
<path d="M606.425 400.776C606.425 400.776 606.733 379.689 603.89 344.005C600.894 326.605 595.978 306.133 588.603 283.586C579.653 262.383 567.554 239.644 552.459 217.02C535.443 196.586 515.431 177.227 492.692 159.903C468.877 145.922 443.142 134.86 416.139 127.216C389.713 123.452 363.056 123.298 337.628 126.794C314.006 133.554 292.496 143.348 273.713 155.486C257.926 169.506 245.251 184.794 235.84 200.619C229.502 216.521 226.045 231.923 225.2 246.02C226.583 259.118 229.771 270.449 234.188 279.821C239.681 287.619 245.635 293.457 251.588 297.529C257.772 300.179 263.496 301.485 268.489 301.715C273.406 301.101 277.592 299.948 281.011 298.489C287.848 294.609 292.035 291.921 292.035 291.921C292.035 291.921 296.913 304.596 305.286 314.929C311.509 326.759 313.429 340.587 313.429 340.587C313.429 340.587 308.705 341.97 299.525 344.313C294.531 345.311 288.27 346.041 280.55 346.195C272.637 345.503 263.572 343.544 253.624 339.895C243.983 334.633 234.265 327.182 224.97 317.233C217.057 305.403 210.643 291.152 206.417 274.674C204.881 256.929 206.494 237.723 211.641 217.788C220.399 198.045 232.998 178.917 249.322 161.209C269.18 145.653 292.112 132.901 317.463 123.567C345.08 117.959 373.849 116.461 402.657 119.111C431.772 126.025 459.697 136.819 485.47 150.877C509.938 168.546 531.486 188.519 549.655 209.645C565.864 233.229 578.655 256.737 588.219 278.938C595.939 302.484 601.086 323.725 604.121 341.739C606.925 379.036 606.425 400.776 606.425 400.776Z" fill="white"/>
<path d="M94.2598 541.628C94.2598 541.628 112.735 550.731 145.499 563.214C161.978 567.862 181.913 572.049 204.998 575.045C227.276 576.044 252.243 574.93 278.362 571.127C303.213 564.828 328.526 555.417 353.07 542.857C375.233 527.915 395.552 510.131 413.375 489.927C427.741 468.455 438.841 445.64 446.446 422.132C450.326 399.086 450.864 376.693 448.175 355.567C442.721 336.438 434.962 319.461 425.474 305.172C414.604 293.342 403.158 284.392 391.673 278.093C380.342 274.175 369.817 272.485 360.522 272.638C352.187 274.367 345.273 277.171 339.972 280.781C335.67 285.122 332.713 289.654 330.869 294.071C329.717 298.911 329.179 303.405 328.948 307.361C328.833 316.042 328.564 321.381 328.564 321.381C328.564 321.381 316.542 317.579 304.02 318.078C290.077 319.077 275.75 315.62 275.75 315.62C275.75 315.62 276.672 311.126 278.131 302.522C279.13 297.874 280.628 292.036 283.125 285.199C286.466 278.477 291.383 271.102 298.105 263.689C306.171 257.159 316.273 251.359 328.334 246.942C341.547 244.522 356.412 244.368 372.314 247.018C388.216 252.588 404.31 261.538 419.521 273.829C433.195 289.347 444.756 308.014 453.552 329.332C459.045 352.878 460.812 378.114 458.584 404.118C452.17 430.429 441.607 456.241 427.433 480.286C409.265 503.025 388.178 523.037 365.17 539.822C339.55 553.919 312.893 564.597 286.658 571.78C259.118 576.159 233.152 577.58 209.492 576.697C185.523 573.662 164.628 569.283 147.343 564.367C113.465 551.269 94.2598 541.628 94.2598 541.628Z" fill="white"/>
<path d="M544.509 102.748C544.509 102.748 527.032 91.033 495.19 73.8251C478.98 66.8343 459.122 59.8052 436.037 53.6211C413.145 49.5111 387.525 47.2449 360.061 47.5138C333.635 50.5866 306.286 56.7707 279.245 66.2966C254.317 78.6264 230.771 94.1058 209.607 112.389C191.631 132.632 176.766 154.795 165.435 178.148C157.983 201.617 154.104 224.971 153.758 247.518C156.523 268.49 162.093 287.58 169.89 304.25C179.493 318.616 190.171 330.101 201.349 338.897C212.795 345.234 223.819 349.075 233.882 350.881C243.293 350.881 251.359 349.498 258.004 347.078C263.651 343.698 267.953 339.934 270.91 336.131C273.215 331.906 274.559 327.911 275.366 324.416C276.057 316.81 276.134 312.086 276.134 312.086C276.134 312.086 289.923 315.504 303.521 314.275C316.35 313.507 329.064 317.348 329.064 317.348C329.064 317.348 328.027 322.457 325.53 331.867C323.763 336.746 321.074 342.699 317.08 349.383C312.202 355.72 305.595 362.289 297.068 368.588C287.35 373.697 275.673 377.653 262.229 379.919C248.017 379.919 232.538 377.307 216.406 371.661C200.772 363.057 185.562 350.957 171.772 335.632C160.057 317.233 150.992 295.992 145.192 272.446C143.118 247.21 145.115 220.784 151.338 194.242C161.824 167.969 176.535 142.81 194.55 120.148C216.598 99.2529 241.027 81.7376 267.031 67.7178C295.455 56.8092 324.147 49.588 352.033 45.8621C380.841 45.1707 407.882 47.2833 431.697 51.3933C455.78 57.7694 476.56 65.1058 493.576 72.4423C526.379 90.4184 544.509 102.748 544.509 102.748Z" fill="white"/>
</svg>
