<svg id="tigersvg" width="235" height="442" viewBox="0 0 235 442" fill="none" xmlns="http://www.w3.org/2000/svg">
<mask id="mask0_363_2043" style="mask-type:alpha" maskUnits="userSpaceOnUse" x="0" y="0" width="235" height="442">
<rect width="235" height="442" fill="#D9D9D9"/>
</mask>
<g mask="url(#mask0_363_2043)">
<path d="M235.869 455.152C237.946 451.093 239.927 446.794 241.714 442.301C246.642 430.078 251.763 414.715 259.638 414.425C257.899 428.435 255.483 442.108 252.391 455.2H258.334C260.314 450.514 261.86 445.248 262.971 439.595C264.759 430.464 265.339 420.416 267.803 411.961C269.155 407.323 271.039 403.41 272.827 399.4C273.455 397.999 274.083 396.598 274.711 395.149V375.196C272.296 378.626 269.349 380.269 266.498 381.863C259.107 385.97 251.522 390.608 245.724 400.608C242.439 406.357 239.879 413.556 237.366 420.706C233.308 432.204 229.298 443.653 225.24 455.152H235.869Z" fill="white"/>
<path d="M234.468 384.81C238.139 373.892 241.907 362.829 247.028 354.519C253.406 344.18 261.377 338.866 268.382 330.315C270.604 327.61 272.682 324.566 274.711 321.329V297.657C265.918 308.237 255.725 315 247.705 327.948C234.951 348.528 229.395 381.622 224.95 413.169L234.468 384.81Z" fill="white"/>
<path d="M202.002 455.152C209.249 441.721 215.771 426.406 217.123 407.275C212.679 417.565 207.606 428.532 200.891 430.416C199.683 410.947 208.331 395.584 214.176 379.834C221.665 359.64 225.578 333.504 235.675 318.43C221.761 336.209 209.49 359.205 199.731 385.873C197.944 390.801 196.205 395.97 195.432 401.864C194.031 412.976 196.349 425.247 194.32 435.972C192.823 443.895 189.344 449.209 186.252 455.2H202.002V455.152Z" fill="white"/>
<path d="M215.964 324.518C221.182 309.348 225.095 291.618 232.535 280.748C241.762 267.269 255.193 266.206 262.391 248.476C262.343 269.008 244.902 271.424 241.859 290.99C250.217 287.173 258.671 283.115 266.159 274.902C269.203 271.568 272.15 267.414 274.662 262.534V193.691C266.884 206.3 258.719 217.895 250.168 228.33C239.685 241.132 228.38 252.775 220.94 272.341C216.157 284.999 213.307 300.217 208.621 313.02C202.243 330.508 192.098 345.63 192.05 367.273C201.615 357.031 209.877 342.248 215.964 324.518Z" fill="white"/>
<path d="M166.059 455.152C171.373 447.229 176.011 438.001 178.62 425.972C179.779 420.706 180.456 415.101 181.422 409.691C183.016 400.656 185.287 392.105 188.185 384.52C183.161 387.709 179.779 396.985 176.639 405.488C170.214 422.976 163.208 439.547 155.672 455.103H166.059V455.152Z" fill="white"/>
<path d="M144.125 455.152C150.55 441.576 154.077 420.271 159.198 403.458C162.435 392.83 166.59 383.554 170.745 374.327C175.721 363.215 180.745 352.103 185.721 340.944C179.392 339.543 173.692 348.287 169.44 357.708C165.189 367.128 161.42 378.095 155.72 383.747C152.338 366.259 155.382 344.712 162.822 333.31C165.527 329.156 168.764 326.257 171.131 321.329C175.866 311.522 176.107 296.497 177.17 283.067C179.441 254.756 186.687 228.088 197.364 208.957C187.17 214.996 178.619 230.987 174.851 250.891C173.353 258.766 172.629 267.075 171.179 274.95C164.996 308.527 147.12 329.204 140.84 362.732C138.907 372.974 138.183 383.892 136.927 394.521C134.318 416.454 129.39 437.228 122.626 455.2H144.125V455.152Z" fill="white"/>
<path d="M190.262 294.082C204.272 282.052 210.795 250.698 220.505 227.267C234.419 193.691 255.241 175.912 274.71 155.186V130.644C263.502 151.273 251.328 169.245 237.366 181.226C230.022 187.507 221.906 192.628 216.978 205.189C212.679 216.155 211.712 230.745 209.442 243.983C205.818 264.902 198.62 283.212 189.296 295.096L190.262 294.082Z" fill="white"/>
<path d="M258.671 86.0045C258.768 87.5504 258.478 89.0964 258.14 90.4974C253.55 109.967 244.902 124.412 235.82 135.958C226.737 147.553 216.93 156.974 208.379 170.066C219.587 170.356 229.926 158.955 239.636 147.795C251.763 133.784 264.275 118.808 274.759 100.401V22.3784C272.875 26.6298 270.99 30.9295 269.058 35.1809C262.778 49.3362 256.352 63.7329 248.139 73.202C240.941 81.5115 231.52 88.3717 230.022 104.701C237.317 97.7441 244.661 90.7873 251.956 83.8305C254.323 81.5598 258.285 80.7385 258.671 86.0045Z" fill="white"/>
<path d="M61.6094 455.152C78.615 429.402 95.6206 403.652 112.626 377.902C112.626 405.343 108.23 432.687 100.355 455.152H106.104C110.79 444.088 114.076 429.981 116.056 415.875C119.438 391.96 120.018 366.742 123.206 342.779C125.622 324.808 129.487 307.657 134.656 292.246C140.212 275.53 147.217 260.94 154.077 246.253C175.769 199.681 196.301 150.983 215.626 100.45C192.63 132.432 171.469 170.839 156.106 217.653C153.498 225.624 150.985 233.886 147.7 240.746C144.27 247.799 140.115 253.162 136.106 258.814C129.39 268.235 122.917 278.912 118.617 292.825C114.414 306.401 112.53 322.247 109.148 336.692C97.2149 387.757 68.8561 415.102 49.29 455.103H61.6094V455.152Z" fill="white"/>
<path d="M257.367 -13.9517C238.96 20.6392 216.882 47.4037 192.968 63.7813C202.872 46.7274 210.36 24.0693 214.273 -0.81103C206.543 -1.43908 199.586 9.33436 195.287 22.2335C190.987 35.1326 188.668 50.1575 185.383 64.1678C172.484 118.47 145.526 153.109 126.491 199.585C113.689 230.794 104.316 267.8 89.4848 295.193C83.4942 306.304 76.634 315.677 71.3197 328.044C66.0055 340.412 62.2372 357.031 63.9764 372.974C95.9102 305.87 116.684 264.225 145.381 191.565C165.962 139.485 190.89 94.1691 219.152 59.2883C237.801 36.2438 258.864 15.4216 274.566 -13.9517H257.367Z" fill="white"/>
<path d="M20.7378 455.152C24.9892 445.344 29.1923 435.537 33.4437 425.73C39.4343 411.816 45.4732 397.951 51.4638 384.037C51.6571 383.602 51.8503 383.168 51.947 382.636C52.2851 380.704 51.2223 378.675 50.2077 378.723C49.1932 378.723 48.2753 380.076 47.454 381.332C33.2988 403.41 20.1581 428.146 8.32178 455.152H20.7378Z" fill="white"/>
<path d="M170.793 -13.9517C167.315 -5.25564 164.416 4.74481 162 14.4554C155.672 39.7705 148.811 68.7091 135.381 77.6467C142.483 47.1139 149.584 16.5811 156.638 -13.9517H140.019C139.777 -12.599 139.536 -11.1979 139.294 -9.84522C134.849 16.4845 131.951 44.2635 124.704 68.0327C119.921 83.7822 113.448 97.0678 107.457 110.982C93.4466 143.302 81.6587 179.342 72.4795 217.943C86.0067 186.492 99.7754 154.558 117.264 132.19C127.168 119.484 138.135 110.015 147.169 94.9421C163.836 67.1148 171.518 24.7457 181.808 -14H170.793V-13.9517Z" fill="white"/>
<path d="M98.4709 206.203C94.5576 229.393 85.4751 247.654 75.8129 262.679C66.1506 277.704 55.5221 290.507 46.826 307.705C31.0282 338.77 22.3322 382.202 6.00293 412.155C17.7909 338.238 44.1689 274.032 78.1801 236.446C86.2964 227.46 95.4273 218.812 99.5821 202.193" fill="white"/>
<path d="M-18.9259 455.152C-17.6215 453.074 -16.3654 450.997 -15.061 448.871C-9.167 438.967 -3.03145 425.923 -3.94937 410.657L-4.23925 405.971C-9.69844 427.373 -21.7763 441.19 -33.7575 439.692L-19.1191 373.65C-14.8677 354.422 -10.5197 334.953 -3.9977 318.43C2.52434 301.908 11.6552 286.158 11.5103 265.095C-4.67404 300.893 -19.3124 339.591 -32.0666 380.559C-34.8203 389.4 -37.5258 398.482 -39.1684 408.386C-40.7626 417.807 -41.3424 427.759 -42.4052 437.47C-43.0333 443.46 -43.8546 449.354 -44.8208 455.152H-18.9259Z" fill="white"/>
<path d="M93.5914 -13.9517C91.4657 2.52249 90.2096 19.7213 87.0211 35.5191C80.9822 65.1823 68.4212 87.164 58.2758 111.899C41.9949 151.515 31.2215 200.116 27.5498 250.891C35.0864 238.717 37.8884 218.716 41.85 200.986C52.092 154.897 71.5615 120.209 89.3884 84.6035C103.833 55.8099 117.989 23.5862 124.994 -14H93.5914V-13.9517Z" fill="white"/>
<path d="M46.3911 -13.9517C38.5646 37.3066 24.8442 84.99 6.58248 124.267C6.14768 97.4543 18.612 77.2601 22.7668 51.7517C25.0374 37.8381 24.6993 22.8132 25.7621 8.31982C26.3418 0.734933 27.2597 -6.75333 28.6125 -13.9517H23.3465C22.6219 -11.053 22.0421 -8.05774 21.6556 -4.86919C20.5928 3.73024 20.9793 12.7162 20.3995 21.4605C18.3704 53.0561 4.79496 76.3905 -1.24396 105.86C-4.3842 121.127 -5.44705 137.698 -7.28288 153.737C-10.5681 181.758 -16.3654 208.281 -22.1145 234.659C-33.2744 285.579 -44.8208 337.707 -63.9038 377.95V407.13C-55.3044 387.274 -46.7533 367.418 -38.1538 347.611C-31.197 331.523 -24.1435 315.194 -19.3607 296.256C-16.3654 284.564 -14.288 272.003 -11.0512 260.602C-1.72707 227.798 16.3897 207.073 24.4577 172.965C28.5642 155.669 29.7236 136.152 33.5402 118.663C38.323 96.7296 46.9225 79.2409 54.7489 61.1241C64.846 37.7414 73.9285 12.6195 81.8033 -13.9517H46.3911Z" fill="white"/>
<path d="M-21.3894 -13.9515C-21.7276 -8.58892 -22.1141 -3.22635 -22.7904 1.99127C-24.3847 14.4073 -27.6215 25.7605 -31.1483 36.5339C-41.4386 68.3228 -54.4827 97.4545 -64 129.823V151.467C-55.159 129.727 -46.3664 107.938 -37.5254 86.198C-33.8537 89.5798 -36.0277 100.595 -38.5399 106.924C-49.1201 133.736 -57.7195 163.641 -64 195.43V223.982C-59.652 207.266 -55.3523 190.551 -51.0043 173.835C-46.463 156.249 -41.8251 138.471 -35.4963 123.301C-28.9259 107.6 -20.6164 94.8457 -14.9157 77.8401C-9.50479 61.7524 -6.79934 42.7661 -3.12768 24.8909C-0.325617 11.412 3.00786 -1.58377 6.92108 -13.9032H-21.3894V-13.9515Z" fill="white"/>
</g>
</svg>
