<svg width="235" height="442" viewBox="0 0 235 442" fill="none" xmlns="http://www.w3.org/2000/svg">
<path fill-rule="evenodd" clip-rule="evenodd" d="M0 28.5579V0H3.80811C2.98145 1.81561 2.52539 3.80344 2.52539 5.88712C2.52539 14.4653 10.252 21.4194 19.7837 21.4194C29.3149 21.4194 37.0415 14.4653 37.0415 5.88712C37.0415 3.80344 36.5854 1.81561 35.7588 0H65.4478C67.1655 1.86075 68.7705 3.82669 70.2529 5.88712C58.9746 21.5651 40.5718 31.7742 19.7842 31.7742C12.8672 31.7742 6.21436 30.6439 0 28.5579ZM0 73.1328V44.6414C5.48779 48.585 10.3066 53.4013 14.2529 58.8871C10.3066 64.373 5.48779 69.1892 0 73.1328ZM0 122.686V83.0882C8.12842 79.1858 17.2368 76.9998 26.8564 76.9998C47.644 76.9998 66.0469 87.2089 77.3252 102.887C66.0469 118.565 47.644 128.774 26.8564 128.774C17.2368 128.774 8.12842 126.588 0 122.686ZM0 352.829C2.02148 353.027 4.07178 353.129 6.14551 353.129C26.9331 353.129 45.3364 342.92 56.6147 327.242C45.3364 311.564 26.9331 301.355 6.14551 301.355C4.07178 301.355 2.02148 301.456 0 301.655V312.723C1.90918 312.068 3.98096 311.71 6.146 311.71C15.6772 311.71 23.4038 318.664 23.4038 327.242C23.4038 335.82 15.6772 342.774 6.146 342.774C3.98096 342.774 1.90918 342.415 0 341.76V352.829ZM0 390.291V375.483C2.27002 377.782 4.36133 380.258 6.25293 382.887C4.36133 385.516 2.27002 387.992 0 390.291ZM0 424.266V402.798C9.23633 394.797 20.856 389.473 33.6514 388.036C24.5825 383.508 16.7769 376.826 10.9033 368.661C22.1816 352.983 40.585 342.774 61.3721 342.774C82.1602 342.774 100.563 352.983 111.841 368.661C101.849 382.552 86.2637 392.149 68.3828 394.157C77.4517 398.686 85.2573 405.368 91.1309 413.532C87.7852 418.184 83.812 422.353 79.3354 425.918C81.3745 425.716 83.4419 425.613 85.5342 425.613C101.75 425.613 116.515 431.825 127.579 442H99.1885C96.0317 438.33 91.0894 435.968 85.5337 435.968C79.978 435.968 75.0356 438.33 71.8789 442H43.4893C44.5776 440.999 45.7021 440.036 46.8604 439.114C44.8213 439.316 42.7539 439.419 40.6621 439.419C25.1123 439.419 10.897 433.707 0 424.266ZM235 422.995C225.606 417.287 214.579 414 202.784 414C181.996 414 163.593 424.209 152.315 439.887C152.83 440.603 153.359 441.307 153.904 442H185.684C185.579 441.309 185.525 440.604 185.525 439.887C185.525 431.309 193.252 424.355 202.784 424.355C212.315 424.355 220.042 431.309 220.042 439.887C220.042 440.604 219.988 441.309 219.884 442H235V422.995ZM235 356.741C233.514 356.635 232.014 356.581 230.501 356.581C209.714 356.581 191.311 366.79 180.032 382.468C191.311 398.146 209.714 408.355 230.501 408.355C232.014 408.355 233.514 408.301 235 408.195V397.467C233.565 397.815 232.057 398 230.501 398C220.969 398 213.243 391.046 213.243 382.468C213.243 373.89 220.969 366.936 230.501 366.936C232.057 366.936 233.565 367.121 235 367.469V356.741ZM235 289.577V323.487C225.629 329.156 214.639 332.419 202.887 332.419C182.1 332.419 163.696 322.21 152.418 306.532C163.696 290.854 182.1 280.645 202.887 280.645C206.896 280.645 210.815 281.025 214.612 281.75C204.913 277.224 196.577 270.266 190.387 261.661C193.338 257.558 196.778 253.829 200.622 250.56C197.861 250.935 195.042 251.129 192.179 251.129C171.391 251.129 152.988 240.92 141.709 225.242C152.988 209.564 171.391 199.355 192.179 199.355C208.777 199.355 223.855 205.864 235 216.469V234.015C234.16 234.815 233.297 235.591 232.413 236.343C233.27 236.227 234.132 236.128 235 236.046V247.046C228.351 249.204 223.597 254.933 223.597 261.661C223.597 268.39 228.351 274.119 235 276.277V287.276C233.015 287.09 231.057 286.811 229.13 286.444C231.148 287.385 233.107 288.432 235 289.577ZM235 136.11C232.569 138.776 229.909 141.23 227.05 143.439C229.649 143.003 232.302 142.729 235 142.626V153.085C226.606 154.138 220.146 160.624 220.146 168.468C220.146 176.312 226.606 182.798 235 183.85V194.309C215.202 193.556 197.776 183.538 186.935 168.468C190.456 163.574 194.671 159.212 199.436 155.528C196.068 156.093 192.609 156.387 189.082 156.387C168.294 156.387 149.891 146.178 138.613 130.5C149.891 114.822 168.294 104.613 189.082 104.613C207.273 104.613 223.638 112.431 235 124.89V136.11ZM235 116.073V124.217C233.881 122.905 232.815 121.547 231.807 120.145C232.815 118.743 233.881 117.385 235 116.073ZM176.358 0C187.537 13.0736 204.048 21.4514 222.522 21.7651C218.197 25.264 214.35 29.3318 211.096 33.8549C217.218 42.3645 225.438 49.263 235 53.7924V7.54697C231.959 9.95731 227.968 11.4194 223.598 11.4194C215.648 11.4194 208.954 6.58224 206.951 0H176.358ZM175.737 0C177.58 1.96512 179.296 4.05011 180.873 6.24197C177.619 10.765 173.772 14.8328 169.446 18.3317C189.793 18.6767 207.757 28.8024 218.841 44.2097C214.344 50.4607 208.715 55.8423 202.253 60.054C208.909 57.619 216.099 56.2902 223.599 56.2902C227.493 56.2902 231.304 56.6485 235 57.334V70.5175C231.959 68.1071 227.968 66.6451 223.598 66.6451C214.066 66.6451 206.34 73.5991 206.34 82.1773C206.34 90.7555 214.066 97.7096 223.598 97.7096C227.968 97.7096 231.959 96.2475 235 93.8372V107.021C231.304 107.706 227.493 108.064 223.599 108.064C202.811 108.064 184.408 97.8552 173.129 82.1773C177.626 75.9263 183.255 70.5447 189.717 66.3329C183.061 68.768 175.872 70.0968 168.372 70.0968C147.584 70.0968 129.181 59.8876 117.903 44.2097C121.157 39.6867 125.003 35.6188 129.329 32.12C108.983 31.775 91.0181 21.6493 79.9346 6.24197C81.5112 4.05011 83.2275 1.96512 85.0698 0H114.595C113.663 1.91025 113.145 4.0217 113.145 6.24197C113.145 14.8202 120.872 21.7742 130.403 21.7742C139.935 21.7742 147.661 14.8202 147.661 6.24197C147.661 4.0217 147.144 1.91025 146.211 0H175.737ZM0 265.122V249.289C1.70605 246.88 2.69434 244.02 2.69434 240.952C2.69434 237.883 1.70605 235.023 0 232.614V216.781C14.6899 220.309 27.3486 229.056 35.9058 240.952C27.3486 252.847 14.6899 261.594 0 265.122ZM0 199.537C0.66748 198.703 1.31348 197.852 1.93799 196.984C1.31348 196.116 0.66748 195.265 0 194.431V199.537ZM0 176.106C16.1543 173.189 30.1362 164.027 39.3569 151.21C30.1362 138.392 16.1543 129.23 0 126.313V139.325C3.7583 142.174 6.146 146.441 6.146 151.21C6.146 155.978 3.7583 160.245 0 163.094V176.106ZM14.354 54.5645C25.6323 38.8865 44.0356 28.6774 64.8232 28.6774C85.6108 28.6774 104.014 38.8865 115.292 54.5645C104.014 70.2424 85.6108 80.4516 64.8232 80.4516C44.0356 80.4516 25.6323 70.2424 14.354 54.5645ZM82.0811 54.5645C82.0811 63.1427 74.3545 70.0967 64.8232 70.0967C55.2915 70.0967 47.5649 63.1427 47.5649 54.5645C47.5649 45.9862 55.2915 39.0322 64.8232 39.0322C74.3545 39.0322 82.0811 45.9862 82.0811 54.5645ZM35.0649 140.855C46.3433 125.177 64.7461 114.968 85.5342 114.968C106.321 114.968 124.725 125.177 136.003 140.855C124.725 156.533 106.321 166.742 85.5342 166.742C64.7461 166.742 46.3433 156.533 35.0649 140.855ZM102.792 140.855C102.792 149.433 95.0649 156.387 85.5337 156.387C76.0024 156.387 68.2754 149.433 68.2754 140.855C68.2754 132.277 76.0024 125.323 85.5337 125.323C95.0649 125.323 102.792 132.277 102.792 140.855ZM44.1138 102.887C44.1138 111.465 36.3872 118.419 26.856 118.419C17.3242 118.419 9.59766 111.465 9.59766 102.887C9.59766 94.3088 17.3242 87.3547 26.856 87.3547C36.3872 87.3547 44.1138 94.3088 44.1138 102.887ZM185.63 44.2097C185.63 52.7879 177.903 59.7419 168.372 59.7419C158.84 59.7419 151.114 52.7879 151.114 44.2097C151.114 35.6314 158.84 28.6774 168.372 28.6774C177.903 28.6774 185.63 35.6314 185.63 44.2097ZM189.082 146.032C198.613 146.032 206.339 139.078 206.339 130.5C206.339 121.922 198.613 114.968 189.082 114.968C179.55 114.968 171.823 121.922 171.823 130.5C171.823 139.078 179.55 146.032 189.082 146.032ZM130.404 66.6453C109.616 66.6453 91.2129 76.8544 79.9346 92.5324C91.2129 108.21 109.616 118.419 130.404 118.419C151.191 118.419 169.594 108.21 180.873 92.5324C169.594 76.8544 151.191 66.6453 130.404 66.6453ZM130.403 108.065C139.935 108.065 147.661 101.111 147.661 92.5324C147.661 83.9541 139.935 77.0001 130.403 77.0001C120.872 77.0001 113.145 83.9541 113.145 92.5324C113.145 101.111 120.872 108.065 130.403 108.065ZM49.9424 218.507C45.6167 222.006 41.77 226.074 38.5161 230.597C49.7944 246.275 68.1973 256.484 88.9854 256.484C96.4844 256.484 103.674 255.155 110.33 252.72C103.868 256.932 98.2388 262.314 93.7422 268.564C105.021 284.242 123.424 294.452 144.211 294.452C164.999 294.452 183.402 284.242 194.68 268.564C183.402 252.887 164.999 242.677 144.211 242.677C136.712 242.677 129.522 244.006 122.867 246.441C129.328 242.229 134.958 236.848 139.454 230.597C128.371 215.19 110.406 205.064 90.0601 204.719C94.3857 201.22 98.2324 197.152 101.486 192.629C90.208 176.951 71.8047 166.742 51.0176 166.742C30.2295 166.742 11.8267 176.951 0.54834 192.629C11.6318 208.036 29.5962 218.162 49.9424 218.507ZM88.9849 246.129C98.5161 246.129 106.243 239.175 106.243 230.597C106.243 222.018 98.5161 215.064 88.9849 215.064C79.4531 215.064 71.7266 222.018 71.7266 230.597C71.7266 239.175 79.4531 246.129 88.9849 246.129ZM68.2749 192.629C68.2749 201.207 60.5483 208.161 51.0171 208.161C41.4854 208.161 33.7588 201.207 33.7588 192.629C33.7588 184.051 41.4854 177.097 51.0171 177.097C60.5483 177.097 68.2749 184.051 68.2749 192.629ZM161.468 268.565C161.468 277.143 153.742 284.097 144.21 284.097C134.679 284.097 126.952 277.143 126.952 268.565C126.952 259.986 134.679 253.032 144.21 253.032C153.742 253.032 161.468 259.986 161.468 268.565ZM59.2251 316.887C70.5034 301.209 88.9062 291 109.694 291C130.481 291 148.885 301.209 160.163 316.887C156.817 321.538 152.844 325.708 148.368 329.273C150.406 329.071 152.474 328.968 154.566 328.968C175.354 328.968 193.757 339.177 205.035 354.855C193.757 370.533 175.354 380.742 154.566 380.742L154.326 380.741C166.494 384.986 176.937 392.909 184.324 403.177C173.046 418.855 154.643 429.064 133.855 429.064C113.067 429.064 94.6646 418.855 83.3862 403.177C94.6646 387.499 113.067 377.29 133.855 377.29L133.964 377.29L134.096 377.291C121.928 373.046 111.484 365.124 104.097 354.855C107.443 350.204 111.417 346.034 115.893 342.469C113.854 342.671 111.786 342.774 109.694 342.774C88.9062 342.774 70.5034 332.565 59.2251 316.887ZM126.952 316.887C126.952 325.466 119.225 332.42 109.694 332.42C100.163 332.42 92.436 325.466 92.436 316.887C92.436 308.309 100.163 301.355 109.694 301.355C119.225 301.355 126.952 308.309 126.952 316.887ZM154.566 370.387C164.097 370.387 171.824 363.433 171.824 354.855C171.824 346.277 164.097 339.323 154.566 339.323C145.035 339.323 137.308 346.277 137.308 354.855C137.308 363.433 145.035 370.387 154.566 370.387ZM151.113 403.177C151.113 411.756 143.387 418.71 133.855 418.71C124.324 418.71 116.597 411.756 116.597 403.177C116.597 394.599 124.324 387.645 133.855 387.645C143.387 387.645 151.113 394.599 151.113 403.177ZM0.54834 278.919C11.8267 263.242 30.2295 253.032 51.0176 253.032C71.8047 253.032 90.208 263.242 101.486 278.919C90.208 294.597 71.8047 304.807 51.0176 304.807C30.2295 304.807 11.8267 294.597 0.54834 278.919ZM68.2749 278.919C68.2749 287.498 60.5483 294.452 51.0171 294.452C41.4854 294.452 33.7588 287.498 33.7588 278.919C33.7588 270.341 41.4854 263.387 51.0171 263.387C60.5483 263.387 68.2749 270.341 68.2749 278.919ZM209.436 225.242C209.436 233.82 201.709 240.774 192.178 240.774C182.646 240.774 174.92 233.82 174.92 225.242C174.92 216.664 182.646 209.71 192.178 209.71C201.709 209.71 209.436 216.664 209.436 225.242ZM220.145 306.532C220.145 315.111 212.418 322.065 202.887 322.065C193.355 322.065 185.629 315.111 185.629 306.532C185.629 297.954 193.355 291 202.887 291C212.418 291 220.145 297.954 220.145 306.532ZM93.7417 182.274C105.02 166.596 123.423 156.387 144.211 156.387C164.998 156.387 183.401 166.596 194.68 182.274C183.401 197.952 164.998 208.161 144.211 208.161C123.423 208.161 105.02 197.952 93.7417 182.274ZM161.468 182.274C161.468 190.853 153.741 197.807 144.21 197.807C134.678 197.807 126.952 190.853 126.952 182.274C126.952 173.696 134.678 166.742 144.21 166.742C153.741 166.742 161.468 173.696 161.468 182.274ZM61.3721 384.194C70.9033 384.194 78.6299 377.24 78.6299 368.661C78.6299 360.083 70.9033 353.129 61.3721 353.129C51.8408 353.129 44.1138 360.083 44.1138 368.661C44.1138 377.24 51.8408 384.194 61.3721 384.194ZM57.9199 413.532C57.9199 422.11 50.1934 429.064 40.6616 429.064C31.1304 429.064 23.4038 422.11 23.4038 413.532C23.4038 404.954 31.1304 398 40.6616 398C50.1934 398 57.9199 404.954 57.9199 413.532Z" fill="white"/>
</svg>
