<svg width="236" height="442" viewBox="0 0 236 442" fill="none" xmlns="http://www.w3.org/2000/svg">
<mask id="mask0_361_1913" style="mask-type:alpha" maskUnits="userSpaceOnUse" x="0" y="0" width="236" height="442">
<rect x="0.314941" width="235" height="442" fill="#D9D9D9"/>
</mask>
<g mask="url(#mask0_361_1913)">
<path fill-rule="evenodd" clip-rule="evenodd" d="M72.823 38.6774C52.0354 38.6774 33.6323 48.8865 22.354 64.5645C33.6323 80.2424 52.0354 90.4516 72.823 90.4516C93.6106 90.4516 112.014 80.2424 123.292 64.5645C112.014 48.8865 93.6106 38.6774 72.823 38.6774ZM72.8231 80.0967C82.3544 80.0967 90.0811 73.1427 90.0811 64.5645C90.0811 55.9862 82.3544 49.0322 72.8231 49.0322C63.2917 49.0322 55.565 55.9862 55.565 64.5645C55.565 73.1427 63.2917 80.0967 72.8231 80.0967Z" fill="white"/>
<path fill-rule="evenodd" clip-rule="evenodd" d="M27.784 -10C6.99634 -10 -11.4068 0.209171 -22.6851 15.8871C-11.4068 31.5651 6.99634 41.7742 27.784 41.7742C48.5716 41.7742 66.9747 31.5651 78.253 15.8871C66.9747 0.209171 48.5716 -10 27.784 -10ZM27.7835 31.4194C37.3149 31.4194 45.0416 24.4653 45.0416 15.8871C45.0416 7.30888 37.3149 0.354845 27.7835 0.354845C18.2521 0.354845 10.5254 7.30888 10.5254 15.8871C10.5254 24.4653 18.2521 31.4194 27.7835 31.4194Z" fill="white"/>
<path fill-rule="evenodd" clip-rule="evenodd" d="M93.5339 124.968C72.7463 124.968 54.3432 135.177 43.0649 150.855C54.3432 166.533 72.7463 176.742 93.5339 176.742C114.322 176.742 132.725 166.533 144.003 150.855C132.725 135.177 114.322 124.968 93.5339 124.968ZM93.5337 166.387C103.065 166.387 110.792 159.433 110.792 150.855C110.792 142.277 103.065 135.323 93.5337 135.323C84.0023 135.323 76.2756 142.277 76.2756 150.855C76.2756 159.433 84.0023 166.387 93.5337 166.387Z" fill="white"/>
<path fill-rule="evenodd" clip-rule="evenodd" d="M34.8562 86.9998C14.0686 86.9998 -4.33453 97.2089 -15.6128 112.887C-4.33453 128.565 14.0686 138.774 34.8562 138.774C55.6438 138.774 74.047 128.565 85.3252 112.887C74.047 97.2089 55.6438 86.9998 34.8562 86.9998ZM34.8558 128.419C44.3871 128.419 52.1138 121.465 52.1138 112.887C52.1138 104.309 44.3871 97.3547 34.8558 97.3547C25.3244 97.3547 17.5977 104.309 17.5977 112.887C17.5977 121.465 25.3244 128.419 34.8558 128.419Z" fill="white"/>
<path fill-rule="evenodd" clip-rule="evenodd" d="M-28.216 43C-49.0037 43 -67.4068 53.2092 -78.6851 68.8871C-67.4068 84.5651 -49.0037 94.7742 -28.216 94.7742C-7.42843 94.7742 10.9747 84.5651 22.253 68.8871C10.9747 53.2092 -7.42843 43 -28.216 43ZM-28.2165 84.4195C-18.6851 84.4195 -10.9584 77.4655 -10.9584 68.8872C-10.9584 60.309 -18.6851 53.355 -28.2165 53.355C-37.7479 53.355 -45.4746 60.309 -45.4746 68.8872C-45.4746 77.4655 -37.7479 84.4195 -28.2165 84.4195Z" fill="white"/>
<path fill-rule="evenodd" clip-rule="evenodd" d="M176.372 28.3226C155.584 28.3226 137.181 38.5317 125.903 54.2097C137.181 69.8876 155.584 80.0968 176.372 80.0968C197.159 80.0968 215.563 69.8876 226.841 54.2097C215.563 38.5317 197.159 28.3226 176.372 28.3226ZM176.372 69.7419C185.903 69.7419 193.63 62.7879 193.63 54.2097C193.63 45.6314 185.903 38.6774 176.372 38.6774C166.841 38.6774 159.114 45.6314 159.114 54.2097C159.114 62.7879 166.841 69.7419 176.372 69.7419Z" fill="white"/>
<path fill-rule="evenodd" clip-rule="evenodd" d="M138.404 -9.64514C117.616 -9.64514 99.2128 0.56403 87.9346 16.242C99.2128 31.9199 117.616 42.1291 138.404 42.1291C159.191 42.1291 177.594 31.9199 188.873 16.242C177.594 0.56403 159.191 -9.64514 138.404 -9.64514ZM138.403 31.7742C147.935 31.7742 155.661 24.8202 155.661 16.242C155.661 7.66373 147.935 0.709703 138.403 0.709703C128.872 0.709703 121.145 7.66373 121.145 16.242C121.145 24.8202 128.872 31.7742 138.403 31.7742Z" fill="white"/>
<path fill-rule="evenodd" clip-rule="evenodd" d="M197.082 114.613C176.294 114.613 157.891 124.822 146.613 140.5C157.891 156.178 176.294 166.387 197.082 166.387C217.869 166.387 236.273 156.178 247.551 140.5C236.273 124.822 217.869 114.613 197.082 114.613ZM197.081 156.032C206.613 156.032 214.34 149.078 214.34 140.5C214.34 131.922 206.613 124.968 197.081 124.968C187.55 124.968 179.823 131.922 179.823 140.5C179.823 149.078 187.55 156.032 197.081 156.032Z" fill="white"/>
<path fill-rule="evenodd" clip-rule="evenodd" d="M138.404 76.6453C117.616 76.6453 99.2128 86.8544 87.9346 102.532C99.2128 118.21 117.616 128.419 138.404 128.419C159.191 128.419 177.594 118.21 188.873 102.532C177.594 86.8544 159.191 76.6453 138.404 76.6453ZM138.403 118.065C147.935 118.065 155.661 111.111 155.661 102.532C155.661 93.9541 147.935 87.0001 138.403 87.0001C128.872 87.0001 121.145 93.9541 121.145 102.532C121.145 111.111 128.872 118.065 138.403 118.065Z" fill="white"/>
<path fill-rule="evenodd" clip-rule="evenodd" d="M269.565 17.9678C248.778 17.9678 230.374 28.1769 219.096 43.8549C230.374 59.5328 248.778 69.742 269.565 69.742C290.353 69.742 308.756 59.5328 320.034 43.8549C308.756 28.1769 290.353 17.9678 269.565 17.9678ZM269.566 59.3871C279.097 59.3871 286.824 52.4331 286.824 43.8548C286.824 35.2766 279.097 28.3226 269.566 28.3226C260.034 28.3226 252.308 35.2766 252.308 43.8548C252.308 52.4331 260.034 59.3871 269.566 59.3871Z" fill="white"/>
<path fill-rule="evenodd" clip-rule="evenodd" d="M231.598 -20C210.811 -20 192.408 -9.79083 181.129 5.88712C192.408 21.5651 210.811 31.7742 231.598 31.7742C252.386 31.7742 270.789 21.5651 282.067 5.88712C270.789 -9.79083 252.386 -20 231.598 -20ZM231.598 21.4194C241.129 21.4194 248.856 14.4653 248.856 5.88711C248.856 -2.69112 241.129 -9.64515 231.598 -9.64515C222.067 -9.64515 214.34 -2.69112 214.34 5.88711C214.34 14.4653 222.067 21.4194 231.598 21.4194Z" fill="white"/>
<path fill-rule="evenodd" clip-rule="evenodd" d="M231.598 66.2902C210.811 66.2902 192.408 76.4993 181.129 92.1773C192.408 107.855 210.811 118.064 231.598 118.064C252.386 118.064 270.789 107.855 282.067 92.1773C270.789 76.4993 252.386 66.2902 231.598 66.2902ZM231.598 107.71C241.129 107.71 248.856 100.756 248.856 92.1773C248.856 83.5991 241.129 76.645 231.598 76.645C222.067 76.645 214.34 83.5991 214.34 92.1773C214.34 100.756 222.067 107.71 231.598 107.71Z" fill="white"/>
<path fill-rule="evenodd" clip-rule="evenodd" d="M-6.56324 225.065C-27.3508 225.065 -45.754 235.274 -57.0322 250.952C-45.754 266.63 -27.3508 276.839 -6.56324 276.839C14.2244 276.839 32.6275 266.63 43.9058 250.952C32.6275 235.274 14.2244 225.065 -6.56324 225.065ZM-6.56355 266.484C2.96782 266.484 10.6945 259.53 10.6945 250.952C10.6945 242.373 2.96782 235.419 -6.56355 235.419C-16.0949 235.419 -23.8216 242.373 -23.8216 250.952C-23.8216 259.53 -16.0949 266.484 -6.56355 266.484Z" fill="white"/>
<path fill-rule="evenodd" clip-rule="evenodd" d="M-40.531 181.097C-61.3186 181.097 -79.7217 191.306 -91 206.984C-79.7217 222.662 -61.3186 232.871 -40.531 232.871C-19.7434 232.871 -1.34029 222.662 9.93798 206.984C-1.34029 191.306 -19.7434 181.097 -40.531 181.097ZM-40.5309 222.516C-30.9996 222.516 -23.2729 215.562 -23.2729 206.984C-23.2729 198.406 -30.9996 191.452 -40.5309 191.452C-50.0623 191.452 -57.789 198.406 -57.789 206.984C-57.789 215.562 -50.0623 222.516 -40.5309 222.516Z" fill="white"/>
<path fill-rule="evenodd" clip-rule="evenodd" d="M14.1457 311.355C-6.64187 311.355 -25.045 321.564 -36.3232 337.242C-25.045 352.92 -6.64187 363.129 14.1457 363.129C34.9333 363.129 53.3364 352.92 64.6146 337.242C53.3364 321.564 34.9333 311.355 14.1457 311.355ZM14.1458 352.774C23.6772 352.774 31.4039 345.82 31.4039 337.242C31.4039 328.664 23.6772 321.71 14.1458 321.71C4.61446 321.71 -3.11224 328.664 -3.11224 337.242C-3.11224 345.82 4.61446 352.774 14.1458 352.774Z" fill="white"/>
<path fill-rule="evenodd" clip-rule="evenodd" d="M-44.5311 273.387C-65.3186 273.387 -83.7217 283.596 -95 299.274C-83.7217 314.952 -65.3186 325.161 -44.5311 325.161C-23.7435 325.161 -5.34038 314.952 5.9379 299.274C-5.34038 283.596 -23.7435 273.387 -44.5311 273.387ZM-44.5309 314.807C-34.9996 314.807 -27.2729 307.853 -27.2729 299.274C-27.2729 290.696 -34.9996 283.742 -44.5309 283.742C-54.0623 283.742 -61.789 290.696 -61.789 299.274C-61.789 307.853 -54.0623 314.807 -44.5309 314.807Z" fill="white"/>
<path fill-rule="evenodd" clip-rule="evenodd" d="M96.9851 214.71C76.1975 214.71 57.7944 224.919 46.5161 240.597C57.7944 256.275 76.1975 266.484 96.9851 266.484C117.773 266.484 136.176 256.275 147.454 240.597C136.176 224.919 117.773 214.71 96.9851 214.71ZM96.9847 256.129C106.516 256.129 114.243 249.175 114.243 240.597C114.243 232.018 106.516 225.064 96.9847 225.064C87.4533 225.064 79.7266 232.018 79.7266 240.597C79.7266 249.175 87.4533 256.129 96.9847 256.129Z" fill="white"/>
<path fill-rule="evenodd" clip-rule="evenodd" d="M59.0173 176.742C38.2297 176.742 19.8266 186.951 8.54834 202.629C19.8266 218.307 38.2297 228.516 59.0173 228.516C79.8049 228.516 98.2081 218.307 109.486 202.629C98.2081 186.951 79.8049 176.742 59.0173 176.742ZM59.0169 218.161C68.5483 218.161 76.275 211.207 76.275 202.629C76.275 194.051 68.5483 187.097 59.0169 187.097C49.4855 187.097 41.7588 194.051 41.7588 202.629C41.7588 211.207 49.4855 218.161 59.0169 218.161Z" fill="white"/>
<path fill-rule="evenodd" clip-rule="evenodd" d="M117.694 301C96.9065 301 78.5034 311.209 67.2251 326.887C78.5034 342.565 96.9065 352.774 117.694 352.774C138.482 352.774 156.885 342.565 168.163 326.887C156.885 311.209 138.482 301 117.694 301ZM117.694 342.42C127.225 342.42 134.952 335.466 134.952 326.887C134.952 318.309 127.225 311.355 117.694 311.355C108.163 311.355 100.436 318.309 100.436 326.887C100.436 335.466 108.163 342.42 117.694 342.42Z" fill="white"/>
<path fill-rule="evenodd" clip-rule="evenodd" d="M59.0173 263.032C38.2297 263.032 19.8266 273.242 8.54834 288.919C19.8266 304.597 38.2297 314.807 59.0173 314.807C79.8049 314.807 98.2081 304.597 109.486 288.919C98.2081 273.242 79.8049 263.032 59.0173 263.032ZM59.0169 304.452C68.5483 304.452 76.275 297.498 76.275 288.919C76.275 280.341 68.5483 273.387 59.0169 273.387C49.4855 273.387 41.7588 280.341 41.7588 288.919C41.7588 297.498 49.4855 304.452 59.0169 304.452Z" fill="white"/>
<path fill-rule="evenodd" clip-rule="evenodd" d="M200.178 209.355C179.391 209.355 160.988 219.564 149.709 235.242C160.988 250.92 179.391 261.129 200.178 261.129C220.966 261.129 239.369 250.92 250.647 235.242C239.369 219.564 220.966 209.355 200.178 209.355ZM200.178 250.774C209.709 250.774 217.436 243.82 217.436 235.242C217.436 226.664 209.709 219.71 200.178 219.71C190.647 219.71 182.92 226.664 182.92 235.242C182.92 243.82 190.647 250.774 200.178 250.774Z" fill="white"/>
<path fill-rule="evenodd" clip-rule="evenodd" d="M152.211 166.387C131.423 166.387 113.02 176.596 101.742 192.274C113.02 207.952 131.423 218.161 152.211 218.161C172.998 218.161 191.401 207.952 202.68 192.274C191.401 176.596 172.998 166.387 152.211 166.387ZM152.21 207.807C161.741 207.807 169.468 200.853 169.468 192.274C169.468 183.696 161.741 176.742 152.21 176.742C142.678 176.742 134.952 183.696 134.952 192.274C134.952 200.853 142.678 207.807 152.21 207.807Z" fill="white"/>
<path fill-rule="evenodd" clip-rule="evenodd" d="M245.404 152.58C224.616 152.58 206.213 162.79 194.935 178.468C206.213 194.146 224.616 204.355 245.404 204.355C266.192 204.355 284.595 194.146 295.873 178.468C284.595 162.79 266.192 152.58 245.404 152.58ZM245.404 194C254.935 194 262.662 187.046 262.662 178.468C262.662 169.889 254.935 162.935 245.404 162.935C235.873 162.935 228.146 169.889 228.146 178.468C228.146 187.046 235.873 194 245.404 194Z" fill="white"/>
<path fill-rule="evenodd" clip-rule="evenodd" d="M-3.11204 135.323C-23.8997 135.323 -42.3028 145.532 -53.5811 161.21C-42.3028 176.888 -23.8997 187.097 -3.11204 187.097C17.6756 187.097 36.0787 176.888 47.357 161.21C36.0787 145.532 17.6756 135.323 -3.11204 135.323ZM-3.11208 176.742C6.41929 176.742 14.146 169.788 14.146 161.21C14.146 152.631 6.41929 145.677 -3.11208 145.677C-12.6434 145.677 -20.3701 152.631 -20.3701 161.21C-20.3701 169.788 -12.6434 176.742 -3.11208 176.742Z" fill="white"/>
<path fill-rule="evenodd" clip-rule="evenodd" d="M210.887 290.645C190.099 290.645 171.696 300.854 160.418 316.532C171.696 332.21 190.099 342.419 210.887 342.419C231.675 342.419 250.078 332.21 261.356 316.532C250.078 300.854 231.675 290.645 210.887 290.645ZM210.887 332.065C220.418 332.065 228.145 325.111 228.145 316.532C228.145 307.954 220.418 301 210.887 301C201.355 301 193.629 307.954 193.629 316.532C193.629 325.111 201.355 332.065 210.887 332.065Z" fill="white"/>
<path fill-rule="evenodd" clip-rule="evenodd" d="M238.501 366.581C217.714 366.581 199.31 376.79 188.032 392.468C199.31 408.146 217.714 418.355 238.501 418.355C259.289 418.355 277.692 408.146 288.97 392.468C277.692 376.79 259.289 366.581 238.501 366.581ZM238.501 408C248.032 408 255.759 401.046 255.759 392.468C255.759 383.89 248.032 376.936 238.501 376.936C228.969 376.936 221.243 383.89 221.243 392.468C221.243 401.046 228.969 408 238.501 408Z" fill="white"/>
<path fill-rule="evenodd" clip-rule="evenodd" d="M248.856 245.774C228.068 245.774 209.665 255.983 198.387 271.661C209.665 287.339 228.068 297.548 248.856 297.548C269.643 297.548 288.046 287.339 299.325 271.661C288.046 255.983 269.643 245.774 248.856 245.774ZM248.855 287.194C258.387 287.194 266.113 280.24 266.113 271.661C266.113 263.083 258.387 256.129 248.855 256.129C239.324 256.129 231.597 263.083 231.597 271.661C231.597 280.24 239.324 287.194 248.855 287.194Z" fill="white"/>
<path fill-rule="evenodd" clip-rule="evenodd" d="M152.211 252.677C131.424 252.677 113.02 262.887 101.742 278.564C113.02 294.242 131.424 304.452 152.211 304.452C172.999 304.452 191.402 294.242 202.68 278.564C191.402 262.887 172.999 252.677 152.211 252.677ZM152.21 294.097C161.742 294.097 169.468 287.143 169.468 278.565C169.468 269.986 161.742 263.032 152.21 263.032C142.679 263.032 134.952 269.986 134.952 278.565C134.952 287.143 142.679 294.097 152.21 294.097Z" fill="white"/>
<path fill-rule="evenodd" clip-rule="evenodd" d="M69.3723 352.774C48.5847 352.774 30.1816 362.983 18.9033 378.661C30.1816 394.339 48.5847 404.548 69.3723 404.548C90.1599 404.548 108.563 394.339 119.841 378.661C108.563 362.983 90.1599 352.774 69.3723 352.774ZM69.372 394.194C78.9034 394.194 86.6301 387.24 86.6301 378.661C86.6301 370.083 78.9034 363.129 69.372 363.129C59.8406 363.129 52.1139 370.083 52.1139 378.661C52.1139 387.24 59.8406 394.194 69.372 394.194Z" fill="white"/>
<path fill-rule="evenodd" clip-rule="evenodd" d="M162.566 338.968C141.779 338.968 123.375 349.177 112.097 364.855C123.375 380.533 141.779 390.742 162.566 390.742C183.354 390.742 201.757 380.533 213.035 364.855C201.757 349.177 183.354 338.968 162.566 338.968ZM162.566 380.387C172.097 380.387 179.824 373.433 179.824 364.855C179.824 356.277 172.097 349.323 162.566 349.323C153.034 349.323 145.308 356.277 145.308 364.855C145.308 373.433 153.034 380.387 162.566 380.387Z" fill="white"/>
<path fill-rule="evenodd" clip-rule="evenodd" d="M-36.2161 367C-57.0037 367 -75.4068 377.209 -86.6851 392.887C-75.4068 408.565 -57.0037 418.774 -36.2161 418.774C-15.4285 418.774 2.97465 408.565 14.2529 392.887C2.97465 377.209 -15.4285 367 -36.2161 367ZM-36.2165 408.419C-26.6851 408.419 -18.9584 401.465 -18.9584 392.887C-18.9584 384.309 -26.6851 377.355 -36.2165 377.355C-45.7479 377.355 -53.4746 384.309 -53.4746 392.887C-53.4746 401.465 -45.7479 408.419 -36.2165 408.419Z" fill="white"/>
<path fill-rule="evenodd" clip-rule="evenodd" d="M48.6619 397.645C27.8743 397.645 9.47114 407.854 -1.80713 423.532C9.47114 439.21 27.8743 449.419 48.6619 449.419C69.4495 449.419 87.8526 439.21 99.1309 423.532C87.8526 407.854 69.4495 397.645 48.6619 397.645ZM48.6618 439.064C58.1931 439.064 65.9198 432.11 65.9198 423.532C65.9198 414.954 58.1931 408 48.6618 408C39.1304 408 31.4037 414.954 31.4037 423.532C31.4037 432.11 39.1304 439.064 48.6618 439.064Z" fill="white"/>
<path fill-rule="evenodd" clip-rule="evenodd" d="M141.855 387.29C121.068 387.29 102.664 397.499 91.3862 413.177C102.664 428.855 121.068 439.064 141.855 439.064C162.643 439.064 181.046 428.855 192.324 413.177C181.046 397.499 162.643 387.29 141.855 387.29ZM141.855 428.71C151.387 428.71 159.113 421.756 159.113 413.177C159.113 404.599 151.387 397.645 141.855 397.645C132.324 397.645 124.597 404.599 124.597 413.177C124.597 421.756 132.324 428.71 141.855 428.71Z" fill="white"/>
<path fill-rule="evenodd" clip-rule="evenodd" d="M210.784 424C189.996 424 171.593 434.209 160.315 449.887C171.593 465.565 189.996 475.774 210.784 475.774C231.572 475.774 249.975 465.565 261.253 449.887C249.975 434.209 231.572 424 210.784 424ZM210.784 465.419C220.315 465.419 228.042 458.465 228.042 449.887C228.042 441.309 220.315 434.355 210.784 434.355C201.252 434.355 193.526 441.309 193.526 449.887C193.526 458.465 201.252 465.419 210.784 465.419Z" fill="white"/>
<path fill-rule="evenodd" clip-rule="evenodd" d="M93.5339 435.613C72.7463 435.613 54.3432 445.822 43.0649 461.5C54.3432 477.178 72.7463 487.387 93.5339 487.387C114.322 487.387 132.725 477.178 144.003 461.5C132.725 445.822 114.322 435.613 93.5339 435.613ZM93.5337 477.032C103.065 477.032 110.792 470.078 110.792 461.5C110.792 452.922 103.065 445.968 93.5337 445.968C84.0023 445.968 76.2756 452.922 76.2756 461.5C76.2756 470.078 84.0023 477.032 93.5337 477.032Z" fill="white"/>
</g>
</svg>
