<svg width="100%" height="auto" viewBox="0 0 235 442" fill="none" xmlns="http://www.w3.org/2000/svg">
<path d="M3.89507 0L231.105 4.22426e-06V23.6077L46.7404 23.6077L46.7404 64.1965H3.89506L3.89507 0Z" fill="white"/>
<path d="M3.04344e-05 110.516C3.14087e-05 101.036 4.97701 92.6603 14.931 85.3893C24.8849 78.1183 38.6257 72.4119 56.1533 68.2702C73.8974 64.1285 94.3463 62.0577 117.5 62.0577C140.654 62.0577 160.994 64.1285 178.522 68.2702C196.266 72.4119 210.115 78.1183 220.069 85.3893C230.023 92.6603 235 101.036 235 110.516C235 120.088 230.023 128.509 220.069 135.78C210.115 143.051 196.266 148.711 178.522 152.761C160.994 156.903 140.654 158.974 117.5 158.974C94.3462 158.974 73.8974 156.903 56.1533 152.761C38.6257 148.711 24.8849 143.051 14.931 135.78C4.97701 128.509 2.94507e-05 120.088 3.04344e-05 110.516ZM50.3108 110.516C50.3108 115.578 53.0157 119.904 58.4254 123.493C64.0516 127.175 71.8416 129.982 81.7956 131.914C91.9659 133.939 103.867 134.952 117.5 134.952C131.349 134.952 143.25 133.939 153.204 131.914C163.158 129.982 170.84 127.175 176.25 123.493C181.876 119.904 184.689 115.578 184.689 110.516C184.689 105.546 181.876 101.22 176.25 97.5383C170.84 93.8568 163.158 91.0036 153.204 88.9788C143.25 87.046 131.349 86.0796 117.5 86.0796C103.867 86.0796 91.966 87.046 81.7956 88.9788C71.8416 91.0036 64.0516 93.8568 58.4254 97.5383C53.0157 101.22 50.3108 105.546 50.3108 110.516Z" fill="white"/>
<path d="M2.02043e-05 210.06C2.11502e-05 200.856 4.76061 192.803 14.2818 185.9C23.803 179.089 37.2192 173.751 54.5304 169.885C71.8416 166.112 92.0741 164.225 115.228 164.225C138.598 164.225 159.263 166.204 177.224 170.162C195.184 174.119 209.25 179.826 219.42 187.281C229.807 194.736 235 203.663 235 214.064C235 225.845 228.4 235.555 215.2 243.194C202 250.833 183.715 255.803 160.345 258.104V232.149C167.919 230.677 173.653 228.422 177.548 225.384C181.66 222.439 183.715 218.62 183.715 213.926C183.715 208.219 180.902 203.433 175.276 199.568C169.65 195.794 161.644 192.941 151.257 191.008C141.087 189.167 128.969 188.247 114.903 188.247C100.622 188.247 88.5037 189.213 78.5497 191.146C68.8122 193.079 61.4549 195.886 56.4779 199.568C51.5009 203.249 49.0125 207.713 49.0124 212.959C49.0124 220.138 53.1239 225.568 61.3467 229.25C69.7859 233.024 79.8481 235.37 91.5332 236.291V215.444H132.431V259.899H3.89504L3.89504 238.086L26.616 236.291C20.9899 234.45 16.1211 232.287 12.0097 229.802C8.11466 227.317 5.19339 224.418 3.24587 221.105C1.08197 217.883 1.97786e-05 214.202 2.02043e-05 210.06Z" fill="white"/>
<path d="M9.40726e-06 315.12C1.03815e-05 305.64 4.97699 297.265 14.9309 289.994C24.8849 282.723 38.6257 277.017 56.1533 272.875C73.8973 268.733 94.3462 266.662 117.5 266.662C140.654 266.662 160.994 268.733 178.522 272.875C196.266 277.017 210.115 282.723 220.069 289.994C230.023 297.265 235 305.64 235 315.12C235 324.692 230.023 333.114 220.069 340.385C210.115 347.656 196.266 353.316 178.522 357.366C160.994 361.507 140.654 363.578 117.5 363.578C94.3462 363.578 73.8973 361.507 56.1533 357.366C38.6257 353.316 24.8849 347.656 14.9309 340.385C4.97699 333.114 8.42355e-06 324.692 9.40726e-06 315.12ZM50.3108 315.12C50.3108 320.182 53.0157 324.508 58.4254 328.098C64.0516 331.779 71.8416 334.586 81.7956 336.519C91.9659 338.544 103.867 339.556 117.5 339.556C131.349 339.556 143.25 338.544 153.204 336.519C163.158 334.586 170.84 331.779 176.25 328.098C181.876 324.508 184.689 320.182 184.689 315.12C184.689 310.15 181.876 305.824 176.25 302.143C170.84 298.461 163.158 295.608 153.204 293.583C143.25 291.651 131.349 290.684 117.5 290.684C103.867 290.684 91.9659 291.651 81.7956 293.583C71.8416 295.608 64.0516 298.461 58.4254 302.143C53.0157 305.824 50.3108 310.15 50.3108 315.12Z" fill="white"/>
<path d="M0 406.657C7.09404e-07 399.755 2.70488 393.45 8.11464 387.744C13.5244 382.129 21.639 377.619 32.4586 374.214C43.2781 370.901 56.6943 369.106 72.7072 368.83L72.7072 393.956C67.2974 394.14 62.645 394.785 58.75 395.889C54.855 396.993 51.8255 398.466 49.6616 400.307C47.4977 402.148 46.4157 404.218 46.4157 406.519C46.4157 408.452 47.0649 410.155 48.3633 411.627C49.878 413.192 52.0419 414.435 54.855 415.355C57.8844 416.275 61.6713 416.736 66.2155 416.736C70.7597 416.736 74.7629 416.137 78.2251 414.941C81.9038 413.836 85.1496 412.272 87.9627 410.247C90.7758 408.222 93.3725 405.829 95.7528 403.068C98.133 400.399 100.405 397.592 102.569 394.646C108.412 386.915 116.418 380.887 126.588 376.561C136.759 372.327 150.5 370.21 167.811 370.21C182.309 370.21 194.535 371.729 204.489 374.766C214.443 377.804 222.017 381.945 227.21 387.191C232.403 392.438 235 398.282 235 404.725C235 411.535 232.295 417.518 226.885 422.672C221.692 427.918 214.01 432.06 203.84 435.097C193.669 438.226 181.335 439.929 166.837 440.205V414.665C171.165 414.573 174.952 414.02 178.197 413.008C181.443 412.088 183.932 410.891 185.663 409.419C187.61 407.946 188.584 406.335 188.584 404.587C188.801 402.93 188.26 401.365 186.961 399.893C185.663 398.512 183.715 397.362 181.119 396.441C178.522 395.613 175.168 395.199 171.057 395.199C166.945 395.199 163.267 395.659 160.021 396.579C156.991 397.592 154.286 398.926 151.906 400.583C149.742 402.332 147.578 404.31 145.414 406.519C143.467 408.82 141.519 411.259 139.572 413.836C135.677 418.806 131.024 423.408 125.615 427.642C120.421 431.968 113.497 435.419 104.841 437.996C96.1855 440.665 84.6087 442 70.1105 442C57.3435 442 45.6584 440.619 35.0552 437.858C24.4521 435.097 15.9047 431.093 9.41298 425.847C3.13766 420.601 -7.75615e-07 414.205 0 406.657Z" fill="white"/>
</svg>
