<svg width="235" height="442" viewBox="0 0 235 442" fill="none" xmlns="http://www.w3.org/2000/svg">
<path d="M21.474 126.458L0 0H13.8726L29.0755 100.986L49.4093 0H63.4719L83.8058 100.986L99.0086 0H112.881L91.4072 126.458H76.3944L56.4406 24.2076L36.4869 126.458H21.474Z" fill="white"/>
<path d="M139.982 126.458V0H153.285V55.8221H221.698V0H235V126.458H221.698V67.3839H153.285V126.458H139.982Z" fill="white"/>
<path d="M56.4406 286.397C45.7986 286.397 36.6136 283.687 28.8854 278.267C21.284 272.727 15.3929 265.08 11.2121 255.324C7.15801 245.448 5.13097 234.007 5.13097 221C5.13097 208.113 7.15801 196.792 11.2121 187.037C15.3929 177.161 21.284 169.453 28.8854 163.913C36.6136 158.373 45.7986 155.603 56.4406 155.603C67.2093 155.603 76.3944 158.373 83.9958 163.913C91.5972 169.453 97.425 177.161 101.479 187.037C105.66 196.792 107.75 208.113 107.75 221C107.75 234.007 105.66 245.448 101.479 255.324C97.425 265.08 91.5972 272.727 83.9958 278.267C76.3944 283.687 67.2093 286.397 56.4406 286.397ZM56.4406 274.474C67.7161 274.474 76.7744 269.837 83.6157 260.563C90.5837 251.169 94.0677 237.981 94.0677 221C94.0677 204.019 90.5837 190.891 83.6157 181.617C76.7744 172.223 67.7161 167.526 56.4406 167.526C45.2919 167.526 36.2335 172.223 29.2655 181.617C22.2975 190.891 18.8135 204.019 18.8135 221C18.8135 237.981 22.2975 251.169 29.2655 260.563C36.2335 269.837 45.2919 274.474 56.4406 274.474Z" fill="white"/>
<path d="M149.674 284.229V273.39H180.84V168.61H149.674V157.771H225.308V168.61H194.142V273.39H225.308V284.229H149.674Z" fill="white"/>
<path d="M13.3025 442V315.542H55.4904C69.4264 315.542 79.7517 318.553 86.4663 324.575C93.3076 330.597 96.7282 338.244 96.7282 347.518C96.7282 352.456 95.7147 356.852 93.6876 360.706C91.7873 364.439 89.2535 367.631 86.0862 370.28C83.0456 372.81 79.815 374.737 76.3944 376.061V377.145C80.4485 378.35 84.2492 380.337 87.7965 383.107C91.3439 385.756 94.1944 389.129 96.3481 393.223C98.6286 397.318 99.7688 402.075 99.7688 407.495C99.7688 413.758 98.1218 419.539 94.8279 424.838C91.5339 430.017 86.7197 434.172 80.3851 437.303C74.0506 440.434 66.1958 442 56.8207 442H13.3025ZM26.605 371.184H55.1104C64.1054 371.184 71.01 369.196 75.8243 365.222C80.6385 361.248 83.0456 355.768 83.0456 348.783C83.0456 342.038 80.7019 336.739 76.0143 332.885C71.3268 329.031 64.1687 327.104 54.5403 327.104H26.605V371.184ZM26.605 430.438H55.8705C65.499 430.438 72.9104 428.331 78.1047 424.115C83.4257 419.78 86.0862 413.878 86.0862 406.411C86.0862 398.944 83.299 393.103 77.7246 388.888C72.2769 384.552 64.8022 382.384 55.3004 382.384H26.605V430.438Z" fill="white"/>
<path d="M147.394 442V315.542H229.299V327.104H160.696V372.629H223.598V384.191H160.696V430.438H229.299V442H147.394Z" fill="white"/>
</svg>
