<svg width="auto" height="auto" viewBox="0 0 235 442" fill="none" xmlns="http://www.w3.org/2000/svg">
<path fill-rule="evenodd" clip-rule="evenodd" d="M0 323.334V337.169C22.5025 343.274 44.6918 345.595 65.6181 344.424C85.3996 339.93 102.876 332.747 117.741 323.49C130.148 312.389 139.635 300.444 146.319 288.306C150.698 275.784 152.695 263.992 152.772 253.391C152.249 249.825 151.577 246.447 150.784 243.259C152.771 243.683 154.821 244.274 156.921 245.056C162.221 248.359 167.56 253.314 172.477 260.19C176.433 268.448 179.237 278.665 180.466 290.534C179.621 303.517 176.395 317.729 170.441 332.555C161.568 347.382 149.622 361.824 134.681 375.114C116.858 386.791 96.3854 396.24 73.7616 402.923C49.9639 406.446 24.9962 406.715 0 403.657V408.526C4.58283 409.702 9.19783 410.78 13.8411 411.758C42.0344 413.678 69.9205 411.527 96.6159 405.42C121.045 395.741 142.939 382.835 161.76 367.278C177.048 349.878 188.686 331.134 196.637 311.852C200.977 292.608 201.976 274.209 199.94 257.347C195.938 243.904 190.428 232.112 183.815 222.148C190.704 226.809 197.579 233.194 204.128 241.33C210.428 252.699 215.344 266.22 218.263 281.891C218.763 299.022 216.458 317.498 211.004 336.626C202.285 355.831 189.993 374.729 174.629 392.245C156 408.185 134.528 421.898 111.251 432.653C98.4993 436.6 85.5691 439.712 72.521 442H94.3518C105.91 439.172 117.365 435.688 128.69 431.539C153.349 418.364 175.781 401.771 194.948 382.642C210.351 361.632 222.028 339.123 229.633 316.115C233.243 293.414 233.09 271.405 229.556 251.086C222.988 232.649 214.038 216.708 203.36 203.572C192.798 194.414 181.858 187.495 170.945 182.664C179.373 182.926 188.711 184.648 198.673 188.093C210.158 194.392 221.604 203.342 232.474 215.172C233.33 216.462 234.172 217.773 235 219.106V194.216C232.274 190.613 229.446 187.149 226.521 183.829C211.31 171.538 195.216 162.588 179.314 157.019C163.412 154.368 148.547 154.522 135.334 156.942C123.273 161.359 113.171 167.159 105.105 173.689C102.749 176.287 100.615 178.88 98.693 181.442C97.9108 179.403 97.2266 177.202 96.6542 174.841C96.347 168.004 97.5377 160.092 100.457 151.488C105.297 142.845 112.403 134.164 121.967 125.868C133.567 118.762 147.625 113.115 163.796 109.466C181.542 108.353 200.747 110.158 220.644 115.228C225.451 117.266 230.241 119.512 235 121.962V111.256C224.231 105.921 213.262 101.491 202.207 97.9817C178.93 94.5247 156.498 94.9088 135.833 98.7883C117.012 105.702 100.726 115.036 87.4357 126.098C76.6423 138.658 68.9218 151.718 63.9284 164.624C61.2397 177.607 60.8555 189.553 62.1231 200.115C63.0651 203.587 64.1201 206.861 65.2603 209.935C63.1086 209.309 60.8799 208.511 58.5879 207.529C52.6342 203.457 46.6806 197.619 41.1879 189.821C36.7706 180.449 33.5826 169.118 32.1998 156.02C33.0448 141.923 36.5018 126.521 42.8395 110.619C52.2501 94.7935 64.9256 79.5061 80.7124 65.4862C99.4951 53.3485 121.005 43.5538 144.628 36.7935C170.055 33.2982 196.712 33.4518 223.139 37.216C227.121 38.3432 231.075 39.5448 235 40.819V36.1988C226.671 33.5115 218.216 31.1438 209.657 29.1114C180.849 26.4611 152.079 27.9591 124.462 33.567C99.1111 42.9008 76.1799 55.6531 56.3217 71.2094C39.9971 88.9167 27.3985 108.045 18.6409 127.788C13.4938 147.723 11.8806 166.929 13.417 184.674C17.0985 199.032 22.4423 211.699 28.991 222.547C21.8473 216.479 14.8835 208.601 8.54175 198.886C4.99128 190.915 2.10291 182.095 0 172.505V224.093C1.80528 227.431 3.70675 230.655 5.69937 233.763C15.6906 244.79 26.3505 253.55 37.2238 260.143C28.1705 258.119 18.4232 254.475 8.3486 248.897C5.53093 246.679 2.74498 244.291 0 241.729V265.846C7.60471 271.999 15.4504 277.283 23.4055 281.661C39.538 287.307 55.0175 289.919 69.2294 289.919C82.6731 287.653 94.3499 283.697 104.068 278.588C107.062 276.376 109.82 274.131 112.349 271.874C112.703 273.924 112.93 276.111 113.017 278.434C112.018 284.887 109.406 292.109 104.989 299.791C98.8049 307.204 90.3161 314.387 79.5996 320.84C66.9241 325.833 52.2128 329.175 35.5811 330.25C24.0783 329.232 12.1418 326.944 0 323.334ZM0 32.1146V42.8175C5.19376 35.8201 10.7343 29.0022 16.6069 22.3893C25.8802 14.3782 35.6108 6.90539 45.7146 0L38.1973 0C25.4009 9.10319 13.146 19.1582 1.54993 30.1482C1.03053 30.8016 0.513882 31.4571 0 32.1146ZM118.005 0C114.286 0.8427 110.575 1.75032 106.873 2.72324C80.0239 14.0159 55.2874 28.8808 33.5086 46.857C20.2731 61.6251 9.07907 77.3635 0 93.7349V129.324C2.1409 118.249 5.34481 106.93 9.65567 95.5232C20.6795 75.8954 35.2371 57.0742 53.1364 39.9431C74.1086 24.8861 97.6543 12.5564 123.044 3.37621C129.04 2.07814 135.065 0.953534 141.11 0L118.005 0ZM226.18 0C229.139 0.646078 232.08 1.32515 235 2.03643V0L226.18 0ZM235 389.32V375.515C230.582 383.815 225.703 391.964 220.375 399.927C206.689 415.442 191.53 429.53 175.195 442H182.457C201.479 426.931 219.008 409.592 234.433 390.286C234.623 389.964 234.812 389.643 235 389.32Z" fill="white"/>
</svg>
