<svg width="100%" height="auto" viewBox="0 0 235 442" fill="none" xmlns="http://www.w3.org/2000/svg">
<path d="M208.022 441.954C209.463 438.132 210.837 434.081 212.077 429.849C215.495 418.334 219.048 403.862 224.51 403.589C223.304 416.787 221.628 429.667 219.483 442H223.606C224.98 437.585 226.052 432.625 226.823 427.3C228.063 418.698 228.465 409.232 230.174 401.268C231.113 396.899 232.42 393.212 233.66 389.435C234.095 388.115 234.531 386.795 234.967 385.43V366.634C233.291 369.865 231.247 371.413 229.269 372.915C224.142 376.783 218.88 381.152 214.858 390.573C212.579 395.989 210.803 402.77 209.06 409.505C206.245 420.337 203.464 431.123 200.648 441.954H208.022Z" fill="white"/>
<path d="M207.05 375.691C209.597 365.405 212.211 354.983 215.763 347.156C220.187 337.416 225.717 332.41 230.577 324.355C232.118 321.806 233.559 318.939 234.967 315.89V293.59C228.867 303.556 221.796 309.928 216.232 322.125C207.385 341.512 203.531 372.687 200.447 402.406L207.05 375.691Z" fill="white"/>
<path d="M184.528 441.954C189.555 429.302 194.08 414.876 195.018 396.853C191.935 406.547 188.416 416.878 183.757 418.653C182.919 400.312 188.918 385.84 192.974 371.003C198.168 351.98 200.883 327.358 207.887 313.159C198.235 329.907 189.723 351.57 182.953 376.692C181.713 381.334 180.506 386.204 179.97 391.756C178.998 402.224 180.607 413.783 179.199 423.887C178.16 431.35 175.747 436.357 173.602 442H184.528V441.954Z" fill="white"/>
<path d="M194.214 318.894C197.833 304.603 200.548 287.901 205.709 277.661C212.11 264.963 221.427 263.962 226.42 247.26C226.387 266.602 214.288 268.877 212.177 287.309C217.975 283.714 223.84 279.891 229.035 272.154C231.146 269.014 233.19 265.1 234.933 260.503V195.651C229.537 207.529 223.873 218.451 217.941 228.282C210.669 240.342 202.827 251.31 197.665 269.742C194.348 281.666 192.37 296.002 189.119 308.062C184.696 324.537 177.658 338.782 177.624 359.17C184.26 349.522 189.991 335.596 194.214 318.894Z" fill="white"/>
<path d="M159.594 441.954C163.28 434.491 166.498 425.798 168.307 414.466C169.112 409.505 169.581 404.226 170.251 399.129C171.357 390.618 172.932 382.563 174.943 375.418C171.458 378.421 169.112 387.16 166.933 395.169C162.476 411.644 157.616 427.254 152.388 441.909H159.594V441.954Z" fill="white"/>
<path d="M144.378 441.954C148.836 429.166 151.282 409.096 154.835 393.258C157.08 383.246 159.962 374.508 162.845 365.815C166.297 355.348 169.782 344.88 173.234 334.367C168.844 333.047 164.889 341.285 161.94 350.159C158.99 359.034 156.376 369.365 152.422 374.69C150.076 358.215 152.187 337.917 157.348 327.176C159.225 323.263 161.471 320.532 163.113 315.89C166.397 306.651 166.565 292.497 167.302 279.845C168.877 253.176 173.904 228.054 181.311 210.032C174.239 215.721 168.307 230.785 165.693 249.535C164.654 256.953 164.152 264.781 163.146 272.2C158.856 303.829 146.456 323.308 142.099 354.893C140.759 364.541 140.256 374.826 139.385 384.839C137.575 405.5 134.157 425.07 129.465 442H144.378V441.954Z" fill="white"/>
<path d="M176.384 290.222C186.103 278.89 190.628 249.353 197.364 227.28C207.016 195.651 221.46 178.903 234.967 159.378V136.259C227.191 155.692 218.746 172.622 209.06 183.909C203.966 189.825 198.336 194.649 194.917 206.482C191.935 216.813 191.264 230.557 189.689 243.027C187.176 262.733 182.182 279.982 175.714 291.178L176.384 290.222Z" fill="white"/>
<path d="M223.84 94.2071C223.907 95.6635 223.706 97.1198 223.471 98.4396C220.287 116.78 214.288 130.388 207.988 141.265C201.687 152.188 194.884 161.062 188.952 173.396C196.727 173.669 203.899 162.928 210.635 152.415C219.047 139.217 227.727 125.109 235 107.769V34.2696C233.693 38.2745 232.386 42.3249 231.045 46.3299C226.689 59.6645 222.231 73.2267 216.534 82.1468C211.54 89.9746 205.005 96.4372 203.966 111.82C209.027 105.266 214.121 98.7127 219.181 92.1592C220.824 90.0202 223.572 89.2465 223.84 94.2071Z" fill="white"/>
<path d="M87.1363 441.955C98.9333 417.697 110.73 393.44 122.527 369.183C122.527 395.033 119.477 420.792 114.015 441.955H118.003C121.254 431.533 123.533 418.243 124.907 404.954C127.253 382.427 127.655 358.67 129.867 336.097C131.542 319.167 134.224 303.01 137.81 288.492C141.664 272.746 146.523 259.001 151.282 245.166C166.33 201.294 180.573 155.419 193.979 107.815C178.026 137.943 163.347 174.124 152.69 218.224C150.88 225.733 149.137 233.515 146.858 239.978C144.479 246.623 141.597 251.674 138.815 256.999C134.156 265.874 129.666 275.931 126.683 289.039C123.767 301.827 122.46 316.755 120.114 330.362C111.836 378.467 92.1634 404.226 78.5903 441.909H87.1363V441.955Z" fill="white"/>
<path d="M222.935 0.0455067C210.166 32.6312 194.85 57.8441 178.261 73.2722C185.131 57.207 190.326 35.8624 193.04 12.4244C187.678 11.8328 182.852 21.9817 179.869 34.133C176.887 46.2844 175.278 60.4382 172.999 73.6363C164.051 124.79 145.35 157.422 132.145 201.203C123.264 230.603 116.763 265.464 106.474 291.269C102.318 301.736 97.559 310.565 93.8724 322.216C90.1859 333.867 87.5718 349.522 88.7783 364.541C110.931 301.326 125.342 262.096 145.249 193.648C159.526 144.588 176.82 101.898 196.425 69.0397C209.362 47.3311 223.974 27.716 234.866 0.0455067H222.935Z" fill="white"/>
<path d="M58.7836 441.954C61.7328 432.716 64.6485 423.477 67.5977 414.238C71.7535 401.131 75.9427 388.07 80.0985 374.963C80.2325 374.553 80.3666 374.144 80.4336 373.643C80.6682 371.822 79.9309 369.911 79.2271 369.957C78.5233 369.957 77.8865 371.231 77.3168 372.414C67.4972 393.212 58.3814 416.514 50.1705 441.954H58.7836Z" fill="white"/>
<path d="M162.878 0.0455107C160.465 8.23744 158.454 17.6582 156.779 26.8058C152.388 50.6534 147.629 77.9143 138.312 86.3338C143.239 57.5711 148.165 28.8083 153.058 0.0455107H141.53C141.362 1.31981 141.195 2.63962 141.027 3.91392C137.944 28.7173 135.933 54.8859 130.906 77.2772C127.588 92.1137 123.097 104.629 118.941 117.736C109.222 148.183 101.045 182.134 94.6771 218.497C104.061 188.869 113.612 158.787 125.745 137.715C132.615 125.746 140.223 116.826 146.49 102.627C158.052 76.4125 163.381 36.4996 170.519 0H162.878V0.0455107Z" fill="white"/>
<path d="M112.707 207.438C109.993 229.283 103.692 246.486 96.9894 260.64C90.2866 274.794 82.9135 286.854 76.881 303.056C65.9219 332.319 59.8894 373.233 48.5616 401.45C56.739 331.819 75.0377 271.335 98.6316 235.927C104.262 227.463 110.596 219.316 113.478 203.66" fill="white"/>
<path d="M31.2685 441.954C32.1734 439.997 33.0447 438.041 33.9496 436.038C38.0383 426.708 42.2946 414.42 41.6578 400.039L41.4567 395.625C37.6696 415.786 29.2911 428.802 20.9797 427.391L31.1344 365.178C34.0836 347.065 37.0999 328.724 41.6243 313.159C46.1487 297.594 52.4828 282.758 52.3823 262.915C41.1551 296.639 31.0004 333.093 22.1527 371.686C20.2424 380.014 18.3656 388.57 17.2261 397.9C16.1201 406.775 15.718 416.15 14.9807 425.298C14.545 430.941 13.9752 436.493 13.305 441.954H31.2685Z" fill="white"/>
<path d="M109.323 0.0455107C107.848 15.5647 106.977 31.7665 104.765 46.6485C100.576 74.5921 91.8619 95.2994 84.824 118.601C73.5298 155.92 66.0561 201.703 63.5091 249.535C68.7373 238.066 70.6811 219.225 73.4292 202.523C80.5342 159.105 94.0403 126.429 106.407 92.8874C116.428 65.763 126.247 35.4073 131.107 0H109.323V0.0455107Z" fill="white"/>
<path d="M76.5795 0.0455067C71.1503 48.3324 61.6323 93.2514 48.964 130.252C48.6623 104.993 57.309 85.9697 60.1912 61.9401C61.7663 48.833 61.5317 34.6792 62.269 21.0259C62.6712 13.8808 63.308 6.8266 64.2464 0.0455067H60.5933C60.0906 2.77615 59.6885 5.59781 59.4204 8.60152C58.683 16.7024 58.9511 25.1674 58.549 33.4049C57.1414 63.1689 47.724 85.1505 43.5347 112.912C41.3563 127.293 40.619 142.904 39.3455 158.013C37.0665 184.409 33.0448 209.395 29.0566 234.244C21.3149 282.212 13.3051 331.318 0.0670222 369.228V396.717C6.03252 378.012 11.9645 359.307 17.93 340.648C22.756 325.493 27.6491 310.11 30.9669 292.27C33.0448 281.256 34.4859 269.423 36.7314 258.683C43.1996 227.781 55.7673 208.257 61.3642 176.126C64.2129 159.834 65.0172 141.447 67.6648 124.972C70.9827 104.311 76.9482 87.8357 82.3775 70.7691C89.3819 48.742 95.6825 25.0764 101.145 0.0455067H76.5795Z" fill="white"/>
<path d="M0 333.229C4.15574 316.8 7.77524 299.324 9.01526 279.891C9.65202 270.152 9.65203 260.185 10.4228 250.536C11.3948 238.704 13.5061 227.827 15.6175 217.132C18.7008 201.294 21.7841 185.502 24.9009 169.664C23.5268 169.072 22.3203 172.213 21.4154 175.08C17.0586 188.551 12.6683 202.159 9.61851 218.042C6.06602 236.474 4.45736 257.409 0.50271 275.158C0.33514 275.84 0.201076 276.523 0.0335058 277.206V333.229H0Z" fill="white"/>
<path d="M29.5595 0.0457007C29.3249 5.09739 29.0568 10.1491 28.5876 15.0642C27.4816 26.7605 25.2362 37.4555 22.7897 47.6044C15.6512 77.5504 6.60238 104.993 0.000121119 135.486V155.874C6.13319 135.395 12.2327 114.869 18.3658 94.3894C20.9129 97.5751 19.4047 107.952 17.662 113.913C10.3224 139.172 4.35694 167.343 0.000121119 197.289V224.186C3.01638 208.439 5.99912 192.693 9.01538 176.946C12.1657 160.38 15.3831 143.632 19.7734 129.342C24.3313 114.551 30.0957 102.536 34.0504 86.516C37.8039 71.361 39.6807 53.4753 42.2278 36.6363C44.1716 23.9388 46.4841 11.6964 49.1987 0.0912114H29.5595V0.0457007Z" fill="white"/>
<path d="M12.9363 16.4294C14.5449 11.0591 16.2206 5.64333 17.7288 0H12.6011C12.1319 1.18328 11.6292 2.36656 11.1935 3.59535C9.08214 9.19316 7.3059 15.5647 5.49614 21.8906C3.68638 28.3077 1.84312 34.7247 0.0333608 41.1417V96.0276C2.41286 92.2047 4.25613 85.8332 4.79235 78.415C5.19452 72.5441 4.89289 66.4911 4.99343 60.5292C5.32857 43.9633 9.08214 29.3999 12.9363 16.4294Z" fill="white"/>
</svg>
