<svg width="100%" height="auto" viewBox="0 0 235 442" fill="none" xmlns="http://www.w3.org/2000/svg">
<path d="M95.3471 410.507C95.3471 418.445 93.1095 424.866 88.6344 429.769C84.068 434.594 77.2183 437.007 68.0855 437.007C66.0763 437.007 64.0214 436.89 61.9208 436.657C59.8202 436.346 57.6284 436.034 55.3451 435.723L43.8377 433.972C39.2713 433.349 34.2482 432.61 28.7685 431.754C23.2888 430.82 18.0374 429.964 13.0143 429.186C8.7219 428.641 5.79938 430.119 4.2468 433.622L3.83582 434.439L2.46589 434.205L2.46589 404.67L3.83582 404.904L4.38379 406.071C5.75372 409.573 8.5849 411.675 12.8773 412.375L54.3862 419.029C56.4867 419.34 58.633 419.613 60.8249 419.846C62.9254 420.08 65.0716 420.197 67.2635 420.197C73.3825 420.197 78.1773 418.912 81.6478 416.344C85.1183 413.698 86.8535 409.885 86.8535 404.904C86.8535 399.067 84.5246 394.358 79.8669 390.778C75.1178 387.198 68.7704 384.785 60.8249 383.54L13.0143 375.835C8.53924 375.135 5.57106 376.575 4.10981 380.155L3.83582 380.855L2.46589 380.622L2.46589 364.979L3.83581 365.212L4.38379 366.38C5.75371 369.882 8.5849 371.983 12.8773 372.683L62.0578 380.388C72.0126 381.945 80.0495 385.252 86.1685 390.311C92.2876 395.37 95.3471 402.102 95.3471 410.507Z" fill="white"/>
<path d="M92.8812 374.961L91.5113 374.727L89.8673 370.641C88.6801 367.84 86.7165 365.466 83.9767 363.52L52.1943 341.573L11.6444 355.699C8.08259 356.944 5.66239 359.045 4.38379 362.003L3.83581 363.404L2.46589 363.17L2.46589 333.285L3.83581 333.518L4.65777 335.62C5.84504 338.733 8.12826 339.666 11.5074 338.421L38.906 328.849L10.6855 309.587C7.9456 307.874 5.93637 308.341 4.65777 310.987L3.83581 312.622L2.46588 312.505L2.46588 296.161L3.83581 296.395L4.93176 298.963C5.57105 300.52 6.34735 301.882 7.26064 303.049C8.08259 304.217 9.26986 305.345 10.8224 306.435L42.1938 327.798L83.0177 313.556C86.3969 312.31 88.8627 310.248 90.4153 307.369L91.5113 305.15L92.8812 305.501V334.802L91.5113 334.569L90.8263 333.285C89.1824 330.483 86.6252 329.666 83.1547 330.833L55.7561 340.406L83.8397 359.785C85.2096 360.641 86.4882 360.952 87.6755 360.719C88.8627 360.407 89.7304 359.551 90.2783 358.15L91.5113 354.998L92.8812 355.232V374.961Z" fill="white"/>
<path d="M95.3471 232.334C95.3471 239.65 93.7945 245.993 90.6893 251.363C87.4928 256.733 82.9264 260.896 76.99 263.854C70.9623 266.733 63.7017 268.173 55.2081 268.173C47.6279 268.173 40.5042 267.084 33.8373 264.904C27.1703 262.647 21.3252 259.495 16.3022 255.449C11.1878 251.324 7.21497 246.498 4.38378 240.973C1.46127 235.369 7.34347e-06 229.221 7.00015e-06 222.528C6.79655e-06 218.559 0.502313 214.823 1.50693 211.321C2.51154 207.741 4.20112 204.122 6.57566 200.464L27.6726 203.266V204.433L13.1513 208.402C9.2242 209.414 6.53 211.01 5.06874 213.189C3.51616 215.29 2.73986 218.092 2.73986 221.594C2.73986 227.587 4.97741 232.84 9.45252 237.354C13.8363 241.79 20.001 245.253 27.9466 247.744C35.8008 250.234 44.9337 251.479 55.3451 251.479C66.7612 251.479 75.8484 249.611 82.6067 245.876C89.2737 242.062 92.6072 236.653 92.6072 229.649C92.6072 226.614 91.9222 224.162 90.5523 222.294C89.1824 220.349 87.0818 218.637 84.2506 217.158L67.8115 208.519V207.352L88.6344 210.153C90.6436 213.189 92.2419 216.457 93.4292 219.96C94.7078 223.384 95.3471 227.509 95.3471 232.334Z" fill="white"/>
<path d="M92.8812 205.863L91.5113 205.513L90.1413 201.31C89.1367 198.197 86.8992 195.94 83.4287 194.54L2.46588 159.051L2.46588 149.595L83.2917 138.621C86.4882 138.31 88.7714 136.831 90.1413 134.185L91.5113 131.15L92.8812 131.383V160.685L91.5113 160.335L90.4153 157.766C89.228 155.043 87.0362 153.914 83.8397 154.381L61.7838 157.066L61.7838 181.932L83.9766 191.738C85.4379 192.36 86.7165 192.477 87.8124 192.088C88.9084 191.699 89.6847 190.882 90.1413 189.636L91.5113 186.018L92.8812 186.251V205.863ZM17.3981 162.436L59.0439 180.764V157.416L17.3981 162.436Z" fill="white"/>
<path d="M95.347 100.535C95.347 104.582 94.7534 108.59 93.5661 112.559C92.3789 116.45 90.6893 119.758 88.4974 122.482L68.3595 119.68V118.513L79.5929 115.127C84.068 113.804 87.3558 112.092 89.4564 109.991C91.5569 107.812 92.6072 104.66 92.6072 100.535C92.6072 95.9431 91.0089 92.3241 87.8124 89.678C84.6159 86.9541 80.7801 85.5921 76.305 85.5921C73.9305 85.5921 71.6929 85.9034 69.5924 86.5261C67.4918 87.1487 65.2999 88.355 63.0167 90.145C60.7335 91.8572 58.1763 94.4254 55.3451 97.8498C51.7833 102.052 48.4498 105.282 45.3446 107.539C42.2395 109.796 39.18 111.353 36.1661 112.209C33.1523 113.065 30.0928 113.493 26.9876 113.493C21.5992 113.493 16.8958 112.326 12.8773 109.991C8.76755 107.656 5.61671 104.426 3.42482 100.301C1.14161 96.0987 2.71463e-07 91.3513 0 86.0591C-1.99605e-07 82.1678 0.6393 78.3154 1.9179 74.5019C3.10517 70.6105 4.74909 67.3807 6.84964 64.8125L26.0286 68.0812V69.2486L16.9871 71.5834C12.1467 72.8286 8.58488 74.4629 6.30167 76.4864C3.92713 78.5099 2.73985 81.5841 2.73985 85.7089C2.73986 89.7559 4.10979 93.1802 6.84965 95.982C9.5895 98.7059 13.2426 100.068 17.8091 100.068C21.7362 100.068 25.298 99.1729 28.4945 97.3829C31.691 95.5928 35.2528 92.363 39.18 87.6935C44.477 81.5452 49.2718 77.3036 53.5642 74.9688C57.7653 72.5562 62.3318 71.3499 67.2635 71.3499C73.1085 71.3499 78.1316 72.5951 82.3327 75.0856C86.4425 77.576 89.639 81.0393 91.9222 85.4754C94.2054 89.8337 95.347 94.8535 95.347 100.535Z" fill="white"/>
<path d="M92.8812 66.6584L91.5112 66.4249L90.6893 64.2069C89.4107 61.4051 87.1275 59.7708 83.8396 59.3038L44.9337 52.9999C40.0932 52.2216 34.7505 51.4044 28.9055 50.5483C22.9691 49.6922 17.3524 48.8751 12.0554 48.0968C8.40223 47.552 5.89069 48.7583 4.52076 51.7157L3.8358 52.8831L2.46587 52.6496L2.46587 0L26.3026 2.91849V4.08589L13.6993 6.42069C10.7768 6.96547 8.63055 7.9383 7.26062 9.33918C5.89069 10.7401 5.20572 12.8025 5.20572 15.5264L5.20572 30.8193L44.9337 37.24V26.4999C44.9337 22.9977 43.2897 20.3516 40.0019 18.5616L33.1523 14.7092V13.5418L59.3179 17.7444V18.9118L53.8382 20.3127C49.7284 21.3245 47.6735 23.6593 47.6735 27.3171L47.6735 37.7069C54.3405 38.7187 61.3728 39.8083 68.7704 40.9757C76.168 42.1431 83.2917 43.1937 90.1413 44.1276V25.3325C90.1413 22.9199 89.5933 20.8575 88.4974 19.1453C87.3101 17.4331 85.3466 15.7599 82.6067 14.1255L69.0444 6.30394V5.13654L92.8812 9.80614V66.6584Z" fill="white"/>
<path d="M235 420.053C235 424.1 234.406 428.108 233.219 432.077C232.032 435.968 230.342 439.276 228.15 442L208.012 439.198V438.031L219.246 434.645C223.721 433.322 227.009 431.61 229.109 429.509C231.21 427.33 232.26 424.178 232.26 420.053C232.26 415.461 230.662 411.842 227.465 409.196C224.269 406.472 220.433 405.11 215.958 405.11C213.583 405.11 211.346 405.422 209.245 406.044C207.145 406.667 204.953 407.873 202.67 409.663C200.386 411.375 197.829 413.944 194.998 417.368C191.436 421.571 188.103 424.8 184.998 427.057C181.892 429.314 178.833 430.871 175.819 431.727C172.805 432.583 169.746 433.011 166.641 433.011C161.252 433.011 156.549 431.844 152.53 429.509C148.421 427.174 145.27 423.944 143.078 419.819C140.795 415.617 139.653 410.869 139.653 405.577C139.653 401.686 140.292 397.833 141.571 394.02C142.758 390.129 144.402 386.899 146.503 384.331L165.682 387.599V388.767L156.64 391.101C151.8 392.347 148.238 393.981 145.955 396.005C143.58 398.028 142.393 401.102 142.393 405.227C142.393 409.274 143.763 412.698 146.503 415.5C149.242 418.224 152.896 419.586 157.462 419.586C161.389 419.586 164.951 418.691 168.147 416.901C171.344 415.111 174.906 411.881 178.833 407.212C184.13 401.063 188.925 396.822 193.217 394.487C197.418 392.074 201.985 390.868 206.916 390.868C212.761 390.868 217.785 392.113 221.986 394.604C226.095 397.094 229.292 400.557 231.575 404.994C233.858 409.352 235 414.372 235 420.053Z" fill="white"/>
<path d="M232.534 371.342L231.164 371.109L229.931 368.307C228.196 364.727 225.091 362.548 220.616 361.77L184.587 356.049C180.751 355.427 176.504 354.765 171.846 354.065C167.097 353.287 162.394 352.547 157.736 351.847C152.987 351.146 148.694 350.524 144.859 349.979V354.999C144.859 357.801 145.452 360.213 146.64 362.237C147.827 364.26 149.745 366.089 152.393 367.723L167.326 377.063V378.23L142.119 373.911V309.237L167.326 312.972V314.14L153.489 318.459C147.736 320.171 144.859 323.713 144.859 329.083V333.869L189.929 341.107C194.587 341.885 199.61 342.702 204.999 343.558C210.296 344.337 215.456 345.115 220.479 345.893C225.228 346.594 228.516 345.076 230.342 341.34L231.164 339.823L232.534 340.056V371.342Z" fill="white"/>
<path d="M235 279.861C235 287.8 232.762 294.22 228.287 299.123C223.721 303.949 216.871 306.361 207.738 306.361C205.729 306.361 203.674 306.244 201.574 306.011C199.473 305.7 197.281 305.388 194.998 305.077L183.491 303.326C178.924 302.703 173.901 301.964 168.421 301.108C162.942 300.174 157.69 299.318 152.667 298.54C148.375 297.995 145.452 299.474 143.9 302.976L143.489 303.793L142.119 303.559V274.024L143.489 274.258L144.037 275.425C145.407 278.927 148.238 281.029 152.53 281.729L194.039 288.383C196.14 288.695 198.286 288.967 200.478 289.2C202.578 289.434 204.725 289.551 206.916 289.551C213.035 289.551 217.83 288.266 221.301 285.698C224.771 283.052 226.506 279.239 226.506 274.258C226.506 268.421 224.178 263.712 219.52 260.132C214.771 256.552 208.423 254.14 200.478 252.894L152.667 245.19C148.192 244.489 145.224 245.929 143.763 249.509L143.489 250.209L142.119 249.976V234.333L143.489 234.566L144.037 235.734C145.407 239.236 148.238 241.337 152.53 242.038L201.711 249.742C211.666 251.299 219.702 254.607 225.821 259.665C231.94 264.724 235 271.456 235 279.861Z" fill="white"/>
<path d="M232.534 241.679L231.164 241.329L230.205 239.461C229.383 237.905 228.379 236.698 227.191 235.842C226.004 234.986 224.406 234.402 222.397 234.091L184.587 228.021C179.746 227.242 174.449 226.425 168.695 225.569C162.942 224.713 157.416 223.896 152.119 223.117C148.557 222.651 146 223.74 144.448 226.386L143.489 227.904L142.119 227.67V201.404C142.119 193.31 143.763 186.539 147.051 181.091C150.338 175.643 154.859 171.557 160.613 168.833C166.367 166.11 172.897 164.748 180.203 164.748C188.422 164.748 195.774 165.993 202.259 168.483C208.743 170.974 214.223 174.398 218.698 178.756C223.173 183.037 226.598 188.018 228.972 193.699C231.347 199.303 232.534 205.295 232.534 211.677V241.679ZM229.794 219.148V213.195C229.794 206.502 227.602 200.82 223.219 196.151C218.835 191.481 212.807 187.901 205.136 185.411C197.464 182.842 188.742 181.558 178.97 181.558C167.645 181.558 159.243 183.348 153.763 186.928C148.192 190.508 145.224 195.761 144.859 202.688V205.84L189.929 213.195C196.596 214.206 203.263 215.257 209.93 216.347C216.597 217.358 223.219 218.292 229.794 219.148Z" fill="white"/>
<path d="M232.534 165.383L231.164 165.033L229.383 161.531C228.47 159.663 226.826 158.535 224.452 158.145L184.587 151.725C179.472 150.946 173.855 150.09 167.736 149.156C161.617 148.223 155.864 147.366 150.475 146.588C147.736 146.199 145.772 147.133 144.585 149.39L143.489 151.725L142.119 151.375V123.24L143.489 123.474L144.996 126.859C145.818 128.727 147.507 129.933 150.064 130.478L189.929 136.899C195.044 137.677 200.66 138.533 206.779 139.467C212.898 140.401 218.652 141.296 224.041 142.152C226.689 142.386 228.607 141.491 229.794 139.467L231.164 136.782L232.534 137.132V165.383Z" fill="white"/>
<path d="M232.534 127.393L231.164 127.159L230.342 124.941C229.064 122.139 226.78 120.505 223.493 120.038L184.587 113.734C179.746 112.956 174.403 112.139 168.558 111.283C162.622 110.427 157.005 109.609 151.708 108.831C148.055 108.286 145.544 109.493 144.174 112.45L143.489 113.617L142.119 113.384L142.119 60.7343L165.956 63.6528V64.8202L153.352 67.155C150.43 67.6998 148.283 68.6726 146.914 70.0735C145.544 71.4744 144.859 73.5368 144.859 76.2607V91.5536L184.587 97.9743V87.2342C184.587 83.732 182.943 81.0859 179.655 79.2959L172.805 75.4435V74.2761L198.971 78.4788V79.6462L193.491 81.047C189.381 82.0588 187.326 84.3936 187.326 88.0514V98.4413C193.993 99.453 201.026 100.543 208.423 101.71C215.821 102.877 222.945 103.928 229.794 104.862V86.0668C229.794 83.6542 229.246 81.5918 228.15 79.8796C226.963 78.1674 225 76.4942 222.26 74.8598L208.697 67.0383V65.8709L232.534 70.5405V127.393Z" fill="white"/>
<path d="M235 36.3804C235 40.4274 234.406 44.4354 233.219 48.4046C232.032 52.2959 230.342 55.6035 228.15 58.3275L208.012 55.5257V54.3583L219.246 50.9729C223.721 49.6498 227.009 47.9376 229.109 45.8363C231.21 43.6572 232.26 40.5052 232.26 36.3804C232.26 31.7886 230.662 28.1697 227.465 25.5236C224.269 22.7997 220.433 21.4377 215.958 21.4377C213.583 21.4377 211.346 21.749 209.245 22.3716C207.145 22.9942 204.953 24.2005 202.67 25.9906C200.386 27.7027 197.829 30.271 194.998 33.6954C191.436 37.898 188.103 41.1278 184.998 43.3848C181.892 45.6417 178.833 47.1983 175.819 48.0544C172.805 48.9105 169.746 49.3385 166.641 49.3385C161.252 49.3385 156.549 48.1711 152.53 45.8363C148.42 43.5015 145.27 40.2717 143.078 36.1469C140.795 31.9443 139.653 27.1969 139.653 21.9047C139.653 18.0133 140.292 14.1609 141.571 10.3474C142.758 6.4561 144.402 3.2263 146.503 0.658021L165.682 3.92674V5.09413L156.64 7.42893C151.8 8.67415 148.238 10.3085 145.955 12.332C143.58 14.3555 142.393 17.4296 142.393 21.5544C142.393 25.6014 143.763 29.0258 146.503 31.8275C149.242 34.5515 152.896 35.9134 157.462 35.9134C161.389 35.9134 164.951 35.0184 168.147 33.2284C171.344 31.4384 174.906 28.2086 178.833 23.539C184.13 17.3907 188.925 13.1492 193.217 10.8144C197.418 8.40176 201.985 7.19545 206.916 7.19545C212.761 7.19545 217.785 8.44067 221.986 10.9311C226.095 13.4216 229.292 16.8848 231.575 21.321C233.858 25.6792 235 30.6991 235 36.3804Z" fill="white"/>
</svg>
